{"glyphs":{"0":{"ha":921,"x_min":69,"x_max":851,"o":"m 460 -22 q 253 40 340 -22 q 117 218 165 103 q 69 492 69 333 q 117 766 69 650 q 253 945 165 882 q 460 1008 340 1008 q 668 945 581 1008 q 803 767 756 882 q 851 492 851 651 q 803 218 851 333 q 668 40 756 103 q 460 -22 581 -22 m 460 94 q 657 198 588 94 q 726 492 726 301 q 657 788 726 683 q 460 892 588 892 q 264 788 333 892 q 194 492 194 683 q 264 198 194 301 q 460 94 333 94 z "},"1":{"ha":533,"x_min":56,"x_max":381,"o":"m 261 0 l 261 731 l 56 731 l 56 833 l 139 833 q 253 866 221 833 q 286 986 286 899 l 381 986 l 381 0 l 261 0 z "},"2":{"ha":860,"x_min":83,"x_max":776,"o":"m 83 0 q 116 188 83 104 q 231 349 149 272 q 461 503 314 425 q 571 569 529 539 q 632 635 613 600 q 651 719 651 669 q 602 844 651 796 q 454 892 553 892 q 290 838 350 892 q 214 683 229 783 l 89 692 q 200 922 106 836 q 454 1008 294 1008 q 692 929 607 1008 q 776 722 776 850 q 751 592 776 647 q 667 490 726 538 q 506 389 608 443 q 303 246 372 318 q 231 117 235 174 l 776 117 l 776 0 l 83 0 z "},"3":{"ha":851,"x_min":69,"x_max":782,"o":"m 418 -22 q 165 55 254 -22 q 69 254 76 132 l 193 263 q 263 133 201 172 q 418 94 325 94 q 536 112 482 94 q 624 169 590 129 q 657 275 657 208 q 592 419 657 374 q 419 465 526 465 l 342 465 l 342 582 l 419 582 q 565 617 507 582 q 622 736 622 651 q 425 892 622 892 q 278 854 328 892 q 219 751 229 817 l 94 760 q 193 940 108 871 q 425 1008 278 1008 q 661 937 575 1008 q 747 742 747 865 q 576 531 747 583 q 727 437 672 504 q 782 275 782 369 q 735 114 782 181 q 607 13 689 47 q 418 -22 525 -22 z "},"4":{"ha":854,"x_min":42,"x_max":785,"o":"m 543 0 l 543 214 l 42 214 l 42 322 l 535 986 l 663 986 l 663 331 l 785 331 l 785 214 l 663 214 l 663 0 l 543 0 m 186 331 l 543 331 l 543 803 l 186 331 z "},"5":{"ha":869,"x_min":83,"x_max":785,"o":"m 433 -22 q 186 55 278 -22 q 83 254 94 132 l 208 263 q 280 137 219 179 q 433 94 340 94 q 599 153 538 94 q 660 317 660 213 q 599 482 660 421 q 431 543 539 543 q 307 514 363 543 q 228 432 251 485 l 100 432 l 165 986 l 718 986 l 718 869 l 275 869 l 239 572 q 333 635 276 614 q 453 657 389 657 q 626 613 551 657 q 743 492 701 569 q 785 317 785 415 q 740 141 785 218 q 617 21 696 64 q 433 -22 538 -22 z "},"6":{"ha":867,"x_min":83,"x_max":782,"o":"m 433 -22 q 175 92 267 -22 q 83 417 83 206 q 103 646 83 539 q 169 834 124 753 q 288 962 214 915 q 472 1008 363 1008 q 676 944 604 1008 q 778 775 749 879 l 653 764 q 595 857 636 822 q 472 892 554 892 q 291 803 360 892 q 208 538 222 715 q 308 628 244 592 q 456 664 371 664 q 626 622 553 664 q 741 505 700 581 q 782 328 782 429 q 738 141 782 219 q 615 20 693 63 q 433 -22 536 -22 m 436 94 q 595 156 533 94 q 657 328 657 218 q 599 490 657 431 q 447 550 540 550 q 328 523 381 550 q 244 446 275 496 q 214 328 214 396 q 274 160 214 226 q 436 94 335 94 z "},"7":{"ha":728,"x_min":28,"x_max":728,"o":"m 247 0 q 289 305 247 153 q 409 600 331 457 q 597 869 488 743 l 28 869 l 28 986 l 728 986 l 728 878 q 524 598 604 736 q 407 313 444 460 q 369 0 369 167 l 247 0 z "},"8":{"ha":839,"x_min":56,"x_max":783,"o":"m 419 -22 q 231 11 314 -22 q 102 110 149 44 q 56 271 56 175 q 107 433 56 367 q 246 531 158 500 q 142 608 181 557 q 103 738 103 658 q 142 876 103 815 q 253 973 182 938 q 419 1008 324 1008 q 587 973 515 1008 q 697 876 658 938 q 736 738 736 815 q 697 608 736 658 q 593 531 658 557 q 732 433 681 500 q 783 271 783 367 q 737 110 783 175 q 608 11 690 44 q 419 -22 526 -22 m 419 579 q 561 619 511 579 q 611 738 611 658 q 563 850 611 808 q 419 892 514 892 q 277 850 326 892 q 228 738 228 808 q 278 619 228 658 q 419 579 328 579 m 419 94 q 594 140 529 94 q 658 278 658 185 q 601 416 658 364 q 419 468 543 468 q 239 416 297 468 q 181 278 181 364 q 245 140 181 185 q 419 94 310 94 z "},"9":{"ha":867,"x_min":83,"x_max":782,"o":"m 400 -22 q 201 38 278 -22 q 96 190 124 99 l 222 200 q 283 122 239 150 q 400 94 328 94 q 578 178 513 94 q 654 444 643 261 q 551 348 614 382 q 411 314 489 314 q 242 357 315 314 q 126 478 168 400 q 83 658 83 556 q 128 845 83 767 q 249 966 172 924 q 426 1008 326 1008 q 628 951 550 1008 q 744 792 707 894 q 782 551 782 690 q 763 323 782 428 q 699 141 743 218 q 581 21 654 64 q 400 -22 508 -22 m 419 432 q 585 491 521 432 q 650 656 650 550 q 590 825 650 758 q 426 892 531 892 q 267 826 325 892 q 208 658 208 761 q 267 493 208 554 q 419 432 326 432 z "},"A":{"ha":928,"x_min":28,"x_max":900,"o":"m 28 0 l 383 986 l 544 986 l 900 0 l 769 0 l 671 281 l 257 281 l 158 0 l 28 0 m 297 397 l 631 397 l 464 882 l 297 397 z "},"Á":{"ha":928,"x_min":28,"x_max":900,"o":"m 28 0 l 383 986 l 544 986 l 900 0 l 769 0 l 671 281 l 257 281 l 158 0 l 28 0 m 297 397 l 631 397 l 464 882 l 297 397 m 413 1081 l 504 1258 l 635 1258 l 510 1081 l 413 1081 z "},"Ă":{"ha":928,"x_min":28,"x_max":900,"o":"m 28 0 l 383 986 l 544 986 l 900 0 l 769 0 l 671 281 l 257 281 l 158 0 l 28 0 m 297 397 l 631 397 l 464 882 l 297 397 m 464 1088 q 326 1136 379 1088 q 269 1265 274 1185 l 350 1265 q 387 1196 357 1218 q 464 1174 417 1174 q 542 1196 513 1174 q 576 1265 571 1218 l 657 1265 q 601 1136 653 1185 q 464 1088 550 1088 z "},"Ǎ":{"ha":928,"x_min":28,"x_max":900,"o":"m 28 0 l 383 986 l 544 986 l 900 0 l 769 0 l 671 281 l 257 281 l 158 0 l 28 0 m 297 397 l 631 397 l 464 882 l 297 397 m 274 1265 l 371 1265 l 464 1142 l 557 1265 l 654 1265 l 529 1081 l 399 1081 l 274 1265 z "},"Â":{"ha":928,"x_min":28,"x_max":900,"o":"m 28 0 l 383 986 l 544 986 l 900 0 l 769 0 l 671 281 l 257 281 l 158 0 l 28 0 m 297 397 l 631 397 l 464 882 l 297 397 m 274 1081 l 399 1265 l 529 1265 l 654 1081 l 557 1081 l 464 1204 l 371 1081 l 274 1081 z "},"Ä":{"ha":928,"x_min":28,"x_max":900,"o":"m 28 0 l 383 986 l 544 986 l 900 0 l 769 0 l 671 281 l 257 281 l 158 0 l 28 0 m 297 397 l 631 397 l 464 882 l 297 397 m 282 1101 l 282 1238 l 404 1238 l 404 1101 l 282 1101 m 524 1101 l 524 1238 l 646 1238 l 646 1101 l 524 1101 z "},"À":{"ha":928,"x_min":28,"x_max":900,"o":"m 28 0 l 383 986 l 544 986 l 900 0 l 769 0 l 671 281 l 257 281 l 158 0 l 28 0 m 297 397 l 631 397 l 464 882 l 297 397 m 421 1088 l 296 1265 l 426 1265 l 518 1088 l 421 1088 z "},"Ā":{"ha":928,"x_min":28,"x_max":900,"o":"m 28 0 l 383 986 l 544 986 l 900 0 l 769 0 l 671 281 l 257 281 l 158 0 l 28 0 m 297 397 l 631 397 l 464 882 l 297 397 m 278 1118 l 278 1218 l 650 1218 l 650 1118 l 278 1118 z "},"Ą":{"ha":928,"x_min":28,"x_max":949,"o":"m 28 0 l 383 986 l 544 986 l 900 0 l 769 0 l 671 281 l 257 281 l 158 0 l 28 0 m 297 397 l 631 397 l 464 882 l 297 397 m 829 -292 q 735 -267 769 -292 q 700 -194 700 -242 q 726 -112 700 -154 q 779 -31 751 -69 l 821 25 l 900 0 l 851 -67 q 817 -124 825 -103 q 808 -161 808 -144 q 819 -187 808 -178 q 849 -197 831 -197 q 915 -178 888 -197 l 949 -256 q 899 -281 933 -271 q 829 -292 865 -292 z "},"Å":{"ha":929,"x_min":26,"x_max":899,"o":"m 26 0 l 382 986 l 543 986 l 899 0 l 768 0 l 669 281 l 256 281 l 157 0 l 26 0 m 296 397 l 629 397 l 463 882 l 296 397 m 458 1050 q 367 1087 404 1050 q 331 1178 331 1124 q 367 1269 331 1232 q 458 1306 404 1306 q 549 1269 513 1306 q 586 1178 586 1232 q 549 1087 586 1124 q 458 1050 513 1050 m 458 1119 q 500 1136 483 1119 q 517 1178 517 1153 q 500 1219 517 1203 q 458 1236 483 1236 q 417 1219 433 1236 q 400 1178 400 1203 q 417 1136 400 1153 q 458 1119 433 1119 z "},"Ã":{"ha":929,"x_min":26,"x_max":899,"o":"m 26 0 l 382 986 l 543 986 l 899 0 l 768 0 l 669 281 l 256 281 l 157 0 l 26 0 m 296 397 l 629 397 l 463 882 l 296 397 m 528 1097 q 478 1108 501 1097 q 431 1136 454 1118 q 393 1164 407 1156 q 358 1172 379 1172 q 317 1155 333 1172 q 299 1088 301 1138 l 226 1088 q 266 1209 229 1168 q 358 1250 303 1250 q 416 1239 392 1250 q 464 1208 440 1228 q 533 1175 506 1175 q 574 1194 560 1175 q 592 1264 588 1213 l 664 1264 q 624 1141 660 1185 q 528 1097 588 1097 z "},"Æ":{"ha":1350,"x_min":28,"x_max":1271,"o":"m 28 0 l 556 986 l 1260 986 l 1260 869 l 804 869 l 804 551 l 1243 551 l 1243 438 l 804 438 l 804 117 l 1271 117 l 1271 0 l 685 0 l 685 281 l 307 281 l 163 0 l 28 0 m 685 874 l 614 874 l 368 397 l 685 397 l 685 874 z "},"B":{"ha":944,"x_min":128,"x_max":858,"o":"m 128 0 l 128 986 l 467 986 q 729 922 642 986 q 817 721 817 858 q 770 581 817 638 q 642 510 724 525 q 801 431 743 496 q 858 271 858 367 q 771 68 858 136 q 522 0 683 0 l 128 0 m 247 560 l 467 560 q 633 601 575 560 q 692 715 692 642 q 467 869 692 869 l 247 869 l 247 560 m 247 117 l 522 117 q 678 158 624 117 q 733 278 733 200 q 678 399 733 356 q 522 443 624 443 l 247 443 l 247 117 z "},"C":{"ha":976,"x_min":63,"x_max":921,"o":"m 506 -22 q 274 40 374 -22 q 118 217 174 101 q 63 492 63 332 q 118 767 63 651 q 274 946 174 883 q 506 1008 374 1008 q 783 918 685 1008 q 913 672 882 828 l 786 664 q 697 831 765 769 q 506 892 629 892 q 340 844 411 892 q 228 706 268 796 q 188 492 188 617 q 228 278 188 367 q 340 142 268 189 q 506 94 411 94 q 706 162 635 94 q 794 344 776 229 l 921 336 q 850 149 903 229 q 710 23 797 68 q 506 -22 624 -22 z "},"Ć":{"ha":976,"x_min":63,"x_max":921,"o":"m 506 -22 q 274 40 374 -22 q 118 217 174 101 q 63 492 63 332 q 118 767 63 651 q 274 946 174 883 q 506 1008 374 1008 q 783 918 685 1008 q 913 672 882 828 l 786 664 q 697 831 765 769 q 506 892 629 892 q 340 844 411 892 q 228 706 268 796 q 188 492 188 617 q 228 278 188 367 q 340 142 268 189 q 506 94 411 94 q 706 162 635 94 q 794 344 776 229 l 921 336 q 850 149 903 229 q 710 23 797 68 q 506 -22 624 -22 m 451 1081 l 543 1258 l 674 1258 l 549 1081 l 451 1081 z "},"Č":{"ha":976,"x_min":63,"x_max":921,"o":"m 506 -22 q 274 40 374 -22 q 118 217 174 101 q 63 492 63 332 q 118 767 63 651 q 274 946 174 883 q 506 1008 374 1008 q 783 918 685 1008 q 913 672 882 828 l 786 664 q 697 831 765 769 q 506 892 629 892 q 340 844 411 892 q 228 706 268 796 q 188 492 188 617 q 228 278 188 367 q 340 142 268 189 q 506 94 411 94 q 706 162 635 94 q 794 344 776 229 l 921 336 q 850 149 903 229 q 710 23 797 68 q 506 -22 624 -22 m 313 1265 l 410 1265 l 503 1142 l 596 1265 l 693 1265 l 568 1081 l 438 1081 l 313 1265 z "},"Ç":{"ha":976,"x_min":63,"x_max":921,"o":"m 506 -22 q 274 40 374 -22 q 118 217 174 101 q 63 492 63 332 q 118 767 63 651 q 274 946 174 883 q 506 1008 374 1008 q 783 918 685 1008 q 913 672 882 828 l 786 664 q 697 831 765 769 q 506 892 629 892 q 340 844 411 892 q 228 706 268 796 q 188 492 188 617 q 228 278 188 367 q 340 142 268 189 q 506 94 411 94 q 706 162 635 94 q 794 344 776 229 l 921 336 q 850 149 903 229 q 710 23 797 68 q 506 -22 624 -22 m 494 -306 q 388 -274 428 -306 q 332 -197 347 -243 l 403 -169 q 492 -228 426 -228 q 567 -172 567 -228 q 547 -128 567 -146 q 461 -111 528 -111 l 422 -69 l 475 14 l 564 14 l 517 -50 q 617 -87 585 -53 q 650 -175 650 -121 q 606 -269 650 -233 q 494 -306 563 -306 z "},"Ĉ":{"ha":976,"x_min":63,"x_max":921,"o":"m 506 -22 q 274 40 374 -22 q 118 217 174 101 q 63 492 63 332 q 118 767 63 651 q 274 946 174 883 q 506 1008 374 1008 q 783 918 685 1008 q 913 672 882 828 l 786 664 q 697 831 765 769 q 506 892 629 892 q 340 844 411 892 q 228 706 268 796 q 188 492 188 617 q 228 278 188 367 q 340 142 268 189 q 506 94 411 94 q 706 162 635 94 q 794 344 776 229 l 921 336 q 850 149 903 229 q 710 23 797 68 q 506 -22 624 -22 m 313 1081 l 438 1265 l 568 1265 l 693 1081 l 596 1081 l 503 1204 l 410 1081 l 313 1081 z "},"Ċ":{"ha":976,"x_min":63,"x_max":921,"o":"m 506 -22 q 274 40 374 -22 q 118 217 174 101 q 63 492 63 332 q 118 767 63 651 q 274 946 174 883 q 506 1008 374 1008 q 783 918 685 1008 q 913 672 882 828 l 786 664 q 697 831 765 769 q 506 892 629 892 q 340 844 411 892 q 228 706 268 796 q 188 492 188 617 q 228 278 188 367 q 340 142 268 189 q 506 94 411 94 q 706 162 635 94 q 794 344 776 229 l 921 336 q 850 149 903 229 q 710 23 797 68 q 506 -22 624 -22 m 442 1101 l 442 1238 l 564 1238 l 564 1101 l 442 1101 z "},"D":{"ha":969,"x_min":128,"x_max":907,"o":"m 128 0 l 128 986 l 433 986 q 784 858 661 986 q 907 492 907 729 q 786 128 907 256 q 442 0 665 0 l 128 0 m 247 117 l 433 117 q 782 492 782 117 q 433 869 782 869 l 247 869 l 247 117 z "},"Ď":{"ha":969,"x_min":128,"x_max":907,"o":"m 128 0 l 128 986 l 433 986 q 784 858 661 986 q 907 492 907 729 q 786 128 907 256 q 442 0 665 0 l 128 0 m 247 117 l 433 117 q 782 492 782 117 q 433 869 782 869 l 247 869 l 247 117 m 258 1265 l 356 1265 l 449 1142 l 542 1265 l 639 1265 l 514 1081 l 383 1081 l 258 1265 z "},"Đ":{"ha":969,"x_min":28,"x_max":907,"o":"m 128 0 l 128 986 l 433 986 q 784 858 661 986 q 907 492 907 729 q 786 128 907 256 q 442 0 665 0 l 128 0 m 247 117 l 433 117 q 782 492 782 117 q 433 869 782 869 l 247 869 l 247 117 m 28 439 l 28 547 l 528 547 l 528 439 l 28 439 z "},"Ð":{"ha":969,"x_min":28,"x_max":907,"o":"m 128 0 l 128 986 l 433 986 q 784 858 661 986 q 907 492 907 729 q 786 128 907 256 q 442 0 665 0 l 128 0 m 247 117 l 433 117 q 782 492 782 117 q 433 869 782 869 l 247 869 l 247 117 m 28 439 l 28 547 l 528 547 l 528 439 l 28 439 z "},"E":{"ha":838,"x_min":128,"x_max":758,"o":"m 128 0 l 128 986 l 747 986 l 747 869 l 247 869 l 247 551 l 731 551 l 731 438 l 247 438 l 247 117 l 758 117 l 758 0 l 128 0 z "},"É":{"ha":838,"x_min":128,"x_max":758,"o":"m 128 0 l 128 986 l 747 986 l 747 869 l 247 869 l 247 551 l 731 551 l 731 438 l 247 438 l 247 117 l 758 117 l 758 0 l 128 0 m 389 1081 l 481 1258 l 611 1258 l 486 1081 l 389 1081 z "},"Ě":{"ha":838,"x_min":128,"x_max":758,"o":"m 128 0 l 128 986 l 747 986 l 747 869 l 247 869 l 247 551 l 731 551 l 731 438 l 247 438 l 247 117 l 758 117 l 758 0 l 128 0 m 250 1265 l 347 1265 l 440 1142 l 533 1265 l 631 1265 l 506 1081 l 375 1081 l 250 1265 z "},"Ê":{"ha":838,"x_min":128,"x_max":758,"o":"m 128 0 l 128 986 l 747 986 l 747 869 l 247 869 l 247 551 l 731 551 l 731 438 l 247 438 l 247 117 l 758 117 l 758 0 l 128 0 m 250 1081 l 375 1265 l 506 1265 l 631 1081 l 533 1081 l 440 1204 l 347 1081 l 250 1081 z "},"Ë":{"ha":838,"x_min":128,"x_max":758,"o":"m 128 0 l 128 986 l 747 986 l 747 869 l 247 869 l 247 551 l 731 551 l 731 438 l 247 438 l 247 117 l 758 117 l 758 0 l 128 0 m 258 1101 l 258 1238 l 381 1238 l 381 1101 l 258 1101 m 500 1101 l 500 1238 l 622 1238 l 622 1101 l 500 1101 z "},"Ė":{"ha":838,"x_min":128,"x_max":758,"o":"m 128 0 l 128 986 l 747 986 l 747 869 l 247 869 l 247 551 l 731 551 l 731 438 l 247 438 l 247 117 l 758 117 l 758 0 l 128 0 m 379 1101 l 379 1238 l 501 1238 l 501 1101 l 379 1101 z "},"È":{"ha":838,"x_min":128,"x_max":758,"o":"m 128 0 l 128 986 l 747 986 l 747 869 l 247 869 l 247 551 l 731 551 l 731 438 l 247 438 l 247 117 l 758 117 l 758 0 l 128 0 m 397 1088 l 272 1265 l 403 1265 l 494 1088 l 397 1088 z "},"Ē":{"ha":838,"x_min":128,"x_max":758,"o":"m 128 0 l 128 986 l 747 986 l 747 869 l 247 869 l 247 551 l 731 551 l 731 438 l 247 438 l 247 117 l 758 117 l 758 0 l 128 0 m 254 1118 l 254 1218 l 626 1218 l 626 1118 l 254 1118 z "},"Ę":{"ha":838,"x_min":128,"x_max":807,"o":"m 128 0 l 128 986 l 747 986 l 747 869 l 247 869 l 247 551 l 731 551 l 731 438 l 247 438 l 247 117 l 758 117 l 758 0 l 128 0 m 688 -292 q 593 -267 628 -292 q 558 -194 558 -242 q 584 -112 558 -154 q 638 -31 610 -69 l 679 25 l 758 0 l 710 -67 q 675 -124 683 -103 q 667 -161 667 -144 q 678 -187 667 -178 q 707 -197 689 -197 q 774 -178 746 -197 l 807 -256 q 758 -281 792 -271 q 688 -292 724 -292 z "},"Ẽ":{"ha":838,"x_min":128,"x_max":758,"o":"m 128 0 l 128 986 l 747 986 l 747 869 l 247 869 l 247 551 l 731 551 l 731 438 l 247 438 l 247 117 l 758 117 l 758 0 l 128 0 m 522 1097 q 472 1108 496 1097 q 425 1136 449 1118 q 388 1164 401 1156 q 353 1172 374 1172 q 312 1155 328 1172 q 293 1088 296 1138 l 221 1088 q 260 1209 224 1168 q 353 1250 297 1250 q 410 1239 386 1250 q 458 1208 435 1228 q 528 1175 500 1175 q 568 1194 554 1175 q 586 1264 582 1213 l 658 1264 q 618 1141 654 1185 q 522 1097 582 1097 z "},"Ə":{"ha":990,"x_min":63,"x_max":928,"o":"m 928 493 q 871 215 928 331 q 714 39 814 100 q 483 -22 614 -22 q 327 9 403 -22 q 192 102 251 40 q 97 257 132 164 q 63 472 63 350 l 63 542 l 801 542 q 751 732 796 654 q 637 851 707 810 q 483 892 567 892 q 327 843 396 892 q 219 696 258 794 l 93 708 q 240 928 136 847 q 483 1008 344 1008 q 719 945 619 1008 q 874 766 819 882 q 928 493 928 650 m 483 94 q 636 132 567 94 q 749 243 706 169 q 801 425 793 317 l 190 425 q 286 180 210 265 q 483 94 363 94 z "},"F":{"ha":819,"x_min":128,"x_max":747,"o":"m 128 0 l 128 986 l 747 986 l 747 869 l 247 869 l 247 539 l 722 539 l 722 425 l 247 425 l 247 0 l 128 0 z "},"G":{"ha":972,"x_min":63,"x_max":903,"o":"m 503 -22 q 265 44 364 -22 q 115 227 167 111 q 63 492 63 343 q 115 757 63 640 q 267 941 168 874 q 506 1008 367 1008 q 705 965 624 1008 q 834 849 786 922 q 900 683 882 775 l 775 675 q 694 831 757 771 q 506 892 632 892 q 323 836 393 892 q 220 690 253 781 q 188 492 188 599 q 221 290 188 379 q 325 147 254 200 q 506 94 396 94 q 657 134 593 94 q 756 240 721 174 q 792 385 790 307 l 508 385 l 508 499 l 903 499 l 903 0 l 814 0 l 808 165 q 688 30 771 82 q 503 -22 604 -22 z "},"Ğ":{"ha":972,"x_min":63,"x_max":903,"o":"m 503 -22 q 265 44 364 -22 q 115 227 167 111 q 63 492 63 343 q 115 757 63 640 q 267 941 168 874 q 506 1008 367 1008 q 705 965 624 1008 q 834 849 786 922 q 900 683 882 775 l 775 675 q 694 831 757 771 q 506 892 632 892 q 323 836 393 892 q 220 690 253 781 q 188 492 188 599 q 221 290 188 379 q 325 147 254 200 q 506 94 396 94 q 657 134 593 94 q 756 240 721 174 q 792 385 790 307 l 508 385 l 508 499 l 903 499 l 903 0 l 814 0 l 808 165 q 688 30 771 82 q 503 -22 604 -22 m 506 1088 q 368 1136 421 1088 q 311 1265 315 1185 l 392 1265 q 428 1196 399 1218 q 506 1174 458 1174 q 583 1196 554 1174 q 618 1265 613 1218 l 699 1265 q 643 1136 694 1185 q 506 1088 592 1088 z "},"Ǧ":{"ha":972,"x_min":63,"x_max":903,"o":"m 503 -22 q 265 44 364 -22 q 115 227 167 111 q 63 492 63 343 q 115 757 63 640 q 267 941 168 874 q 506 1008 367 1008 q 705 965 624 1008 q 834 849 786 922 q 900 683 882 775 l 775 675 q 694 831 757 771 q 506 892 632 892 q 323 836 393 892 q 220 690 253 781 q 188 492 188 599 q 221 290 188 379 q 325 147 254 200 q 506 94 396 94 q 657 134 593 94 q 756 240 721 174 q 792 385 790 307 l 508 385 l 508 499 l 903 499 l 903 0 l 814 0 l 808 165 q 688 30 771 82 q 503 -22 604 -22 m 315 1265 l 413 1265 l 506 1142 l 599 1265 l 696 1265 l 571 1081 l 440 1081 l 315 1265 z "},"Ĝ":{"ha":972,"x_min":63,"x_max":903,"o":"m 503 -22 q 265 44 364 -22 q 115 227 167 111 q 63 492 63 343 q 115 757 63 640 q 267 941 168 874 q 506 1008 367 1008 q 705 965 624 1008 q 834 849 786 922 q 900 683 882 775 l 775 675 q 694 831 757 771 q 506 892 632 892 q 323 836 393 892 q 220 690 253 781 q 188 492 188 599 q 221 290 188 379 q 325 147 254 200 q 506 94 396 94 q 657 134 593 94 q 756 240 721 174 q 792 385 790 307 l 508 385 l 508 499 l 903 499 l 903 0 l 814 0 l 808 165 q 688 30 771 82 q 503 -22 604 -22 m 315 1081 l 440 1265 l 571 1265 l 696 1081 l 599 1081 l 506 1204 l 413 1081 l 315 1081 z "},"Ģ":{"ha":972,"x_min":63,"x_max":903,"o":"m 503 -22 q 265 44 364 -22 q 115 227 167 111 q 63 492 63 343 q 115 757 63 640 q 267 941 168 874 q 506 1008 367 1008 q 705 965 624 1008 q 834 849 786 922 q 900 683 882 775 l 775 675 q 694 831 757 771 q 506 892 632 892 q 323 836 393 892 q 220 690 253 781 q 188 492 188 599 q 221 290 188 379 q 325 147 254 200 q 506 94 396 94 q 657 134 593 94 q 756 240 721 174 q 792 385 790 307 l 508 385 l 508 499 l 903 499 l 903 0 l 814 0 l 808 165 q 688 30 771 82 q 503 -22 604 -22 m 413 -333 l 489 -199 l 439 -199 l 439 -74 l 578 -74 l 578 -187 l 493 -333 l 413 -333 z "},"Ġ":{"ha":972,"x_min":63,"x_max":903,"o":"m 503 -22 q 265 44 364 -22 q 115 227 167 111 q 63 492 63 343 q 115 757 63 640 q 267 941 168 874 q 506 1008 367 1008 q 705 965 624 1008 q 834 849 786 922 q 900 683 882 775 l 775 675 q 694 831 757 771 q 506 892 632 892 q 323 836 393 892 q 220 690 253 781 q 188 492 188 599 q 221 290 188 379 q 325 147 254 200 q 506 94 396 94 q 657 134 593 94 q 756 240 721 174 q 792 385 790 307 l 508 385 l 508 499 l 903 499 l 903 0 l 814 0 l 808 165 q 688 30 771 82 q 503 -22 604 -22 m 444 1101 l 444 1238 l 567 1238 l 567 1101 l 444 1101 z "},"Ḡ":{"ha":972,"x_min":63,"x_max":903,"o":"m 503 -22 q 265 44 364 -22 q 115 227 167 111 q 63 492 63 343 q 115 757 63 640 q 267 941 168 874 q 506 1008 367 1008 q 705 965 624 1008 q 834 849 786 922 q 900 683 882 775 l 775 675 q 694 831 757 771 q 506 892 632 892 q 323 836 393 892 q 220 690 253 781 q 188 492 188 599 q 221 290 188 379 q 325 147 254 200 q 506 94 396 94 q 657 134 593 94 q 756 240 721 174 q 792 385 790 307 l 508 385 l 508 499 l 903 499 l 903 0 l 814 0 l 808 165 q 688 30 771 82 q 503 -22 604 -22 m 319 1118 l 319 1218 l 692 1218 l 692 1118 l 319 1118 z "},"Ǥ":{"ha":1033,"x_min":63,"x_max":978,"o":"m 503 -22 q 262 47 360 -22 q 113 232 164 115 q 63 492 63 349 q 115 753 63 636 q 267 939 167 869 q 508 1008 367 1008 q 774 919 676 1008 q 900 683 871 829 l 775 675 q 733 785 764 736 q 647 863 701 835 q 508 892 593 892 q 324 836 394 892 q 220 690 253 781 q 188 492 188 599 q 221 289 188 379 q 324 147 254 199 q 503 94 394 94 q 643 125 585 94 q 738 207 701 156 l 508 207 l 508 304 l 781 304 q 792 385 790 342 l 508 385 l 508 499 l 903 499 l 903 438 q 892 304 903 367 l 978 304 l 978 207 l 864 207 q 728 38 819 97 q 503 -22 638 -22 z "},"H":{"ha":990,"x_min":128,"x_max":863,"o":"m 128 0 l 128 986 l 247 986 l 247 554 l 743 554 l 743 986 l 863 986 l 863 0 l 743 0 l 743 438 l 247 438 l 247 0 l 128 0 z "},"Ħ":{"ha":990,"x_min":24,"x_max":968,"o":"m 128 0 l 128 986 l 247 986 l 247 554 l 743 554 l 743 986 l 863 986 l 863 0 l 743 0 l 743 438 l 247 438 l 247 0 l 128 0 m 24 733 l 24 844 l 968 844 l 968 733 l 24 733 z "},"Ĥ":{"ha":990,"x_min":128,"x_max":863,"o":"m 128 0 l 128 986 l 247 986 l 247 554 l 743 554 l 743 986 l 863 986 l 863 0 l 743 0 l 743 438 l 247 438 l 247 0 l 128 0 m 306 1081 l 431 1265 l 561 1265 l 686 1081 l 589 1081 l 496 1204 l 403 1081 l 306 1081 z "},"I":{"ha":375,"x_min":128,"x_max":247,"o":"m 128 0 l 128 986 l 247 986 l 247 0 l 128 0 z "},"Ĳ":{"ha":1176,"x_min":128,"x_max":1069,"o":"m 128 0 l 128 986 l 247 986 l 247 0 l 128 0 m 754 -22 q 592 22 663 -22 q 481 143 521 65 q 440 322 442 221 l 563 331 q 614 156 564 217 q 754 94 664 94 q 899 160 849 94 q 950 344 950 225 l 950 986 l 1069 986 l 1069 344 q 1031 149 1069 232 q 922 22 992 67 q 754 -22 851 -22 z "},"Í":{"ha":375,"x_min":128,"x_max":358,"o":"m 128 0 l 128 986 l 247 986 l 247 0 l 128 0 m 136 1081 l 228 1258 l 358 1258 l 233 1081 l 136 1081 z "},"Î":{"ha":375,"x_min":-3,"x_max":378,"o":"m 128 0 l 128 986 l 247 986 l 247 0 l 128 0 m -3 1081 l 122 1265 l 253 1265 l 378 1081 l 281 1081 l 188 1204 l 94 1081 l -3 1081 z "},"Ï":{"ha":375,"x_min":6,"x_max":369,"o":"m 128 0 l 128 986 l 247 986 l 247 0 l 128 0 m 6 1101 l 6 1238 l 128 1238 l 128 1101 l 6 1101 m 247 1101 l 247 1238 l 369 1238 l 369 1101 l 247 1101 z "},"İ":{"ha":375,"x_min":126,"x_max":249,"o":"m 128 0 l 128 986 l 247 986 l 247 0 l 128 0 m 126 1101 l 126 1238 l 249 1238 l 249 1101 l 126 1101 z "},"Ì":{"ha":375,"x_min":19,"x_max":247,"o":"m 128 0 l 128 986 l 247 986 l 247 0 l 128 0 m 144 1088 l 19 1265 l 150 1265 l 242 1088 l 144 1088 z "},"Ī":{"ha":375,"x_min":1,"x_max":374,"o":"m 128 0 l 128 986 l 247 986 l 247 0 l 128 0 m 1 1118 l 1 1218 l 374 1218 l 374 1118 l 1 1118 z "},"Į":{"ha":375,"x_min":47,"x_max":296,"o":"m 128 0 l 128 986 l 247 986 l 247 0 l 128 0 m 176 -292 q 82 -267 117 -292 q 47 -194 47 -242 q 73 -112 47 -154 q 126 -31 99 -69 l 168 25 l 247 0 l 199 -67 q 164 -124 172 -103 q 156 -161 156 -144 q 167 -187 156 -178 q 196 -197 178 -197 q 263 -178 235 -197 l 296 -256 q 247 -281 281 -271 q 176 -292 213 -292 z "},"Ĩ":{"ha":375,"x_min":-32,"x_max":406,"o":"m 128 0 l 128 986 l 247 986 l 247 0 l 128 0 m 269 1097 q 219 1108 243 1097 q 172 1136 196 1118 q 135 1164 149 1156 q 100 1172 121 1172 q 59 1155 75 1172 q 40 1088 43 1138 l -32 1088 q 8 1209 -29 1168 q 100 1250 44 1250 q 158 1239 133 1250 q 206 1208 182 1228 q 275 1175 247 1175 q 315 1194 301 1175 q 333 1264 329 1213 l 406 1264 q 365 1141 401 1185 q 269 1097 329 1097 z "},"J":{"ha":829,"x_min":93,"x_max":722,"o":"m 407 -22 q 244 22 315 -22 q 134 143 174 65 q 93 322 94 221 l 215 331 q 267 156 217 217 q 407 94 317 94 q 552 160 501 94 q 603 344 603 225 l 603 986 l 722 986 l 722 344 q 683 149 722 232 q 574 22 644 67 q 407 -22 504 -22 z "},"Ĵ":{"ha":829,"x_min":93,"x_max":854,"o":"m 407 -22 q 244 22 315 -22 q 134 143 174 65 q 93 322 94 221 l 215 331 q 267 156 217 217 q 407 94 317 94 q 552 160 501 94 q 603 344 603 225 l 603 986 l 722 986 l 722 344 q 683 149 722 232 q 574 22 644 67 q 407 -22 504 -22 m 474 1081 l 599 1265 l 729 1265 l 854 1081 l 757 1081 l 664 1204 l 571 1081 l 474 1081 z "},"K":{"ha":889,"x_min":128,"x_max":868,"o":"m 128 0 l 128 986 l 247 986 l 247 496 l 690 986 l 842 986 l 456 558 l 868 0 l 722 0 l 375 469 l 247 329 l 247 0 l 128 0 z "},"Ǩ":{"ha":889,"x_min":128,"x_max":868,"o":"m 128 0 l 128 986 l 247 986 l 247 496 l 690 986 l 842 986 l 456 558 l 868 0 l 722 0 l 375 469 l 247 329 l 247 0 l 128 0 m 265 1265 l 363 1265 l 456 1142 l 549 1265 l 646 1265 l 521 1081 l 390 1081 l 265 1265 z "},"Ķ":{"ha":889,"x_min":128,"x_max":868,"o":"m 128 0 l 128 986 l 247 986 l 247 496 l 690 986 l 842 986 l 456 558 l 868 0 l 722 0 l 375 469 l 247 329 l 247 0 l 128 0 m 386 -333 l 463 -199 l 413 -199 l 413 -74 l 551 -74 l 551 -187 l 467 -333 l 386 -333 z "},"L":{"ha":806,"x_min":128,"x_max":740,"o":"m 128 0 l 128 986 l 247 986 l 247 117 l 740 117 l 740 0 l 128 0 z "},"Ĺ":{"ha":806,"x_min":128,"x_max":740,"o":"m 128 0 l 128 986 l 247 986 l 247 117 l 740 117 l 740 0 l 128 0 m 136 1081 l 228 1258 l 358 1258 l 233 1081 l 136 1081 z "},"Ľ":{"ha":806,"x_min":128,"x_max":740,"o":"m 128 0 l 128 986 l 247 986 l 247 117 l 740 117 l 740 0 l 128 0 m 556 632 l 597 986 l 714 986 l 642 632 l 556 632 z "},"Ļ":{"ha":806,"x_min":128,"x_max":740,"o":"m 128 0 l 128 986 l 247 986 l 247 117 l 740 117 l 740 0 l 128 0 m 339 -333 l 415 -199 l 365 -199 l 365 -74 l 504 -74 l 504 -187 l 419 -333 l 339 -333 z "},"Ł":{"ha":806,"x_min":28,"x_max":740,"o":"m 128 0 l 128 986 l 247 986 l 247 117 l 740 117 l 740 0 l 128 0 m 28 364 l 28 469 l 456 692 l 456 586 l 28 364 z "},"M":{"ha":1218,"x_min":128,"x_max":1090,"o":"m 128 0 l 128 986 l 294 986 l 610 131 l 924 986 l 1090 986 l 1090 0 l 971 0 l 971 764 l 689 0 l 529 0 l 247 764 l 247 0 l 128 0 z "},"N":{"ha":1032,"x_min":128,"x_max":904,"o":"m 128 0 l 128 986 l 297 986 l 785 119 l 785 986 l 904 986 l 904 0 l 726 0 l 247 850 l 247 0 l 128 0 z "},"Ń":{"ha":1032,"x_min":128,"x_max":904,"o":"m 128 0 l 128 986 l 297 986 l 785 119 l 785 986 l 904 986 l 904 0 l 726 0 l 247 850 l 247 0 l 128 0 m 485 1081 l 576 1258 l 707 1258 l 582 1081 l 485 1081 z "},"Ň":{"ha":1032,"x_min":128,"x_max":904,"o":"m 128 0 l 128 986 l 297 986 l 785 119 l 785 986 l 904 986 l 904 0 l 726 0 l 247 850 l 247 0 l 128 0 m 346 1265 l 443 1265 l 536 1142 l 629 1265 l 726 1265 l 601 1081 l 471 1081 l 346 1265 z "},"Ņ":{"ha":1032,"x_min":128,"x_max":904,"o":"m 128 0 l 128 986 l 297 986 l 785 119 l 785 986 l 904 986 l 904 0 l 726 0 l 247 850 l 247 0 l 128 0 m 422 -333 l 499 -199 l 449 -199 l 449 -74 l 588 -74 l 588 -187 l 503 -333 l 422 -333 z "},"Ñ":{"ha":1032,"x_min":128,"x_max":904,"o":"m 128 0 l 128 986 l 297 986 l 785 119 l 785 986 l 904 986 l 904 0 l 726 0 l 247 850 l 247 0 l 128 0 m 618 1097 q 568 1108 592 1097 q 521 1136 544 1118 q 483 1164 497 1156 q 449 1172 469 1172 q 408 1155 424 1172 q 389 1088 392 1138 l 317 1088 q 356 1209 319 1168 q 449 1250 393 1250 q 506 1239 482 1250 q 554 1208 531 1228 q 624 1175 596 1175 q 664 1194 650 1175 q 682 1264 678 1213 l 754 1264 q 714 1141 750 1185 q 618 1097 678 1097 z "},"Ŋ":{"ha":1032,"x_min":128,"x_max":904,"o":"m 128 0 l 128 986 l 297 986 l 785 121 l 785 986 l 904 986 l 904 -10 q 848 -154 904 -100 q 696 -208 792 -208 l 553 -208 l 553 -97 l 697 -97 q 763 -74 742 -97 q 785 -11 785 -50 l 785 0 l 726 0 l 247 849 l 247 0 l 128 0 z "},"O":{"ha":1026,"x_min":63,"x_max":964,"o":"m 513 -22 q 272 40 372 -22 q 117 217 171 101 q 63 492 63 332 q 117 767 63 651 q 272 946 171 883 q 513 1008 372 1008 q 755 946 654 1008 q 910 767 856 883 q 964 492 964 651 q 910 217 964 332 q 755 40 856 101 q 513 -22 654 -22 m 513 94 q 752 199 665 94 q 839 492 839 304 q 752 785 839 679 q 513 892 665 892 q 274 785 361 892 q 188 492 188 679 q 274 199 188 304 q 513 94 361 94 z "},"Ó":{"ha":1026,"x_min":63,"x_max":964,"o":"m 513 -22 q 272 40 372 -22 q 117 217 171 101 q 63 492 63 332 q 117 767 63 651 q 272 946 171 883 q 513 1008 372 1008 q 755 946 654 1008 q 910 767 856 883 q 964 492 964 651 q 910 217 964 332 q 755 40 856 101 q 513 -22 654 -22 m 513 94 q 752 199 665 94 q 839 492 839 304 q 752 785 839 679 q 513 892 665 892 q 274 785 361 892 q 188 492 188 679 q 274 199 188 304 q 513 94 361 94 m 461 1081 l 553 1258 l 683 1258 l 558 1081 l 461 1081 z "},"Ô":{"ha":1026,"x_min":63,"x_max":964,"o":"m 513 -22 q 272 40 372 -22 q 117 217 171 101 q 63 492 63 332 q 117 767 63 651 q 272 946 171 883 q 513 1008 372 1008 q 755 946 654 1008 q 910 767 856 883 q 964 492 964 651 q 910 217 964 332 q 755 40 856 101 q 513 -22 654 -22 m 513 94 q 752 199 665 94 q 839 492 839 304 q 752 785 839 679 q 513 892 665 892 q 274 785 361 892 q 188 492 188 679 q 274 199 188 304 q 513 94 361 94 m 322 1081 l 447 1265 l 578 1265 l 703 1081 l 606 1081 l 513 1204 l 419 1081 l 322 1081 z "},"Ö":{"ha":1026,"x_min":63,"x_max":964,"o":"m 513 -22 q 272 40 372 -22 q 117 217 171 101 q 63 492 63 332 q 117 767 63 651 q 272 946 171 883 q 513 1008 372 1008 q 755 946 654 1008 q 910 767 856 883 q 964 492 964 651 q 910 217 964 332 q 755 40 856 101 q 513 -22 654 -22 m 513 94 q 752 199 665 94 q 839 492 839 304 q 752 785 839 679 q 513 892 665 892 q 274 785 361 892 q 188 492 188 679 q 274 199 188 304 q 513 94 361 94 m 331 1101 l 331 1238 l 453 1238 l 453 1101 l 331 1101 m 572 1101 l 572 1238 l 694 1238 l 694 1101 l 572 1101 z "},"Ò":{"ha":1026,"x_min":63,"x_max":964,"o":"m 513 -22 q 272 40 372 -22 q 117 217 171 101 q 63 492 63 332 q 117 767 63 651 q 272 946 171 883 q 513 1008 372 1008 q 755 946 654 1008 q 910 767 856 883 q 964 492 964 651 q 910 217 964 332 q 755 40 856 101 q 513 -22 654 -22 m 513 94 q 752 199 665 94 q 839 492 839 304 q 752 785 839 679 q 513 892 665 892 q 274 785 361 892 q 188 492 188 679 q 274 199 188 304 q 513 94 361 94 m 469 1088 l 344 1265 l 475 1265 l 567 1088 l 469 1088 z "},"Ő":{"ha":1026,"x_min":63,"x_max":964,"o":"m 513 -22 q 272 40 372 -22 q 117 217 171 101 q 63 492 63 332 q 117 767 63 651 q 272 946 171 883 q 513 1008 372 1008 q 755 946 654 1008 q 910 767 856 883 q 964 492 964 651 q 910 217 964 332 q 755 40 856 101 q 513 -22 654 -22 m 513 94 q 752 199 665 94 q 839 492 839 304 q 752 785 839 679 q 513 892 665 892 q 274 785 361 892 q 188 492 188 679 q 274 199 188 304 q 513 94 361 94 m 368 1081 l 460 1258 l 590 1258 l 465 1081 l 368 1081 m 550 1081 l 642 1258 l 772 1258 l 647 1081 l 550 1081 z "},"Ō":{"ha":1026,"x_min":63,"x_max":964,"o":"m 513 -22 q 272 40 372 -22 q 117 217 171 101 q 63 492 63 332 q 117 767 63 651 q 272 946 171 883 q 513 1008 372 1008 q 755 946 654 1008 q 910 767 856 883 q 964 492 964 651 q 910 217 964 332 q 755 40 856 101 q 513 -22 654 -22 m 513 94 q 752 199 665 94 q 839 492 839 304 q 752 785 839 679 q 513 892 665 892 q 274 785 361 892 q 188 492 188 679 q 274 199 188 304 q 513 94 361 94 m 326 1118 l 326 1218 l 699 1218 l 699 1118 l 326 1118 z "},"Ø":{"ha":1026,"x_min":63,"x_max":964,"o":"m 513 -22 q 272 40 372 -22 q 117 217 171 101 q 63 492 63 332 q 117 767 63 651 q 272 946 171 883 q 513 1008 372 1008 q 755 946 654 1008 q 910 767 856 883 q 964 492 964 651 q 910 217 964 332 q 755 40 856 101 q 513 -22 654 -22 m 513 94 q 752 199 665 94 q 839 492 839 304 q 752 785 839 679 q 513 892 665 892 q 274 785 361 892 q 188 492 188 679 q 274 199 188 304 q 513 94 361 94 m 104 -22 l 806 1008 l 922 1008 l 221 -22 l 104 -22 z "},"Õ":{"ha":1026,"x_min":63,"x_max":964,"o":"m 513 -22 q 272 40 372 -22 q 117 217 171 101 q 63 492 63 332 q 117 767 63 651 q 272 946 171 883 q 513 1008 372 1008 q 755 946 654 1008 q 910 767 856 883 q 964 492 964 651 q 910 217 964 332 q 755 40 856 101 q 513 -22 654 -22 m 513 94 q 752 199 665 94 q 839 492 839 304 q 752 785 839 679 q 513 892 665 892 q 274 785 361 892 q 188 492 188 679 q 274 199 188 304 q 513 94 361 94 m 594 1097 q 544 1108 568 1097 q 497 1136 521 1118 q 460 1164 474 1156 q 425 1172 446 1172 q 384 1155 400 1172 q 365 1088 368 1138 l 293 1088 q 333 1209 296 1168 q 425 1250 369 1250 q 483 1239 458 1250 q 531 1208 507 1228 q 600 1175 572 1175 q 640 1194 626 1175 q 658 1264 654 1213 l 731 1264 q 690 1141 726 1185 q 594 1097 654 1097 z "},"Œ":{"ha":1511,"x_min":63,"x_max":1432,"o":"m 511 -22 q 268 43 368 -22 q 115 224 168 108 q 63 492 63 340 q 115 760 63 644 q 267 942 167 876 q 511 1008 368 1008 q 706 966 622 1008 q 843 846 789 924 l 843 986 l 1421 986 l 1421 869 l 963 869 l 963 551 l 1404 551 l 1404 438 l 963 438 l 963 117 l 1432 117 l 1432 0 l 843 0 l 843 139 q 706 20 789 63 q 511 -22 622 -22 m 511 94 q 693 145 621 94 q 802 285 765 196 q 839 492 839 375 q 803 697 839 607 q 694 840 767 788 q 511 892 621 892 q 331 840 403 892 q 223 697 258 788 q 188 492 188 607 q 224 285 188 375 q 331 145 260 196 q 511 94 403 94 z "},"P":{"ha":903,"x_min":128,"x_max":831,"o":"m 128 0 l 128 986 l 482 986 q 739 907 647 986 q 831 688 831 828 q 739 464 831 544 q 482 383 647 383 l 247 383 l 247 0 l 128 0 m 247 500 l 482 500 q 706 688 706 500 q 482 869 706 869 l 247 869 l 247 500 z "},"Þ":{"ha":861,"x_min":128,"x_max":789,"o":"m 128 0 l 128 986 l 247 986 l 247 808 l 439 808 q 697 729 604 808 q 789 508 789 650 q 697 288 789 367 q 439 208 604 208 l 247 208 l 247 0 l 128 0 m 439 692 l 247 692 l 247 325 l 439 325 q 664 508 664 325 q 439 692 664 692 z "},"Q":{"ha":1018,"x_min":63,"x_max":956,"o":"m 761 -96 l 679 10 q 601 -13 646 -4 q 508 -22 557 -22 q 267 47 367 -22 q 115 232 168 115 q 63 492 63 349 q 115 753 63 636 q 267 939 167 869 q 508 1008 367 1008 q 753 939 653 1008 q 904 753 853 869 q 956 492 956 636 q 907 242 956 356 q 767 58 858 128 l 889 -96 l 761 -96 m 508 94 q 563 98 539 94 q 604 110 586 101 l 461 289 l 589 289 l 694 150 q 831 492 831 258 q 795 692 831 601 q 688 837 760 782 q 508 892 617 892 q 329 837 400 892 q 223 692 258 782 q 188 492 188 601 q 223 293 188 383 q 330 149 258 203 q 508 94 401 94 z "},"R":{"ha":933,"x_min":128,"x_max":847,"o":"m 128 0 l 128 986 l 501 986 q 747 906 657 986 q 838 688 838 825 q 814 584 838 631 q 753 506 790 538 q 671 461 715 474 q 774 408 736 450 q 819 290 813 367 l 847 0 l 726 0 l 701 278 q 658 368 696 339 q 533 397 619 397 l 247 397 l 247 0 l 128 0 m 247 514 l 517 514 q 660 560 607 514 q 713 690 713 606 q 658 823 713 776 q 501 869 604 869 l 247 869 l 247 514 z "},"Ŕ":{"ha":933,"x_min":128,"x_max":847,"o":"m 128 0 l 128 986 l 501 986 q 747 906 657 986 q 838 688 838 825 q 814 584 838 631 q 753 506 790 538 q 671 461 715 474 q 774 408 736 450 q 819 290 813 367 l 847 0 l 726 0 l 701 278 q 658 368 696 339 q 533 397 619 397 l 247 397 l 247 0 l 128 0 m 247 514 l 517 514 q 660 560 607 514 q 713 690 713 606 q 658 823 713 776 q 501 869 604 869 l 247 869 l 247 514 m 417 1081 l 508 1258 l 639 1258 l 514 1081 l 417 1081 z "},"Ř":{"ha":933,"x_min":128,"x_max":847,"o":"m 128 0 l 128 986 l 501 986 q 747 906 657 986 q 838 688 838 825 q 814 584 838 631 q 753 506 790 538 q 671 461 715 474 q 774 408 736 450 q 819 290 813 367 l 847 0 l 726 0 l 701 278 q 658 368 696 339 q 533 397 619 397 l 247 397 l 247 0 l 128 0 m 247 514 l 517 514 q 660 560 607 514 q 713 690 713 606 q 658 823 713 776 q 501 869 604 869 l 247 869 l 247 514 m 278 1265 l 375 1265 l 468 1142 l 561 1265 l 658 1265 l 533 1081 l 403 1081 l 278 1265 z "},"Ŗ":{"ha":933,"x_min":128,"x_max":847,"o":"m 128 0 l 128 986 l 501 986 q 747 906 657 986 q 838 688 838 825 q 814 584 838 631 q 753 506 790 538 q 671 461 715 474 q 774 408 736 450 q 819 290 813 367 l 847 0 l 726 0 l 701 278 q 658 368 696 339 q 533 397 619 397 l 247 397 l 247 0 l 128 0 m 247 514 l 517 514 q 660 560 607 514 q 713 690 713 606 q 658 823 713 776 q 501 869 604 869 l 247 869 l 247 514 m 390 -333 l 467 -199 l 417 -199 l 417 -74 l 556 -74 l 556 -187 l 471 -333 l 390 -333 z "},"S":{"ha":889,"x_min":76,"x_max":813,"o":"m 467 -22 q 268 21 353 -22 q 134 140 183 64 q 76 315 85 215 l 201 324 q 284 154 217 214 q 469 94 351 94 q 630 134 572 94 q 688 250 688 174 q 666 331 688 296 q 584 397 644 367 q 406 456 524 426 q 224 519 292 485 q 127 604 157 554 q 97 728 97 654 q 137 874 97 811 q 250 973 176 938 q 425 1008 324 1008 q 611 967 533 1008 q 735 856 689 926 q 792 694 781 785 l 667 686 q 594 834 654 776 q 422 892 533 892 q 276 848 331 892 q 222 733 222 804 q 244 658 222 688 q 321 605 265 628 q 481 556 376 582 q 677 483 604 525 q 781 385 750 440 q 813 258 813 329 q 768 109 813 172 q 646 12 724 46 q 467 -22 568 -22 z "},"Ś":{"ha":889,"x_min":76,"x_max":813,"o":"m 467 -22 q 268 21 353 -22 q 134 140 183 64 q 76 315 85 215 l 201 324 q 284 154 217 214 q 469 94 351 94 q 630 134 572 94 q 688 250 688 174 q 666 331 688 296 q 584 397 644 367 q 406 456 524 426 q 224 519 292 485 q 127 604 157 554 q 97 728 97 654 q 137 874 97 811 q 250 973 176 938 q 425 1008 324 1008 q 611 967 533 1008 q 735 856 689 926 q 792 694 781 785 l 667 686 q 594 834 654 776 q 422 892 533 892 q 276 848 331 892 q 222 733 222 804 q 244 658 222 688 q 321 605 265 628 q 481 556 376 582 q 677 483 604 525 q 781 385 750 440 q 813 258 813 329 q 768 109 813 172 q 646 12 724 46 q 467 -22 568 -22 m 374 1081 l 465 1258 l 596 1258 l 471 1081 l 374 1081 z "},"Š":{"ha":889,"x_min":76,"x_max":813,"o":"m 467 -22 q 268 21 353 -22 q 134 140 183 64 q 76 315 85 215 l 201 324 q 284 154 217 214 q 469 94 351 94 q 630 134 572 94 q 688 250 688 174 q 666 331 688 296 q 584 397 644 367 q 406 456 524 426 q 224 519 292 485 q 127 604 157 554 q 97 728 97 654 q 137 874 97 811 q 250 973 176 938 q 425 1008 324 1008 q 611 967 533 1008 q 735 856 689 926 q 792 694 781 785 l 667 686 q 594 834 654 776 q 422 892 533 892 q 276 848 331 892 q 222 733 222 804 q 244 658 222 688 q 321 605 265 628 q 481 556 376 582 q 677 483 604 525 q 781 385 750 440 q 813 258 813 329 q 768 109 813 172 q 646 12 724 46 q 467 -22 568 -22 m 235 1265 l 332 1265 l 425 1142 l 518 1265 l 615 1265 l 490 1081 l 360 1081 l 235 1265 z "},"Ş":{"ha":889,"x_min":76,"x_max":813,"o":"m 467 -22 q 268 21 353 -22 q 134 140 183 64 q 76 315 85 215 l 201 324 q 284 154 217 214 q 469 94 351 94 q 630 134 572 94 q 688 250 688 174 q 666 331 688 296 q 584 397 644 367 q 406 456 524 426 q 224 519 292 485 q 127 604 157 554 q 97 728 97 654 q 137 874 97 811 q 250 973 176 938 q 425 1008 324 1008 q 611 967 533 1008 q 735 856 689 926 q 792 694 781 785 l 667 686 q 594 834 654 776 q 422 892 533 892 q 276 848 331 892 q 222 733 222 804 q 244 658 222 688 q 321 605 265 628 q 481 556 376 582 q 677 483 604 525 q 781 385 750 440 q 813 258 813 329 q 768 109 813 172 q 646 12 724 46 q 467 -22 568 -22 m 440 -306 q 333 -274 374 -306 q 278 -197 293 -243 l 349 -169 q 438 -228 372 -228 q 513 -172 513 -228 q 493 -128 513 -146 q 407 -111 474 -111 l 368 -69 l 421 14 l 510 14 l 463 -50 q 563 -87 531 -53 q 596 -175 596 -121 q 552 -269 596 -233 q 440 -306 508 -306 z "},"Ŝ":{"ha":889,"x_min":76,"x_max":813,"o":"m 467 -22 q 268 21 353 -22 q 134 140 183 64 q 76 315 85 215 l 201 324 q 284 154 217 214 q 469 94 351 94 q 630 134 572 94 q 688 250 688 174 q 666 331 688 296 q 584 397 644 367 q 406 456 524 426 q 224 519 292 485 q 127 604 157 554 q 97 728 97 654 q 137 874 97 811 q 250 973 176 938 q 425 1008 324 1008 q 611 967 533 1008 q 735 856 689 926 q 792 694 781 785 l 667 686 q 594 834 654 776 q 422 892 533 892 q 276 848 331 892 q 222 733 222 804 q 244 658 222 688 q 321 605 265 628 q 481 556 376 582 q 677 483 604 525 q 781 385 750 440 q 813 258 813 329 q 768 109 813 172 q 646 12 724 46 q 467 -22 568 -22 m 235 1081 l 360 1265 l 490 1265 l 615 1081 l 518 1081 l 425 1204 l 332 1081 l 235 1081 z "},"Ș":{"ha":889,"x_min":76,"x_max":813,"o":"m 467 -22 q 268 21 353 -22 q 134 140 183 64 q 76 315 85 215 l 201 324 q 284 154 217 214 q 469 94 351 94 q 630 134 572 94 q 688 250 688 174 q 666 331 688 296 q 584 397 644 367 q 406 456 524 426 q 224 519 292 485 q 127 604 157 554 q 97 728 97 654 q 137 874 97 811 q 250 973 176 938 q 425 1008 324 1008 q 611 967 533 1008 q 735 856 689 926 q 792 694 781 785 l 667 686 q 594 834 654 776 q 422 892 533 892 q 276 848 331 892 q 222 733 222 804 q 244 658 222 688 q 321 605 265 628 q 481 556 376 582 q 677 483 604 525 q 781 385 750 440 q 813 258 813 329 q 768 109 813 172 q 646 12 724 46 q 467 -22 568 -22 m 358 -333 l 435 -199 l 385 -199 l 385 -74 l 524 -74 l 524 -187 l 439 -333 l 358 -333 z "},"ẞ":{"ha":961,"x_min":128,"x_max":875,"o":"m 128 0 l 128 696 q 203 908 128 831 q 406 986 278 986 l 810 986 l 810 858 l 519 594 q 787 513 699 588 q 875 307 875 439 q 832 145 875 214 q 710 38 789 76 q 526 0 632 0 l 340 0 l 340 117 l 526 117 q 690 167 629 117 q 750 303 750 217 q 685 442 750 393 q 510 490 619 490 l 368 490 l 368 597 l 657 869 l 406 869 q 288 825 329 869 q 247 696 247 781 l 247 0 l 128 0 z "},"T":{"ha":767,"x_min":17,"x_max":750,"o":"m 324 0 l 324 869 l 17 869 l 17 986 l 750 986 l 750 869 l 443 869 l 443 0 l 324 0 z "},"Ŧ":{"ha":767,"x_min":17,"x_max":750,"o":"m 324 0 l 324 869 l 17 869 l 17 986 l 750 986 l 750 869 l 443 869 l 443 0 l 324 0 m 133 429 l 133 538 l 633 538 l 633 429 l 133 429 z "},"Ť":{"ha":767,"x_min":17,"x_max":750,"o":"m 324 0 l 324 869 l 17 869 l 17 986 l 750 986 l 750 869 l 443 869 l 443 0 l 324 0 m 193 1265 l 290 1265 l 383 1142 l 476 1265 l 574 1265 l 449 1081 l 318 1081 l 193 1265 z "},"Ţ":{"ha":767,"x_min":17,"x_max":750,"o":"m 324 0 l 324 869 l 17 869 l 17 986 l 750 986 l 750 869 l 443 869 l 443 0 l 324 0 m 369 -306 q 263 -274 303 -306 q 207 -197 222 -243 l 278 -169 q 367 -228 301 -228 q 442 -172 442 -228 q 422 -128 442 -146 q 336 -111 403 -111 l 297 -69 l 350 14 l 439 14 l 392 -50 q 492 -87 460 -53 q 525 -175 525 -121 q 481 -269 525 -233 q 369 -306 438 -306 z "},"Ț":{"ha":767,"x_min":17,"x_max":750,"o":"m 324 0 l 324 869 l 17 869 l 17 986 l 750 986 l 750 869 l 443 869 l 443 0 l 324 0 m 288 -333 l 364 -199 l 314 -199 l 314 -74 l 453 -74 l 453 -187 l 368 -333 l 288 -333 z "},"U":{"ha":957,"x_min":107,"x_max":850,"o":"m 479 -22 q 281 22 365 -22 q 152 149 197 67 q 107 344 107 232 l 107 988 l 226 988 l 226 344 q 292 160 226 225 q 479 94 358 94 q 665 160 599 94 q 731 344 731 225 l 731 988 l 850 988 l 850 344 q 805 149 850 232 q 676 22 760 67 q 479 -22 593 -22 z "},"Ú":{"ha":957,"x_min":107,"x_max":850,"o":"m 479 -22 q 281 22 365 -22 q 152 149 197 67 q 107 344 107 232 l 107 988 l 226 988 l 226 344 q 292 160 226 225 q 479 94 358 94 q 665 160 599 94 q 731 344 731 225 l 731 988 l 850 988 l 850 344 q 805 149 850 232 q 676 22 760 67 q 479 -22 593 -22 m 428 1081 l 519 1258 l 650 1258 l 525 1081 l 428 1081 z "},"Ŭ":{"ha":957,"x_min":107,"x_max":850,"o":"m 479 -22 q 281 22 365 -22 q 152 149 197 67 q 107 344 107 232 l 107 988 l 226 988 l 226 344 q 292 160 226 225 q 479 94 358 94 q 665 160 599 94 q 731 344 731 225 l 731 988 l 850 988 l 850 344 q 805 149 850 232 q 676 22 760 67 q 479 -22 593 -22 m 479 1088 q 342 1136 394 1088 q 285 1265 289 1185 l 365 1265 q 402 1196 372 1218 q 479 1174 432 1174 q 557 1196 528 1174 q 592 1265 586 1218 l 672 1265 q 617 1136 668 1185 q 479 1088 565 1088 z "},"Û":{"ha":957,"x_min":107,"x_max":850,"o":"m 479 -22 q 281 22 365 -22 q 152 149 197 67 q 107 344 107 232 l 107 988 l 226 988 l 226 344 q 292 160 226 225 q 479 94 358 94 q 665 160 599 94 q 731 344 731 225 l 731 988 l 850 988 l 850 344 q 805 149 850 232 q 676 22 760 67 q 479 -22 593 -22 m 289 1081 l 414 1265 l 544 1265 l 669 1081 l 572 1081 l 479 1204 l 386 1081 l 289 1081 z "},"Ü":{"ha":957,"x_min":107,"x_max":850,"o":"m 479 -22 q 281 22 365 -22 q 152 149 197 67 q 107 344 107 232 l 107 988 l 226 988 l 226 344 q 292 160 226 225 q 479 94 358 94 q 665 160 599 94 q 731 344 731 225 l 731 988 l 850 988 l 850 344 q 805 149 850 232 q 676 22 760 67 q 479 -22 593 -22 m 297 1101 l 297 1238 l 419 1238 l 419 1101 l 297 1101 m 539 1101 l 539 1238 l 661 1238 l 661 1101 l 539 1101 z "},"Ù":{"ha":957,"x_min":107,"x_max":850,"o":"m 479 -22 q 281 22 365 -22 q 152 149 197 67 q 107 344 107 232 l 107 988 l 226 988 l 226 344 q 292 160 226 225 q 479 94 358 94 q 665 160 599 94 q 731 344 731 225 l 731 988 l 850 988 l 850 344 q 805 149 850 232 q 676 22 760 67 q 479 -22 593 -22 m 436 1088 l 311 1265 l 442 1265 l 533 1088 l 436 1088 z "},"Ű":{"ha":957,"x_min":107,"x_max":850,"o":"m 479 -22 q 281 22 365 -22 q 152 149 197 67 q 107 344 107 232 l 107 988 l 226 988 l 226 344 q 292 160 226 225 q 479 94 358 94 q 665 160 599 94 q 731 344 731 225 l 731 988 l 850 988 l 850 344 q 805 149 850 232 q 676 22 760 67 q 479 -22 593 -22 m 335 1081 l 426 1258 l 557 1258 l 432 1081 l 335 1081 m 517 1081 l 608 1258 l 739 1258 l 614 1081 l 517 1081 z "},"Ū":{"ha":957,"x_min":107,"x_max":850,"o":"m 479 -22 q 281 22 365 -22 q 152 149 197 67 q 107 344 107 232 l 107 988 l 226 988 l 226 344 q 292 160 226 225 q 479 94 358 94 q 665 160 599 94 q 731 344 731 225 l 731 988 l 850 988 l 850 344 q 805 149 850 232 q 676 22 760 67 q 479 -22 593 -22 m 293 1118 l 293 1218 l 665 1218 l 665 1118 l 293 1118 z "},"Ų":{"ha":957,"x_min":107,"x_max":850,"o":"m 479 -22 q 281 22 365 -22 q 152 149 197 67 q 107 344 107 232 l 107 988 l 226 988 l 226 344 q 292 160 226 225 q 479 94 358 94 q 665 160 599 94 q 731 344 731 225 l 731 988 l 850 988 l 850 344 q 805 149 850 232 q 676 22 760 67 q 479 -22 593 -22 m 564 -287 q 469 -262 504 -287 q 435 -190 435 -237 q 460 -108 435 -150 q 514 -26 486 -65 l 556 29 l 635 4 l 586 -62 q 551 -119 560 -99 q 543 -157 543 -140 q 554 -183 543 -174 q 583 -193 565 -193 q 650 -174 622 -193 l 683 -251 q 634 -277 668 -267 q 564 -287 600 -287 z "},"Ů":{"ha":957,"x_min":107,"x_max":850,"o":"m 479 -22 q 281 22 365 -22 q 152 149 197 67 q 107 344 107 232 l 107 988 l 226 988 l 226 344 q 292 160 226 225 q 479 94 358 94 q 665 160 599 94 q 731 344 731 225 l 731 988 l 850 988 l 850 344 q 805 149 850 232 q 676 22 760 67 q 479 -22 593 -22 m 479 1050 q 388 1087 425 1050 q 351 1178 351 1124 q 388 1269 351 1232 q 479 1306 425 1306 q 570 1269 533 1306 q 607 1178 607 1232 q 570 1087 607 1124 q 479 1050 533 1050 m 479 1119 q 521 1136 504 1119 q 538 1178 538 1153 q 521 1219 538 1203 q 479 1236 504 1236 q 438 1219 454 1236 q 421 1178 421 1203 q 438 1136 421 1153 q 479 1119 454 1119 z "},"Ũ":{"ha":957,"x_min":107,"x_max":850,"o":"m 479 -22 q 281 22 365 -22 q 152 149 197 67 q 107 344 107 232 l 107 988 l 226 988 l 226 344 q 292 160 226 225 q 479 94 358 94 q 665 160 599 94 q 731 344 731 225 l 731 988 l 850 988 l 850 344 q 805 149 850 232 q 676 22 760 67 q 479 -22 593 -22 m 561 1097 q 511 1108 535 1097 q 464 1136 488 1118 q 426 1164 440 1156 q 392 1172 413 1172 q 351 1155 367 1172 q 332 1088 335 1138 l 260 1088 q 299 1209 263 1168 q 392 1250 336 1250 q 449 1239 425 1250 q 497 1208 474 1228 q 567 1175 539 1175 q 607 1194 593 1175 q 625 1264 621 1213 l 697 1264 q 657 1141 693 1185 q 561 1097 621 1097 z "},"V":{"ha":926,"x_min":28,"x_max":899,"o":"m 385 0 l 28 986 l 158 986 l 464 131 l 768 986 l 899 986 l 542 0 l 385 0 z "},"W":{"ha":1313,"x_min":53,"x_max":1260,"o":"m 313 0 l 53 986 l 183 986 l 386 164 l 588 986 l 724 986 l 926 164 l 1128 986 l 1260 986 l 1000 0 l 850 0 l 656 764 l 461 0 l 313 0 z "},"Ẃ":{"ha":1313,"x_min":53,"x_max":1260,"o":"m 313 0 l 53 986 l 183 986 l 386 164 l 588 986 l 724 986 l 926 164 l 1128 986 l 1260 986 l 1000 0 l 850 0 l 656 764 l 461 0 l 313 0 m 604 1081 l 696 1258 l 826 1258 l 701 1081 l 604 1081 z "},"Ŵ":{"ha":1313,"x_min":53,"x_max":1260,"o":"m 313 0 l 53 986 l 183 986 l 386 164 l 588 986 l 724 986 l 926 164 l 1128 986 l 1260 986 l 1000 0 l 850 0 l 656 764 l 461 0 l 313 0 m 465 1081 l 590 1265 l 721 1265 l 846 1081 l 749 1081 l 656 1204 l 563 1081 l 465 1081 z "},"Ẅ":{"ha":1313,"x_min":53,"x_max":1260,"o":"m 313 0 l 53 986 l 183 986 l 386 164 l 588 986 l 724 986 l 926 164 l 1128 986 l 1260 986 l 1000 0 l 850 0 l 656 764 l 461 0 l 313 0 m 474 1101 l 474 1238 l 596 1238 l 596 1101 l 474 1101 m 715 1101 l 715 1238 l 838 1238 l 838 1101 l 715 1101 z "},"Ẁ":{"ha":1313,"x_min":53,"x_max":1260,"o":"m 313 0 l 53 986 l 183 986 l 386 164 l 588 986 l 724 986 l 926 164 l 1128 986 l 1260 986 l 1000 0 l 850 0 l 656 764 l 461 0 l 313 0 m 613 1088 l 488 1265 l 618 1265 l 710 1088 l 613 1088 z "},"X":{"ha":842,"x_min":21,"x_max":821,"o":"m 21 0 l 344 494 l 24 986 l 165 986 l 422 589 l 676 986 l 815 986 l 494 497 l 821 0 l 679 0 l 419 403 l 160 0 l 21 0 z "},"Y":{"ha":800,"x_min":-8,"x_max":808,"o":"m 340 0 l 340 403 l -8 986 l 133 986 l 400 525 l 667 986 l 808 986 l 460 403 l 460 0 l 340 0 z "},"Ý":{"ha":800,"x_min":-8,"x_max":808,"o":"m 340 0 l 340 403 l -8 986 l 133 986 l 400 525 l 667 986 l 808 986 l 460 403 l 460 0 l 340 0 m 349 1081 l 440 1258 l 571 1258 l 446 1081 l 349 1081 z "},"Ŷ":{"ha":800,"x_min":-8,"x_max":808,"o":"m 340 0 l 340 403 l -8 986 l 133 986 l 400 525 l 667 986 l 808 986 l 460 403 l 460 0 l 340 0 m 210 1081 l 335 1265 l 465 1265 l 590 1081 l 493 1081 l 400 1204 l 307 1081 l 210 1081 z "},"Ÿ":{"ha":800,"x_min":-8,"x_max":808,"o":"m 340 0 l 340 403 l -8 986 l 133 986 l 400 525 l 667 986 l 808 986 l 460 403 l 460 0 l 340 0 m 218 1101 l 218 1238 l 340 1238 l 340 1101 l 218 1101 m 460 1101 l 460 1238 l 582 1238 l 582 1101 l 460 1101 z "},"Ỳ":{"ha":800,"x_min":-8,"x_max":808,"o":"m 340 0 l 340 403 l -8 986 l 133 986 l 400 525 l 667 986 l 808 986 l 460 403 l 460 0 l 340 0 m 357 1088 l 232 1265 l 363 1265 l 454 1088 l 357 1088 z "},"Ỹ":{"ha":800,"x_min":-8,"x_max":808,"o":"m 340 0 l 340 403 l -8 986 l 133 986 l 400 525 l 667 986 l 808 986 l 460 403 l 460 0 l 340 0 m 482 1097 q 432 1108 456 1097 q 385 1136 408 1118 q 347 1164 361 1156 q 313 1172 333 1172 q 272 1155 288 1172 q 253 1088 256 1138 l 181 1088 q 220 1209 183 1168 q 313 1250 257 1250 q 370 1239 346 1250 q 418 1208 394 1228 q 488 1175 460 1175 q 528 1194 514 1175 q 546 1264 542 1213 l 618 1264 q 578 1141 614 1185 q 482 1097 542 1097 z "},"Z":{"ha":756,"x_min":39,"x_max":717,"o":"m 39 0 l 39 122 l 567 869 l 57 869 l 57 986 l 703 986 l 703 864 l 175 117 l 717 117 l 717 0 l 39 0 z "},"Ź":{"ha":756,"x_min":39,"x_max":717,"o":"m 39 0 l 39 122 l 567 869 l 57 869 l 57 986 l 703 986 l 703 864 l 175 117 l 717 117 l 717 0 l 39 0 m 338 1081 l 429 1258 l 560 1258 l 435 1081 l 338 1081 z "},"Ž":{"ha":756,"x_min":39,"x_max":717,"o":"m 39 0 l 39 122 l 567 869 l 57 869 l 57 986 l 703 986 l 703 864 l 175 117 l 717 117 l 717 0 l 39 0 m 199 1265 l 296 1265 l 389 1142 l 482 1265 l 579 1265 l 454 1081 l 324 1081 l 199 1265 z "},"Ż":{"ha":756,"x_min":39,"x_max":717,"o":"m 39 0 l 39 122 l 567 869 l 57 869 l 57 986 l 703 986 l 703 864 l 175 117 l 717 117 l 717 0 l 39 0 m 328 1101 l 328 1238 l 450 1238 l 450 1101 l 328 1101 z "},"Ꞌ":{"ha":244,"x_min":63,"x_max":182,"o":"m 79 486 l 63 819 l 63 986 l 182 986 l 182 819 l 165 486 l 79 486 z "},"a":{"ha":765,"x_min":61,"x_max":739,"o":"m 310 -17 q 128 36 196 -17 q 61 183 61 89 q 117 332 61 278 q 293 408 172 386 l 554 457 q 379 642 554 642 q 258 608 303 642 q 197 510 214 574 l 74 519 q 174 688 94 624 q 379 753 254 753 q 596 673 521 753 q 671 453 671 593 l 671 149 q 710 103 671 103 l 739 103 l 739 0 q 694 -3 722 -3 q 595 24 628 -3 q 556 114 563 51 q 460 20 528 57 q 310 -17 392 -17 m 321 86 q 493 149 432 86 q 554 303 554 211 l 554 356 l 315 311 q 212 269 240 297 q 183 194 183 240 q 220 115 183 143 q 321 86 257 86 z "},"á":{"ha":765,"x_min":61,"x_max":739,"o":"m 310 -17 q 128 36 196 -17 q 61 183 61 89 q 117 332 61 278 q 293 408 172 386 l 554 457 q 379 642 554 642 q 258 608 303 642 q 197 510 214 574 l 74 519 q 174 688 94 624 q 379 753 254 753 q 596 673 521 753 q 671 453 671 593 l 671 149 q 710 103 671 103 l 739 103 l 739 0 q 694 -3 722 -3 q 595 24 628 -3 q 556 114 563 51 q 460 20 528 57 q 310 -17 392 -17 m 321 86 q 493 149 432 86 q 554 303 554 211 l 554 356 l 315 311 q 212 269 240 297 q 183 194 183 240 q 220 115 183 143 q 321 86 257 86 m 335 831 l 426 1008 l 557 1008 l 432 831 l 335 831 z "},"ă":{"ha":765,"x_min":61,"x_max":739,"o":"m 310 -17 q 128 36 196 -17 q 61 183 61 89 q 117 332 61 278 q 293 408 172 386 l 554 457 q 379 642 554 642 q 258 608 303 642 q 197 510 214 574 l 74 519 q 174 688 94 624 q 379 753 254 753 q 596 673 521 753 q 671 453 671 593 l 671 149 q 710 103 671 103 l 739 103 l 739 0 q 694 -3 722 -3 q 595 24 628 -3 q 556 114 563 51 q 460 20 528 57 q 310 -17 392 -17 m 321 86 q 493 149 432 86 q 554 303 554 211 l 554 356 l 315 311 q 212 269 240 297 q 183 194 183 240 q 220 115 183 143 q 321 86 257 86 m 386 838 q 249 886 301 838 q 192 1015 196 935 l 272 1015 q 309 946 279 968 q 386 924 339 924 q 464 946 435 924 q 499 1015 493 968 l 579 1015 q 524 886 575 935 q 386 838 472 838 z "},"ǎ":{"ha":765,"x_min":61,"x_max":739,"o":"m 310 -17 q 128 36 196 -17 q 61 183 61 89 q 117 332 61 278 q 293 408 172 386 l 554 457 q 379 642 554 642 q 258 608 303 642 q 197 510 214 574 l 74 519 q 174 688 94 624 q 379 753 254 753 q 596 673 521 753 q 671 453 671 593 l 671 149 q 710 103 671 103 l 739 103 l 739 0 q 694 -3 722 -3 q 595 24 628 -3 q 556 114 563 51 q 460 20 528 57 q 310 -17 392 -17 m 321 86 q 493 149 432 86 q 554 303 554 211 l 554 356 l 315 311 q 212 269 240 297 q 183 194 183 240 q 220 115 183 143 q 321 86 257 86 m 196 1015 l 293 1015 l 386 892 l 479 1015 l 576 1015 l 451 831 l 321 831 l 196 1015 z "},"â":{"ha":765,"x_min":61,"x_max":739,"o":"m 310 -17 q 128 36 196 -17 q 61 183 61 89 q 117 332 61 278 q 293 408 172 386 l 554 457 q 379 642 554 642 q 258 608 303 642 q 197 510 214 574 l 74 519 q 174 688 94 624 q 379 753 254 753 q 596 673 521 753 q 671 453 671 593 l 671 149 q 710 103 671 103 l 739 103 l 739 0 q 694 -3 722 -3 q 595 24 628 -3 q 556 114 563 51 q 460 20 528 57 q 310 -17 392 -17 m 321 86 q 493 149 432 86 q 554 303 554 211 l 554 356 l 315 311 q 212 269 240 297 q 183 194 183 240 q 220 115 183 143 q 321 86 257 86 m 196 831 l 321 1015 l 451 1015 l 576 831 l 479 831 l 386 954 l 293 831 l 196 831 z "},"ä":{"ha":765,"x_min":61,"x_max":739,"o":"m 310 -17 q 128 36 196 -17 q 61 183 61 89 q 117 332 61 278 q 293 408 172 386 l 554 457 q 379 642 554 642 q 258 608 303 642 q 197 510 214 574 l 74 519 q 174 688 94 624 q 379 753 254 753 q 596 673 521 753 q 671 453 671 593 l 671 149 q 710 103 671 103 l 739 103 l 739 0 q 694 -3 722 -3 q 595 24 628 -3 q 556 114 563 51 q 460 20 528 57 q 310 -17 392 -17 m 321 86 q 493 149 432 86 q 554 303 554 211 l 554 356 l 315 311 q 212 269 240 297 q 183 194 183 240 q 220 115 183 143 q 321 86 257 86 m 204 851 l 204 988 l 326 988 l 326 851 l 204 851 m 446 851 l 446 988 l 568 988 l 568 851 l 446 851 z "},"à":{"ha":765,"x_min":61,"x_max":739,"o":"m 310 -17 q 128 36 196 -17 q 61 183 61 89 q 117 332 61 278 q 293 408 172 386 l 554 457 q 379 642 554 642 q 258 608 303 642 q 197 510 214 574 l 74 519 q 174 688 94 624 q 379 753 254 753 q 596 673 521 753 q 671 453 671 593 l 671 149 q 710 103 671 103 l 739 103 l 739 0 q 694 -3 722 -3 q 595 24 628 -3 q 556 114 563 51 q 460 20 528 57 q 310 -17 392 -17 m 321 86 q 493 149 432 86 q 554 303 554 211 l 554 356 l 315 311 q 212 269 240 297 q 183 194 183 240 q 220 115 183 143 q 321 86 257 86 m 343 838 l 218 1015 l 349 1015 l 440 838 l 343 838 z "},"ā":{"ha":765,"x_min":61,"x_max":739,"o":"m 310 -17 q 128 36 196 -17 q 61 183 61 89 q 117 332 61 278 q 293 408 172 386 l 554 457 q 379 642 554 642 q 258 608 303 642 q 197 510 214 574 l 74 519 q 174 688 94 624 q 379 753 254 753 q 596 673 521 753 q 671 453 671 593 l 671 149 q 710 103 671 103 l 739 103 l 739 0 q 694 -3 722 -3 q 595 24 628 -3 q 556 114 563 51 q 460 20 528 57 q 310 -17 392 -17 m 321 86 q 493 149 432 86 q 554 303 554 211 l 554 356 l 315 311 q 212 269 240 297 q 183 194 183 240 q 220 115 183 143 q 321 86 257 86 m 200 868 l 200 968 l 572 968 l 572 868 l 200 868 z "},"ą":{"ha":765,"x_min":61,"x_max":788,"o":"m 310 -17 q 128 36 196 -17 q 61 183 61 89 q 117 332 61 278 q 293 408 172 386 l 554 457 q 379 642 554 642 q 258 608 303 642 q 197 510 214 574 l 74 519 q 174 688 94 624 q 379 753 254 753 q 596 673 521 753 q 671 453 671 593 l 671 149 q 710 103 671 103 l 739 103 l 739 0 q 694 -3 722 -3 q 595 24 628 -3 q 556 114 563 51 q 460 20 528 57 q 310 -17 392 -17 m 321 86 q 493 149 432 86 q 554 303 554 211 l 554 356 l 315 311 q 212 269 240 297 q 183 194 183 240 q 220 115 183 143 q 321 86 257 86 m 668 -292 q 574 -267 608 -292 q 539 -194 539 -242 q 565 -112 539 -154 q 618 -31 590 -69 l 660 25 l 739 0 l 690 -67 q 656 -124 664 -103 q 647 -161 647 -144 q 658 -187 647 -178 q 688 -197 669 -197 q 754 -178 726 -197 l 788 -256 q 738 -281 772 -271 q 668 -292 704 -292 z "},"å":{"ha":765,"x_min":61,"x_max":739,"o":"m 310 -17 q 128 36 196 -17 q 61 183 61 89 q 117 332 61 278 q 293 408 172 386 l 554 457 q 379 642 554 642 q 258 608 303 642 q 197 510 214 574 l 74 519 q 174 688 94 624 q 379 753 254 753 q 596 673 521 753 q 671 453 671 593 l 671 149 q 710 103 671 103 l 739 103 l 739 0 q 694 -3 722 -3 q 595 24 628 -3 q 556 114 563 51 q 460 20 528 57 q 310 -17 392 -17 m 321 86 q 493 149 432 86 q 554 303 554 211 l 554 356 l 315 311 q 212 269 240 297 q 183 194 183 240 q 220 115 183 143 q 321 86 257 86 m 386 800 q 295 837 332 800 q 258 928 258 874 q 295 1019 258 982 q 386 1056 332 1056 q 477 1019 440 1056 q 514 928 514 982 q 477 837 514 874 q 386 800 440 800 m 386 869 q 428 886 411 869 q 444 928 444 903 q 428 969 444 953 q 386 986 411 986 q 344 969 361 986 q 328 928 328 953 q 344 886 328 903 q 386 869 361 869 z "},"ã":{"ha":765,"x_min":61,"x_max":739,"o":"m 310 -17 q 128 36 196 -17 q 61 183 61 89 q 117 332 61 278 q 293 408 172 386 l 554 457 q 379 642 554 642 q 258 608 303 642 q 197 510 214 574 l 74 519 q 174 688 94 624 q 379 753 254 753 q 596 673 521 753 q 671 453 671 593 l 671 149 q 710 103 671 103 l 739 103 l 739 0 q 694 -3 722 -3 q 595 24 628 -3 q 556 114 563 51 q 460 20 528 57 q 310 -17 392 -17 m 321 86 q 493 149 432 86 q 554 303 554 211 l 554 356 l 315 311 q 212 269 240 297 q 183 194 183 240 q 220 115 183 143 q 321 86 257 86 m 468 847 q 418 858 442 847 q 371 886 394 868 q 333 914 347 906 q 299 922 319 922 q 258 905 274 922 q 239 838 242 888 l 167 838 q 206 959 169 918 q 299 1000 243 1000 q 356 989 332 1000 q 404 958 381 978 q 474 925 446 925 q 514 944 500 925 q 532 1014 528 963 l 604 1014 q 564 891 600 935 q 468 847 528 847 z "},"æ":{"ha":1276,"x_min":61,"x_max":1215,"o":"m 313 -17 q 132 34 203 -17 q 61 183 61 85 q 94 307 61 261 q 180 376 126 353 q 293 408 233 400 l 554 443 q 511 594 553 546 q 375 642 469 642 q 255 604 299 642 q 197 510 211 567 l 74 519 q 175 689 96 625 q 375 753 254 753 q 631 625 558 753 q 740 719 674 686 q 890 753 806 753 q 1060 708 986 753 q 1174 576 1133 663 q 1215 367 1215 490 l 1215 332 l 681 332 q 744 154 688 214 q 896 94 800 94 q 1015 128 968 94 q 1079 218 1061 163 l 1204 208 q 1094 47 1175 110 q 896 -17 1013 -17 q 722 27 796 -17 q 607 150 649 71 q 492 28 569 74 q 313 -17 415 -17 m 681 435 l 1088 435 q 1026 592 1079 542 q 890 642 972 642 q 751 590 806 642 q 681 435 696 538 m 343 86 q 494 146 433 90 q 554 303 554 201 l 554 342 l 315 311 q 208 269 232 301 q 183 196 183 236 q 223 112 183 142 q 343 86 263 82 z "},"b":{"ha":826,"x_min":111,"x_max":765,"o":"m 449 -17 q 313 17 372 -17 q 221 111 253 51 l 217 0 l 111 0 l 111 986 l 228 986 l 228 633 q 314 716 256 679 q 449 753 372 753 q 617 706 546 753 q 726 572 688 658 q 765 368 765 486 q 726 164 765 250 q 617 31 688 78 q 449 -17 546 -17 m 442 94 q 589 168 535 94 q 643 368 643 242 q 589 569 643 496 q 444 642 535 642 q 285 569 343 642 q 228 368 228 496 q 285 168 228 242 q 442 94 342 94 z "},"c":{"ha":758,"x_min":61,"x_max":711,"o":"m 399 -17 q 220 31 296 -17 q 103 165 144 78 q 61 368 61 251 q 103 571 61 485 q 220 705 144 657 q 399 753 296 753 q 610 687 526 753 q 711 497 693 621 l 589 489 q 525 602 576 563 q 399 642 474 642 q 240 569 297 642 q 183 368 183 496 q 240 167 183 240 q 399 94 297 94 q 525 136 474 94 q 589 261 576 178 l 711 253 q 610 57 693 131 q 399 -17 526 -17 z "},"ć":{"ha":758,"x_min":61,"x_max":711,"o":"m 399 -17 q 220 31 296 -17 q 103 165 144 78 q 61 368 61 251 q 103 571 61 485 q 220 705 144 657 q 399 753 296 753 q 610 687 526 753 q 711 497 693 621 l 589 489 q 525 602 576 563 q 399 642 474 642 q 240 569 297 642 q 183 368 183 496 q 240 167 183 240 q 399 94 297 94 q 525 136 474 94 q 589 261 576 178 l 711 253 q 610 57 693 131 q 399 -17 526 -17 m 347 831 l 439 1008 l 569 1008 l 444 831 l 347 831 z "},"č":{"ha":758,"x_min":61,"x_max":711,"o":"m 399 -17 q 220 31 296 -17 q 103 165 144 78 q 61 368 61 251 q 103 571 61 485 q 220 705 144 657 q 399 753 296 753 q 610 687 526 753 q 711 497 693 621 l 589 489 q 525 602 576 563 q 399 642 474 642 q 240 569 297 642 q 183 368 183 496 q 240 167 183 240 q 399 94 297 94 q 525 136 474 94 q 589 261 576 178 l 711 253 q 610 57 693 131 q 399 -17 526 -17 m 208 1015 l 306 1015 l 399 892 l 492 1015 l 589 1015 l 464 831 l 333 831 l 208 1015 z "},"ç":{"ha":758,"x_min":61,"x_max":711,"o":"m 399 -17 q 220 31 296 -17 q 103 165 144 78 q 61 368 61 251 q 103 571 61 485 q 220 705 144 657 q 399 753 296 753 q 610 687 526 753 q 711 497 693 621 l 589 489 q 525 602 576 563 q 399 642 474 642 q 240 569 297 642 q 183 368 183 496 q 240 167 183 240 q 399 94 297 94 q 525 136 474 94 q 589 261 576 178 l 711 253 q 610 57 693 131 q 399 -17 526 -17 m 385 -306 q 278 -274 318 -306 q 222 -197 238 -243 l 293 -169 q 382 -228 317 -228 q 457 -172 457 -228 q 438 -128 457 -146 q 351 -111 418 -111 l 313 -69 l 365 14 l 454 14 l 407 -50 q 508 -87 475 -53 q 540 -175 540 -121 q 497 -269 540 -233 q 385 -306 453 -306 z "},"ĉ":{"ha":758,"x_min":61,"x_max":711,"o":"m 399 -17 q 220 31 296 -17 q 103 165 144 78 q 61 368 61 251 q 103 571 61 485 q 220 705 144 657 q 399 753 296 753 q 610 687 526 753 q 711 497 693 621 l 589 489 q 525 602 576 563 q 399 642 474 642 q 240 569 297 642 q 183 368 183 496 q 240 167 183 240 q 399 94 297 94 q 525 136 474 94 q 589 261 576 178 l 711 253 q 610 57 693 131 q 399 -17 526 -17 m 208 831 l 333 1015 l 464 1015 l 589 831 l 492 831 l 399 954 l 306 831 l 208 831 z "},"ċ":{"ha":758,"x_min":61,"x_max":711,"o":"m 399 -17 q 220 31 296 -17 q 103 165 144 78 q 61 368 61 251 q 103 571 61 485 q 220 705 144 657 q 399 753 296 753 q 610 687 526 753 q 711 497 693 621 l 589 489 q 525 602 576 563 q 399 642 474 642 q 240 569 297 642 q 183 368 183 496 q 240 167 183 240 q 399 94 297 94 q 525 136 474 94 q 589 261 576 178 l 711 253 q 610 57 693 131 q 399 -17 526 -17 m 338 851 l 338 988 l 460 988 l 460 851 l 338 851 z "},"d":{"ha":826,"x_min":61,"x_max":715,"o":"m 372 -17 q 206 31 276 -17 q 99 164 136 78 q 61 368 61 250 q 99 572 61 486 q 206 706 136 658 q 372 753 276 753 q 507 722 446 753 q 599 633 568 690 l 599 986 l 715 986 l 715 0 l 610 0 l 606 111 q 513 17 575 51 q 372 -17 450 -17 m 396 94 q 547 168 494 94 q 599 368 599 242 q 547 569 599 496 q 396 642 494 642 q 241 569 299 642 q 183 368 183 496 q 241 168 183 242 q 396 94 299 94 z "},"ď":{"ha":919,"x_min":61,"x_max":947,"o":"m 372 -17 q 206 31 276 -17 q 99 164 136 78 q 61 368 61 250 q 99 572 61 486 q 206 706 136 658 q 372 753 276 753 q 507 722 446 753 q 599 633 568 690 l 599 986 l 715 986 l 715 0 l 610 0 l 606 111 q 513 17 575 51 q 372 -17 450 -17 m 396 94 q 547 168 494 94 q 599 368 599 242 q 547 569 599 496 q 396 642 494 642 q 241 569 299 642 q 183 368 183 496 q 241 168 183 242 q 396 94 299 94 m 789 632 l 831 986 l 947 986 l 875 632 l 789 632 z "},"đ":{"ha":826,"x_min":61,"x_max":807,"o":"m 372 -17 q 206 31 276 -17 q 99 164 136 78 q 61 368 61 250 q 99 572 61 486 q 206 706 136 658 q 372 753 276 753 q 507 722 446 753 q 599 633 568 690 l 599 986 l 715 986 l 715 0 l 610 0 l 606 111 q 513 17 575 51 q 372 -17 450 -17 m 396 94 q 547 168 494 94 q 599 368 599 242 q 547 569 599 496 q 396 642 494 642 q 241 569 299 642 q 183 368 183 496 q 241 168 183 242 q 396 94 299 94 m 390 808 l 390 903 l 807 903 l 807 808 l 390 808 z "},"ð":{"ha":796,"x_min":61,"x_max":757,"o":"m 399 -17 q 221 26 297 -17 q 103 150 144 69 q 61 340 61 231 q 103 531 61 451 q 221 654 144 611 q 399 697 297 697 q 501 679 454 697 q 589 631 549 661 q 499 789 558 728 l 332 731 l 299 819 l 404 857 q 229 900 331 892 l 257 1003 q 411 968 343 994 q 531 901 479 942 l 724 969 l 757 881 l 606 828 q 705 619 675 740 q 735 354 735 497 q 643 81 735 178 q 399 -17 551 -17 m 399 94 q 556 159 500 94 q 613 354 613 224 q 556 524 613 461 q 399 586 500 586 q 240 522 297 586 q 183 340 183 458 q 240 158 183 222 q 399 94 297 94 z "},"e":{"ha":779,"x_min":61,"x_max":718,"o":"m 399 -17 q 219 31 294 -17 q 102 165 143 78 q 61 368 61 251 q 102 571 61 485 q 217 705 143 657 q 393 753 292 753 q 563 708 489 753 q 677 576 636 663 q 718 367 718 490 l 718 332 l 183 332 q 247 154 190 214 q 399 94 303 94 q 517 128 471 94 q 582 218 564 163 l 707 208 q 597 47 678 110 q 399 -17 515 -17 m 183 435 l 590 435 q 528 592 582 542 q 393 642 475 642 q 253 590 308 642 q 183 435 199 538 z "},"é":{"ha":779,"x_min":61,"x_max":718,"o":"m 399 -17 q 219 31 294 -17 q 102 165 143 78 q 61 368 61 251 q 102 571 61 485 q 217 705 143 657 q 393 753 292 753 q 563 708 489 753 q 677 576 636 663 q 718 367 718 490 l 718 332 l 183 332 q 247 154 190 214 q 399 94 303 94 q 517 128 471 94 q 582 218 564 163 l 707 208 q 597 47 678 110 q 399 -17 515 -17 m 183 435 l 590 435 q 528 592 582 542 q 393 642 475 642 q 253 590 308 642 q 183 435 199 538 m 347 828 l 439 1006 l 569 1006 l 444 828 l 347 828 z "},"ě":{"ha":779,"x_min":61,"x_max":718,"o":"m 399 -17 q 219 31 294 -17 q 102 165 143 78 q 61 368 61 251 q 102 571 61 485 q 217 705 143 657 q 393 753 292 753 q 563 708 489 753 q 677 576 636 663 q 718 367 718 490 l 718 332 l 183 332 q 247 154 190 214 q 399 94 303 94 q 517 128 471 94 q 582 218 564 163 l 707 208 q 597 47 678 110 q 399 -17 515 -17 m 183 435 l 590 435 q 528 592 582 542 q 393 642 475 642 q 253 590 308 642 q 183 435 199 538 m 208 1013 l 306 1013 l 399 889 l 492 1013 l 589 1013 l 464 828 l 333 828 l 208 1013 z "},"ê":{"ha":779,"x_min":61,"x_max":718,"o":"m 399 -17 q 219 31 294 -17 q 102 165 143 78 q 61 368 61 251 q 102 571 61 485 q 217 705 143 657 q 393 753 292 753 q 563 708 489 753 q 677 576 636 663 q 718 367 718 490 l 718 332 l 183 332 q 247 154 190 214 q 399 94 303 94 q 517 128 471 94 q 582 218 564 163 l 707 208 q 597 47 678 110 q 399 -17 515 -17 m 183 435 l 590 435 q 528 592 582 542 q 393 642 475 642 q 253 590 308 642 q 183 435 199 538 m 208 828 l 333 1013 l 464 1013 l 589 828 l 492 828 l 399 951 l 306 828 l 208 828 z "},"ë":{"ha":779,"x_min":61,"x_max":718,"o":"m 399 -17 q 219 31 294 -17 q 102 165 143 78 q 61 368 61 251 q 102 571 61 485 q 217 705 143 657 q 393 753 292 753 q 563 708 489 753 q 677 576 636 663 q 718 367 718 490 l 718 332 l 183 332 q 247 154 190 214 q 399 94 303 94 q 517 128 471 94 q 582 218 564 163 l 707 208 q 597 47 678 110 q 399 -17 515 -17 m 183 435 l 590 435 q 528 592 582 542 q 393 642 475 642 q 253 590 308 642 q 183 435 199 538 m 217 849 l 217 985 l 339 985 l 339 849 l 217 849 m 458 849 l 458 985 l 581 985 l 581 849 l 458 849 z "},"ė":{"ha":779,"x_min":61,"x_max":718,"o":"m 399 -17 q 219 31 294 -17 q 102 165 143 78 q 61 368 61 251 q 102 571 61 485 q 217 705 143 657 q 393 753 292 753 q 563 708 489 753 q 677 576 636 663 q 718 367 718 490 l 718 332 l 183 332 q 247 154 190 214 q 399 94 303 94 q 517 128 471 94 q 582 218 564 163 l 707 208 q 597 47 678 110 q 399 -17 515 -17 m 183 435 l 590 435 q 528 592 582 542 q 393 642 475 642 q 253 590 308 642 q 183 435 199 538 m 338 849 l 338 985 l 460 985 l 460 849 l 338 849 z "},"è":{"ha":779,"x_min":61,"x_max":718,"o":"m 399 -17 q 219 31 294 -17 q 102 165 143 78 q 61 368 61 251 q 102 571 61 485 q 217 705 143 657 q 393 753 292 753 q 563 708 489 753 q 677 576 636 663 q 718 367 718 490 l 718 332 l 183 332 q 247 154 190 214 q 399 94 303 94 q 517 128 471 94 q 582 218 564 163 l 707 208 q 597 47 678 110 q 399 -17 515 -17 m 183 435 l 590 435 q 528 592 582 542 q 393 642 475 642 q 253 590 308 642 q 183 435 199 538 m 356 835 l 231 1013 l 361 1013 l 453 835 l 356 835 z "},"ē":{"ha":779,"x_min":61,"x_max":718,"o":"m 399 -17 q 219 31 294 -17 q 102 165 143 78 q 61 368 61 251 q 102 571 61 485 q 217 705 143 657 q 393 753 292 753 q 563 708 489 753 q 677 576 636 663 q 718 367 718 490 l 718 332 l 183 332 q 247 154 190 214 q 399 94 303 94 q 517 128 471 94 q 582 218 564 163 l 707 208 q 597 47 678 110 q 399 -17 515 -17 m 183 435 l 590 435 q 528 592 582 542 q 393 642 475 642 q 253 590 308 642 q 183 435 199 538 m 213 865 l 213 965 l 585 965 l 585 865 l 213 865 z "},"ę":{"ha":779,"x_min":61,"x_max":718,"o":"m 399 -17 q 219 31 294 -17 q 102 165 143 78 q 61 368 61 251 q 102 571 61 485 q 217 705 143 657 q 393 753 292 753 q 563 708 489 753 q 677 576 636 663 q 718 367 718 490 l 718 332 l 183 332 q 247 154 190 214 q 399 94 303 94 q 517 128 471 94 q 582 218 564 163 l 707 208 q 644 92 688 143 l 649 92 l 533 -49 q 496 -107 507 -82 q 485 -153 485 -132 q 496 -186 485 -175 q 525 -197 507 -197 q 592 -178 564 -197 l 625 -256 q 576 -281 610 -271 q 506 -292 542 -292 q 413 -260 446 -292 q 379 -175 379 -229 q 397 -94 379 -131 q 444 -22 414 -57 l 453 -12 q 399 -17 426 -17 m 183 435 l 590 435 q 528 592 582 542 q 393 642 475 642 q 253 590 308 642 q 183 435 199 538 z "},"ẽ":{"ha":779,"x_min":61,"x_max":718,"o":"m 399 -17 q 219 31 294 -17 q 102 165 143 78 q 61 368 61 251 q 102 571 61 485 q 217 705 143 657 q 393 753 292 753 q 563 708 489 753 q 677 576 636 663 q 718 367 718 490 l 718 332 l 183 332 q 247 154 190 214 q 399 94 303 94 q 517 128 471 94 q 582 218 564 163 l 707 208 q 597 47 678 110 q 399 -17 515 -17 m 183 435 l 590 435 q 528 592 582 542 q 393 642 475 642 q 253 590 308 642 q 183 435 199 538 m 481 844 q 431 855 454 844 q 383 883 407 865 q 346 911 360 903 q 311 919 332 919 q 270 902 286 919 q 251 835 254 885 l 179 835 q 219 956 182 915 q 311 997 256 997 q 369 986 344 997 q 417 956 393 975 q 486 922 458 922 q 526 941 513 922 q 544 1011 540 960 l 617 1011 q 576 888 613 932 q 481 844 540 844 z "},"ə":{"ha":779,"x_min":61,"x_max":718,"o":"m 381 753 q 560 705 485 753 q 677 571 636 657 q 718 368 718 485 q 677 165 718 251 q 562 31 636 78 q 386 -17 488 -17 q 217 28 290 -17 q 103 160 144 74 q 61 369 61 246 l 61 404 l 596 404 q 533 583 590 524 q 381 642 476 642 q 263 608 308 642 q 197 518 217 575 l 72 528 q 183 690 101 626 q 381 753 264 753 m 596 301 l 189 301 q 251 145 197 196 q 386 94 306 94 q 527 147 472 94 q 596 301 582 200 z "},"f":{"ha":549,"x_min":83,"x_max":494,"o":"m 183 0 l 183 633 l 83 633 l 83 736 l 183 736 l 183 803 q 231 935 183 885 q 378 986 278 986 l 494 986 l 494 883 l 386 883 q 322 860 343 883 q 300 794 300 836 l 300 736 l 485 736 l 485 633 l 300 633 l 300 0 l 183 0 z "},"g":{"ha":825,"x_min":61,"x_max":714,"o":"m 390 -225 q 189 -167 272 -225 q 82 -11 106 -108 l 204 -3 q 263 -84 221 -54 q 390 -114 306 -114 q 544 -74 490 -114 q 597 47 597 -33 l 597 167 q 513 74 571 108 q 382 39 454 39 q 216 85 289 39 q 102 211 143 131 q 61 396 61 292 q 101 581 61 501 q 213 707 142 661 q 376 753 285 753 q 516 717 454 753 q 603 619 578 681 l 603 736 l 714 736 l 714 50 q 628 -152 714 -79 q 390 -225 543 -225 m 388 150 q 539 216 482 150 q 597 396 596 282 q 542 576 600 510 q 388 642 483 642 q 237 576 290 642 q 183 396 183 510 q 238 216 183 282 q 388 150 293 150 z "},"ğ":{"ha":825,"x_min":61,"x_max":714,"o":"m 390 -225 q 189 -167 272 -225 q 82 -11 106 -108 l 204 -3 q 263 -84 221 -54 q 390 -114 306 -114 q 544 -74 490 -114 q 597 47 597 -33 l 597 167 q 513 74 571 108 q 382 39 454 39 q 216 85 289 39 q 102 211 143 131 q 61 396 61 292 q 101 581 61 501 q 213 707 142 661 q 376 753 285 753 q 516 717 454 753 q 603 619 578 681 l 603 736 l 714 736 l 714 50 q 628 -152 714 -79 q 390 -225 543 -225 m 388 150 q 539 216 482 150 q 597 396 596 282 q 542 576 600 510 q 388 642 483 642 q 237 576 290 642 q 183 396 183 510 q 238 216 183 282 q 388 150 293 150 m 393 838 q 256 886 308 838 q 199 1015 203 935 l 279 1015 q 316 946 286 968 q 393 924 346 924 q 471 946 442 924 q 506 1015 500 968 l 586 1015 q 531 886 582 935 q 393 838 479 838 z "},"ǧ":{"ha":825,"x_min":61,"x_max":714,"o":"m 390 -225 q 189 -167 272 -225 q 82 -11 106 -108 l 204 -3 q 263 -84 221 -54 q 390 -114 306 -114 q 544 -74 490 -114 q 597 47 597 -33 l 597 167 q 513 74 571 108 q 382 39 454 39 q 216 85 289 39 q 102 211 143 131 q 61 396 61 292 q 101 581 61 501 q 213 707 142 661 q 376 753 285 753 q 516 717 454 753 q 603 619 578 681 l 603 736 l 714 736 l 714 50 q 628 -152 714 -79 q 390 -225 543 -225 m 388 150 q 539 216 482 150 q 597 396 596 282 q 542 576 600 510 q 388 642 483 642 q 237 576 290 642 q 183 396 183 510 q 238 216 183 282 q 388 150 293 150 m 203 1015 l 300 1015 l 393 892 l 486 1015 l 583 1015 l 458 831 l 328 831 l 203 1015 z "},"ĝ":{"ha":825,"x_min":61,"x_max":714,"o":"m 390 -225 q 189 -167 272 -225 q 82 -11 106 -108 l 204 -3 q 263 -84 221 -54 q 390 -114 306 -114 q 544 -74 490 -114 q 597 47 597 -33 l 597 167 q 513 74 571 108 q 382 39 454 39 q 216 85 289 39 q 102 211 143 131 q 61 396 61 292 q 101 581 61 501 q 213 707 142 661 q 376 753 285 753 q 516 717 454 753 q 603 619 578 681 l 603 736 l 714 736 l 714 50 q 628 -152 714 -79 q 390 -225 543 -225 m 388 150 q 539 216 482 150 q 597 396 596 282 q 542 576 600 510 q 388 642 483 642 q 237 576 290 642 q 183 396 183 510 q 238 216 183 282 q 388 150 293 150 m 203 831 l 328 1015 l 458 1015 l 583 831 l 486 831 l 393 954 l 300 831 l 203 831 z "},"ģ":{"ha":825,"x_min":61,"x_max":714,"o":"m 390 -225 q 189 -167 272 -225 q 82 -11 106 -108 l 204 -3 q 263 -84 221 -54 q 390 -114 306 -114 q 544 -74 490 -114 q 597 47 597 -33 l 597 167 q 513 74 571 108 q 382 39 454 39 q 216 85 289 39 q 102 211 143 131 q 61 396 61 292 q 101 581 61 501 q 213 707 142 661 q 376 753 285 753 q 516 717 454 753 q 603 619 578 681 l 603 736 l 714 736 l 714 50 q 628 -152 714 -79 q 390 -225 543 -225 m 388 150 q 539 216 482 150 q 597 396 596 282 q 542 576 600 510 q 388 642 483 642 q 237 576 290 642 q 183 396 183 510 q 238 216 183 282 q 388 150 293 150 m 321 838 l 321 951 l 406 1097 l 486 1097 l 410 963 l 460 963 l 460 838 l 321 838 z "},"ġ":{"ha":825,"x_min":61,"x_max":714,"o":"m 390 -225 q 189 -167 272 -225 q 82 -11 106 -108 l 204 -3 q 263 -84 221 -54 q 390 -114 306 -114 q 544 -74 490 -114 q 597 47 597 -33 l 597 167 q 513 74 571 108 q 382 39 454 39 q 216 85 289 39 q 102 211 143 131 q 61 396 61 292 q 101 581 61 501 q 213 707 142 661 q 376 753 285 753 q 516 717 454 753 q 603 619 578 681 l 603 736 l 714 736 l 714 50 q 628 -152 714 -79 q 390 -225 543 -225 m 388 150 q 539 216 482 150 q 597 396 596 282 q 542 576 600 510 q 388 642 483 642 q 237 576 290 642 q 183 396 183 510 q 238 216 183 282 q 388 150 293 150 m 332 851 l 332 988 l 454 988 l 454 851 l 332 851 z "},"ḡ":{"ha":825,"x_min":61,"x_max":714,"o":"m 390 -225 q 189 -167 272 -225 q 82 -11 106 -108 l 204 -3 q 263 -84 221 -54 q 390 -114 306 -114 q 544 -74 490 -114 q 597 47 597 -33 l 597 167 q 513 74 571 108 q 382 39 454 39 q 216 85 289 39 q 102 211 143 131 q 61 396 61 292 q 101 581 61 501 q 213 707 142 661 q 376 753 285 753 q 516 717 454 753 q 603 619 578 681 l 603 736 l 714 736 l 714 50 q 628 -152 714 -79 q 390 -225 543 -225 m 388 150 q 539 216 482 150 q 597 396 596 282 q 542 576 600 510 q 388 642 483 642 q 237 576 290 642 q 183 396 183 510 q 238 216 183 282 q 388 150 293 150 m 207 868 l 207 968 l 579 968 l 579 868 l 207 868 z "},"ǥ":{"ha":867,"x_min":61,"x_max":811,"o":"m 390 -225 q 189 -167 272 -225 q 82 -11 106 -108 l 204 -3 q 263 -84 221 -54 q 390 -114 306 -114 q 544 -74 490 -114 q 597 47 597 -33 l 597 167 q 513 74 571 108 q 382 39 454 39 q 216 85 289 39 q 102 211 143 131 q 61 396 61 292 q 101 581 61 501 q 213 707 142 661 q 376 753 285 753 q 516 717 454 753 q 603 619 578 681 l 603 736 l 714 736 l 714 439 l 811 439 l 811 342 l 714 342 l 714 50 q 628 -152 714 -79 q 390 -225 543 -225 m 388 150 q 525 201 471 150 q 593 342 579 251 l 325 342 l 325 439 l 596 439 q 530 588 586 533 q 388 642 474 642 q 237 576 290 642 q 183 396 183 510 q 238 216 183 282 q 388 150 293 150 z "},"h":{"ha":807,"x_min":111,"x_max":696,"o":"m 111 0 l 111 986 l 228 986 l 228 621 q 315 721 257 689 q 450 753 374 753 q 633 675 569 753 q 696 474 696 597 l 696 0 l 579 0 l 579 440 q 425 650 579 650 q 282 596 336 650 q 228 439 228 542 l 228 0 l 111 0 z "},"ħ":{"ha":807,"x_min":14,"x_max":696,"o":"m 111 0 l 111 986 l 228 986 l 228 621 q 315 721 257 689 q 450 753 374 753 q 633 675 569 753 q 696 474 696 597 l 696 0 l 579 0 l 579 440 q 425 650 579 650 q 282 596 336 650 q 228 439 228 542 l 228 0 l 111 0 m 14 808 l 14 903 l 431 903 l 431 808 l 14 808 z "},"ĥ":{"ha":807,"x_min":-21,"x_max":696,"o":"m 111 0 l 111 986 l 228 986 l 228 621 q 315 721 257 689 q 450 753 374 753 q 633 675 569 753 q 696 474 696 597 l 696 0 l 579 0 l 579 440 q 425 650 579 650 q 282 596 336 650 q 228 439 228 542 l 228 0 l 111 0 m -21 1053 l 104 1238 l 235 1238 l 360 1053 l 263 1053 l 169 1176 l 76 1053 l -21 1053 z "},"i":{"ha":339,"x_min":108,"x_max":231,"o":"m 111 0 l 111 736 l 228 736 l 228 0 l 111 0 m 108 851 l 108 988 l 231 988 l 231 851 l 108 851 z "},"ı":{"ha":339,"x_min":111,"x_max":228,"o":"m 111 0 l 111 736 l 228 736 l 228 0 l 111 0 z "},"í":{"ha":339,"x_min":111,"x_max":340,"o":"m 111 0 l 111 736 l 228 736 l 228 0 l 111 0 m 118 831 l 210 1008 l 340 1008 l 215 831 l 118 831 z "},"î":{"ha":339,"x_min":-21,"x_max":360,"o":"m 111 0 l 111 736 l 228 736 l 228 0 l 111 0 m -21 831 l 104 1015 l 235 1015 l 360 831 l 263 831 l 169 954 l 76 831 l -21 831 z "},"ï":{"ha":339,"x_min":-12,"x_max":351,"o":"m 111 0 l 111 736 l 228 736 l 228 0 l 111 0 m -12 851 l -12 988 l 110 988 l 110 851 l -12 851 m 229 851 l 229 988 l 351 988 l 351 851 l 229 851 z "},"ì":{"ha":339,"x_min":1,"x_max":228,"o":"m 111 0 l 111 736 l 228 736 l 228 0 l 111 0 m 126 838 l 1 1015 l 132 1015 l 224 838 l 126 838 z "},"ī":{"ha":339,"x_min":-17,"x_max":356,"o":"m 111 0 l 111 736 l 228 736 l 228 0 l 111 0 m -17 868 l -17 968 l 356 968 l 356 868 l -17 868 z "},"į":{"ha":339,"x_min":28,"x_max":276,"o":"m 111 0 l 111 736 l 228 736 l 228 0 l 111 0 m 108 851 l 108 988 l 231 988 l 231 851 l 108 851 m 157 -292 q 63 -267 97 -292 q 28 -194 28 -242 q 53 -112 28 -154 q 107 -31 79 -69 l 149 25 l 228 0 l 179 -67 q 144 -124 153 -103 q 136 -161 136 -144 q 147 -187 136 -178 q 176 -197 158 -197 q 243 -178 215 -197 l 276 -256 q 227 -281 261 -271 q 157 -292 193 -292 z "},"ĩ":{"ha":339,"x_min":-50,"x_max":388,"o":"m 111 0 l 111 736 l 228 736 l 228 0 l 111 0 m 251 847 q 201 858 225 847 q 154 886 178 868 q 117 914 131 906 q 82 922 103 922 q 41 905 57 922 q 22 838 25 888 l -50 838 q -10 959 -47 918 q 82 1000 26 1000 q 140 989 115 1000 q 188 958 164 978 q 257 925 229 925 q 297 944 283 925 q 315 1014 311 963 l 388 1014 q 347 891 383 935 q 251 847 311 847 z "},"ĳ":{"ha":686,"x_min":108,"x_max":578,"o":"m 111 0 l 111 736 l 228 736 l 228 0 l 111 0 m 108 851 l 108 988 l 231 988 l 231 851 l 108 851 m 318 -208 l 318 -106 l 378 -106 q 436 -88 414 -106 q 458 -25 458 -71 l 458 736 l 575 736 l 575 -31 q 532 -168 575 -128 q 389 -208 489 -208 l 318 -208 m 456 851 l 456 988 l 578 988 l 578 851 l 456 851 z "},"j":{"ha":361,"x_min":-7,"x_max":253,"o":"m -7 -208 l -7 -106 l 53 -106 q 111 -88 89 -106 q 133 -25 133 -71 l 133 736 l 250 736 l 250 -31 q 207 -168 250 -128 q 64 -208 164 -208 l -7 -208 m 131 851 l 131 988 l 253 988 l 253 851 l 131 851 z "},"ȷ":{"ha":361,"x_min":-7,"x_max":250,"o":"m -7 -208 l -7 -106 l 53 -106 q 111 -88 89 -106 q 133 -25 133 -71 l 133 736 l 250 736 l 250 -31 q 207 -168 250 -128 q 64 -208 164 -208 l -7 -208 z "},"ĵ":{"ha":361,"x_min":-7,"x_max":382,"o":"m -7 -208 l -7 -106 l 53 -106 q 111 -88 89 -106 q 133 -25 133 -71 l 133 736 l 250 736 l 250 -31 q 207 -168 250 -128 q 64 -208 164 -208 l -7 -208 m 1 831 l 126 1015 l 257 1015 l 382 831 l 285 831 l 192 954 l 99 831 l 1 831 z "},"k":{"ha":819,"x_min":111,"x_max":754,"o":"m 111 0 l 111 986 l 228 986 l 228 340 l 586 736 l 742 736 l 451 424 l 754 0 l 613 0 l 372 344 l 228 192 l 228 0 l 111 0 z "},"ǩ":{"ha":819,"x_min":-21,"x_max":754,"o":"m 111 0 l 111 986 l 228 986 l 228 340 l 586 736 l 742 736 l 451 424 l 754 0 l 613 0 l 372 344 l 228 192 l 228 0 l 111 0 m -21 1210 l 76 1210 l 169 1086 l 263 1210 l 360 1210 l 235 1025 l 104 1025 l -21 1210 z "},"ķ":{"ha":819,"x_min":111,"x_max":754,"o":"m 111 0 l 111 986 l 228 986 l 228 340 l 586 736 l 742 736 l 451 424 l 754 0 l 613 0 l 372 344 l 228 192 l 228 0 l 111 0 m 314 -333 l 390 -199 l 340 -199 l 340 -74 l 479 -74 l 479 -187 l 394 -333 l 314 -333 z "},"l":{"ha":371,"x_min":111,"x_max":338,"o":"m 256 0 q 151 33 192 0 q 111 139 111 67 l 111 986 l 228 986 l 228 149 q 274 103 228 103 l 338 103 l 338 0 l 256 0 z "},"ĺ":{"ha":371,"x_min":111,"x_max":340,"o":"m 256 0 q 151 33 192 0 q 111 139 111 67 l 111 986 l 228 986 l 228 149 q 274 103 228 103 l 338 103 l 338 0 l 256 0 m 118 1025 l 210 1203 l 340 1203 l 215 1025 l 118 1025 z "},"ľ":{"ha":442,"x_min":111,"x_max":469,"o":"m 256 0 q 151 33 192 0 q 111 139 111 67 l 111 986 l 228 986 l 228 149 q 274 103 228 103 l 338 103 l 338 0 l 256 0 m 311 632 l 353 986 l 469 986 l 397 632 l 311 632 z "},"ļ":{"ha":371,"x_min":111,"x_max":338,"o":"m 256 0 q 151 33 192 0 q 111 139 111 67 l 111 986 l 228 986 l 228 149 q 274 103 228 103 l 338 103 l 338 0 l 256 0 m 133 -333 l 210 -199 l 160 -199 l 160 -74 l 299 -74 l 299 -187 l 214 -333 l 133 -333 z "},"ł":{"ha":371,"x_min":8,"x_max":338,"o":"m 256 0 q 151 33 192 0 q 111 139 111 67 l 111 986 l 228 986 l 228 149 q 274 103 228 103 l 338 103 l 338 0 l 256 0 m 8 433 l 8 525 l 328 692 l 328 600 l 8 433 z "},"m":{"ha":1218,"x_min":111,"x_max":1107,"o":"m 111 0 l 111 736 l 218 736 l 221 607 q 303 714 249 675 q 428 753 357 753 q 568 713 511 753 q 649 599 625 672 q 728 713 672 672 q 864 753 783 753 q 1044 680 982 753 q 1107 474 1107 607 l 1107 0 l 990 0 l 990 449 q 836 650 990 650 q 713 594 760 650 q 667 440 667 539 l 667 0 l 550 0 l 550 440 q 515 594 550 539 q 399 650 481 650 q 275 594 322 650 q 228 440 228 539 l 228 0 l 111 0 z "},"n":{"ha":807,"x_min":111,"x_max":696,"o":"m 111 0 l 111 736 l 218 736 l 221 604 q 310 717 250 681 q 447 753 371 753 q 587 715 532 753 q 669 615 642 678 q 696 474 696 551 l 696 0 l 579 0 l 579 440 q 542 597 579 543 q 422 650 506 650 q 283 597 338 650 q 228 440 228 543 l 228 0 l 111 0 z "},"ń":{"ha":807,"x_min":111,"x_max":696,"o":"m 111 0 l 111 736 l 218 736 l 221 604 q 310 717 250 681 q 447 753 371 753 q 587 715 532 753 q 669 615 642 678 q 696 474 696 551 l 696 0 l 579 0 l 579 440 q 542 597 579 543 q 422 650 506 650 q 283 597 338 650 q 228 440 228 543 l 228 0 l 111 0 m 353 831 l 444 1008 l 575 1008 l 450 831 l 353 831 z "},"ň":{"ha":807,"x_min":111,"x_max":696,"o":"m 111 0 l 111 736 l 218 736 l 221 604 q 310 717 250 681 q 447 753 371 753 q 587 715 532 753 q 669 615 642 678 q 696 474 696 551 l 696 0 l 579 0 l 579 440 q 542 597 579 543 q 422 650 506 650 q 283 597 338 650 q 228 440 228 543 l 228 0 l 111 0 m 214 1015 l 311 1015 l 404 892 l 497 1015 l 594 1015 l 469 831 l 339 831 l 214 1015 z "},"ņ":{"ha":807,"x_min":111,"x_max":696,"o":"m 111 0 l 111 736 l 218 736 l 221 604 q 310 717 250 681 q 447 753 371 753 q 587 715 532 753 q 669 615 642 678 q 696 474 696 551 l 696 0 l 579 0 l 579 440 q 542 597 579 543 q 422 650 506 650 q 283 597 338 650 q 228 440 228 543 l 228 0 l 111 0 m 308 -333 l 385 -199 l 335 -199 l 335 -74 l 474 -74 l 474 -187 l 389 -333 l 308 -333 z "},"ñ":{"ha":807,"x_min":111,"x_max":696,"o":"m 111 0 l 111 736 l 218 736 l 221 604 q 310 717 250 681 q 447 753 371 753 q 587 715 532 753 q 669 615 642 678 q 696 474 696 551 l 696 0 l 579 0 l 579 440 q 542 597 579 543 q 422 650 506 650 q 283 597 338 650 q 228 440 228 543 l 228 0 l 111 0 m 486 847 q 436 858 460 847 q 389 886 413 868 q 351 914 365 906 q 317 922 338 922 q 276 905 292 922 q 257 838 260 888 l 185 838 q 224 959 188 918 q 317 1000 261 1000 q 374 989 350 1000 q 422 958 399 978 q 492 925 464 925 q 532 944 518 925 q 550 1014 546 963 l 622 1014 q 582 891 618 935 q 486 847 546 847 z "},"ŋ":{"ha":807,"x_min":111,"x_max":696,"o":"m 111 0 l 111 736 l 218 736 l 221 604 q 310 717 250 681 q 447 753 371 753 q 587 715 532 753 q 669 615 642 678 q 696 474 696 551 l 696 -10 q 640 -154 696 -100 q 488 -208 583 -208 l 375 -208 l 375 -106 l 490 -106 q 555 -80 531 -106 q 579 -11 579 -54 l 579 440 q 542 597 579 543 q 422 650 506 650 q 283 597 338 650 q 228 440 228 543 l 228 0 l 111 0 z "},"o":{"ha":796,"x_min":61,"x_max":735,"o":"m 399 -17 q 221 31 297 -17 q 103 165 144 78 q 61 368 61 251 q 103 572 61 486 q 221 706 144 658 q 399 753 297 753 q 576 706 500 753 q 693 572 651 658 q 735 368 735 486 q 693 165 735 251 q 576 31 651 78 q 399 -17 500 -17 m 399 94 q 556 167 500 94 q 613 368 613 240 q 556 569 613 496 q 399 642 500 642 q 240 569 297 642 q 183 368 183 496 q 240 167 183 240 q 399 94 297 94 z "},"ó":{"ha":796,"x_min":61,"x_max":735,"o":"m 399 -17 q 221 31 297 -17 q 103 165 144 78 q 61 368 61 251 q 103 572 61 486 q 221 706 144 658 q 399 753 297 753 q 576 706 500 753 q 693 572 651 658 q 735 368 735 486 q 693 165 735 251 q 576 31 651 78 q 399 -17 500 -17 m 399 94 q 556 167 500 94 q 613 368 613 240 q 556 569 613 496 q 399 642 500 642 q 240 569 297 642 q 183 368 183 496 q 240 167 183 240 q 399 94 297 94 m 347 831 l 439 1008 l 569 1008 l 444 831 l 347 831 z "},"ô":{"ha":796,"x_min":61,"x_max":735,"o":"m 399 -17 q 221 31 297 -17 q 103 165 144 78 q 61 368 61 251 q 103 572 61 486 q 221 706 144 658 q 399 753 297 753 q 576 706 500 753 q 693 572 651 658 q 735 368 735 486 q 693 165 735 251 q 576 31 651 78 q 399 -17 500 -17 m 399 94 q 556 167 500 94 q 613 368 613 240 q 556 569 613 496 q 399 642 500 642 q 240 569 297 642 q 183 368 183 496 q 240 167 183 240 q 399 94 297 94 m 208 831 l 333 1015 l 464 1015 l 589 831 l 492 831 l 399 954 l 306 831 l 208 831 z "},"ö":{"ha":796,"x_min":61,"x_max":735,"o":"m 399 -17 q 221 31 297 -17 q 103 165 144 78 q 61 368 61 251 q 103 572 61 486 q 221 706 144 658 q 399 753 297 753 q 576 706 500 753 q 693 572 651 658 q 735 368 735 486 q 693 165 735 251 q 576 31 651 78 q 399 -17 500 -17 m 399 94 q 556 167 500 94 q 613 368 613 240 q 556 569 613 496 q 399 642 500 642 q 240 569 297 642 q 183 368 183 496 q 240 167 183 240 q 399 94 297 94 m 217 851 l 217 988 l 339 988 l 339 851 l 217 851 m 458 851 l 458 988 l 581 988 l 581 851 l 458 851 z "},"ò":{"ha":796,"x_min":61,"x_max":735,"o":"m 399 -17 q 221 31 297 -17 q 103 165 144 78 q 61 368 61 251 q 103 572 61 486 q 221 706 144 658 q 399 753 297 753 q 576 706 500 753 q 693 572 651 658 q 735 368 735 486 q 693 165 735 251 q 576 31 651 78 q 399 -17 500 -17 m 399 94 q 556 167 500 94 q 613 368 613 240 q 556 569 613 496 q 399 642 500 642 q 240 569 297 642 q 183 368 183 496 q 240 167 183 240 q 399 94 297 94 m 356 838 l 231 1015 l 361 1015 l 453 838 l 356 838 z "},"ő":{"ha":796,"x_min":61,"x_max":735,"o":"m 399 -17 q 221 31 297 -17 q 103 165 144 78 q 61 368 61 251 q 103 572 61 486 q 221 706 144 658 q 399 753 297 753 q 576 706 500 753 q 693 572 651 658 q 735 368 735 486 q 693 165 735 251 q 576 31 651 78 q 399 -17 500 -17 m 399 94 q 556 167 500 94 q 613 368 613 240 q 556 569 613 496 q 399 642 500 642 q 240 569 297 642 q 183 368 183 496 q 240 167 183 240 q 399 94 297 94 m 254 831 l 346 1008 l 476 1008 l 351 831 l 254 831 m 436 831 l 528 1008 l 658 1008 l 533 831 l 436 831 z "},"ō":{"ha":796,"x_min":61,"x_max":735,"o":"m 399 -17 q 221 31 297 -17 q 103 165 144 78 q 61 368 61 251 q 103 572 61 486 q 221 706 144 658 q 399 753 297 753 q 576 706 500 753 q 693 572 651 658 q 735 368 735 486 q 693 165 735 251 q 576 31 651 78 q 399 -17 500 -17 m 399 94 q 556 167 500 94 q 613 368 613 240 q 556 569 613 496 q 399 642 500 642 q 240 569 297 642 q 183 368 183 496 q 240 167 183 240 q 399 94 297 94 m 213 868 l 213 968 l 585 968 l 585 868 l 213 868 z "},"ø":{"ha":796,"x_min":61,"x_max":735,"o":"m 399 -17 q 221 31 297 -17 q 103 165 144 78 q 61 368 61 251 q 103 572 61 486 q 221 706 144 658 q 399 753 297 753 q 576 706 500 753 q 693 572 651 658 q 735 368 735 486 q 693 165 735 251 q 576 31 651 78 q 399 -17 500 -17 m 399 94 q 556 167 500 94 q 613 368 613 240 q 556 569 613 496 q 399 642 500 642 q 240 569 297 642 q 183 368 183 496 q 240 167 183 240 q 399 94 297 94 m 86 -19 l 610 756 l 710 756 l 186 -19 l 86 -19 z "},"õ":{"ha":796,"x_min":61,"x_max":735,"o":"m 399 -17 q 221 31 297 -17 q 103 165 144 78 q 61 368 61 251 q 103 572 61 486 q 221 706 144 658 q 399 753 297 753 q 576 706 500 753 q 693 572 651 658 q 735 368 735 486 q 693 165 735 251 q 576 31 651 78 q 399 -17 500 -17 m 399 94 q 556 167 500 94 q 613 368 613 240 q 556 569 613 496 q 399 642 500 642 q 240 569 297 642 q 183 368 183 496 q 240 167 183 240 q 399 94 297 94 m 481 847 q 431 858 454 847 q 383 886 407 868 q 346 914 360 906 q 311 922 332 922 q 270 905 286 922 q 251 838 254 888 l 179 838 q 219 959 182 918 q 311 1000 256 1000 q 369 989 344 1000 q 417 958 393 978 q 486 925 458 925 q 526 944 513 925 q 544 1014 540 963 l 617 1014 q 576 891 613 935 q 481 847 540 847 z "},"œ":{"ha":1331,"x_min":61,"x_max":1269,"o":"m 399 -17 q 221 31 297 -17 q 103 165 144 78 q 61 368 61 251 q 103 572 61 486 q 221 706 144 658 q 399 753 297 753 q 576 706 500 753 q 693 572 651 658 q 735 368 735 486 q 693 165 735 251 q 576 31 651 78 q 399 -17 500 -17 m 399 94 q 556 167 500 94 q 613 368 613 240 q 556 569 613 496 q 399 642 500 642 q 240 569 297 642 q 183 368 183 496 q 240 167 183 240 q 399 94 297 94 m 950 -17 q 770 31 846 -17 q 653 165 694 78 q 613 368 613 251 q 653 571 613 485 q 769 705 694 657 q 944 753 843 753 q 1114 708 1040 753 q 1228 576 1188 663 q 1269 367 1269 490 l 1269 332 l 735 332 q 798 154 742 214 q 950 94 854 94 q 1069 128 1022 94 q 1133 218 1115 163 l 1258 208 q 1148 47 1229 110 q 950 -17 1067 -17 m 735 435 l 1142 435 q 1080 592 1133 542 q 944 642 1026 642 q 805 590 860 642 q 735 435 750 538 z "},"p":{"ha":826,"x_min":111,"x_max":765,"o":"m 111 -208 l 111 736 l 219 736 l 221 624 q 313 720 254 688 q 447 753 372 753 q 627 699 557 753 q 731 557 697 644 q 765 368 765 469 q 731 179 765 267 q 627 38 697 92 q 447 -17 557 -17 q 316 14 375 -17 q 228 97 257 44 l 228 -208 l 111 -208 m 436 94 q 588 167 532 94 q 643 368 643 239 q 588 569 643 497 q 436 642 532 642 q 284 573 340 642 q 228 368 228 504 q 283 164 228 233 q 436 94 339 94 z "},"þ":{"ha":826,"x_min":111,"x_max":765,"o":"m 111 -208 l 111 986 l 231 986 l 231 643 q 454 753 294 753 q 630 699 561 753 q 732 557 699 644 q 765 368 765 469 q 732 179 765 267 q 630 38 699 92 q 454 -17 561 -17 q 319 11 375 -17 q 231 89 264 39 l 231 -208 l 111 -208 m 431 94 q 553 133 507 94 q 622 235 600 172 q 643 368 643 299 q 622 505 643 442 q 553 608 600 568 q 431 647 507 647 q 308 607 356 647 q 240 503 261 567 q 218 368 218 440 q 240 237 218 300 q 308 134 261 174 q 431 94 356 94 z "},"q":{"ha":826,"x_min":61,"x_max":715,"o":"m 715 -208 l 599 -208 l 599 97 q 510 14 569 44 q 379 -17 451 -17 q 199 38 269 -17 q 95 179 129 92 q 61 368 61 267 q 95 557 61 469 q 199 699 129 644 q 379 753 269 753 q 513 720 454 753 q 606 624 572 688 l 607 736 l 715 736 l 715 -208 m 390 94 q 543 164 488 94 q 599 368 599 233 q 542 573 599 504 q 390 642 486 642 q 239 569 294 642 q 183 368 183 497 q 239 167 183 239 q 390 94 294 94 z "},"r":{"ha":526,"x_min":111,"x_max":465,"o":"m 111 0 l 111 736 l 214 736 l 218 600 q 393 736 256 736 l 465 736 l 465 625 l 394 625 q 228 444 228 625 l 228 0 l 111 0 z "},"ŕ":{"ha":526,"x_min":111,"x_max":465,"o":"m 111 0 l 111 736 l 214 736 l 218 600 q 393 736 256 736 l 465 736 l 465 625 l 394 625 q 228 444 228 625 l 228 0 l 111 0 m 221 831 l 313 1008 l 443 1008 l 318 831 l 221 831 z "},"ř":{"ha":526,"x_min":82,"x_max":465,"o":"m 111 0 l 111 736 l 214 736 l 218 600 q 393 736 256 736 l 465 736 l 465 625 l 394 625 q 228 444 228 625 l 228 0 l 111 0 m 82 1015 l 179 1015 l 272 892 l 365 1015 l 463 1015 l 338 831 l 207 831 l 82 1015 z "},"ŗ":{"ha":526,"x_min":74,"x_max":465,"o":"m 111 0 l 111 736 l 214 736 l 218 600 q 393 736 256 736 l 465 736 l 465 625 l 394 625 q 228 444 228 625 l 228 0 l 111 0 m 74 -333 l 150 -199 l 100 -199 l 100 -74 l 239 -74 l 239 -187 l 154 -333 l 74 -333 z "},"s":{"ha":728,"x_min":61,"x_max":667,"o":"m 379 -17 q 151 53 232 -17 q 61 232 69 124 l 183 240 q 240 134 194 174 q 379 94 286 94 q 499 119 454 94 q 544 197 544 143 q 531 246 544 226 q 476 280 517 265 q 357 308 436 294 q 191 356 251 328 q 105 427 131 385 q 79 528 79 469 q 151 690 79 626 q 357 753 224 753 q 509 720 447 753 q 606 634 571 688 q 653 517 642 581 l 531 508 q 474 604 518 567 q 356 642 431 642 q 239 611 276 642 q 201 533 201 581 q 242 453 201 479 q 379 411 282 428 q 554 364 492 392 q 642 296 617 336 q 667 197 667 256 q 628 81 667 129 q 526 8 590 33 q 379 -17 461 -17 z "},"ś":{"ha":728,"x_min":61,"x_max":667,"o":"m 379 -17 q 151 53 232 -17 q 61 232 69 124 l 183 240 q 240 134 194 174 q 379 94 286 94 q 499 119 454 94 q 544 197 544 143 q 531 246 544 226 q 476 280 517 265 q 357 308 436 294 q 191 356 251 328 q 105 427 131 385 q 79 528 79 469 q 151 690 79 626 q 357 753 224 753 q 509 720 447 753 q 606 634 571 688 q 653 517 642 581 l 531 508 q 474 604 518 567 q 356 642 431 642 q 239 611 276 642 q 201 533 201 581 q 242 453 201 479 q 379 411 282 428 q 554 364 492 392 q 642 296 617 336 q 667 197 667 256 q 628 81 667 129 q 526 8 590 33 q 379 -17 461 -17 m 306 831 l 397 1008 l 528 1008 l 403 831 l 306 831 z "},"š":{"ha":728,"x_min":61,"x_max":667,"o":"m 379 -17 q 151 53 232 -17 q 61 232 69 124 l 183 240 q 240 134 194 174 q 379 94 286 94 q 499 119 454 94 q 544 197 544 143 q 531 246 544 226 q 476 280 517 265 q 357 308 436 294 q 191 356 251 328 q 105 427 131 385 q 79 528 79 469 q 151 690 79 626 q 357 753 224 753 q 509 720 447 753 q 606 634 571 688 q 653 517 642 581 l 531 508 q 474 604 518 567 q 356 642 431 642 q 239 611 276 642 q 201 533 201 581 q 242 453 201 479 q 379 411 282 428 q 554 364 492 392 q 642 296 617 336 q 667 197 667 256 q 628 81 667 129 q 526 8 590 33 q 379 -17 461 -17 m 167 1015 l 264 1015 l 357 892 l 450 1015 l 547 1015 l 422 831 l 292 831 l 167 1015 z "},"ş":{"ha":728,"x_min":61,"x_max":667,"o":"m 379 -17 q 151 53 232 -17 q 61 232 69 124 l 183 240 q 240 134 194 174 q 379 94 286 94 q 499 119 454 94 q 544 197 544 143 q 531 246 544 226 q 476 280 517 265 q 357 308 436 294 q 191 356 251 328 q 105 427 131 385 q 79 528 79 469 q 151 690 79 626 q 357 753 224 753 q 509 720 447 753 q 606 634 571 688 q 653 517 642 581 l 531 508 q 474 604 518 567 q 356 642 431 642 q 239 611 276 642 q 201 533 201 581 q 242 453 201 479 q 379 411 282 428 q 554 364 492 392 q 642 296 617 336 q 667 197 667 256 q 628 81 667 129 q 526 8 590 33 q 379 -17 461 -17 m 354 -306 q 247 -274 288 -306 q 192 -197 207 -243 l 263 -169 q 351 -228 286 -228 q 426 -172 426 -228 q 407 -128 426 -146 q 321 -111 388 -111 l 282 -69 l 335 14 l 424 14 l 376 -50 q 477 -87 444 -53 q 510 -175 510 -121 q 466 -269 510 -233 q 354 -306 422 -306 z "},"ŝ":{"ha":728,"x_min":61,"x_max":667,"o":"m 379 -17 q 151 53 232 -17 q 61 232 69 124 l 183 240 q 240 134 194 174 q 379 94 286 94 q 499 119 454 94 q 544 197 544 143 q 531 246 544 226 q 476 280 517 265 q 357 308 436 294 q 191 356 251 328 q 105 427 131 385 q 79 528 79 469 q 151 690 79 626 q 357 753 224 753 q 509 720 447 753 q 606 634 571 688 q 653 517 642 581 l 531 508 q 474 604 518 567 q 356 642 431 642 q 239 611 276 642 q 201 533 201 581 q 242 453 201 479 q 379 411 282 428 q 554 364 492 392 q 642 296 617 336 q 667 197 667 256 q 628 81 667 129 q 526 8 590 33 q 379 -17 461 -17 m 167 831 l 292 1015 l 422 1015 l 547 831 l 450 831 l 357 954 l 264 831 l 167 831 z "},"ș":{"ha":728,"x_min":61,"x_max":667,"o":"m 379 -17 q 151 53 232 -17 q 61 232 69 124 l 183 240 q 240 134 194 174 q 379 94 286 94 q 499 119 454 94 q 544 197 544 143 q 531 246 544 226 q 476 280 517 265 q 357 308 436 294 q 191 356 251 328 q 105 427 131 385 q 79 528 79 469 q 151 690 79 626 q 357 753 224 753 q 509 720 447 753 q 606 634 571 688 q 653 517 642 581 l 531 508 q 474 604 518 567 q 356 642 431 642 q 239 611 276 642 q 201 533 201 581 q 242 453 201 479 q 379 411 282 428 q 554 364 492 392 q 642 296 617 336 q 667 197 667 256 q 628 81 667 129 q 526 8 590 33 q 379 -17 461 -17 m 272 -333 l 349 -199 l 299 -199 l 299 -74 l 438 -74 l 438 -187 l 353 -333 l 272 -333 z "},"ß":{"ha":815,"x_min":111,"x_max":761,"o":"m 111 0 l 111 697 q 149 858 111 790 q 253 963 186 926 q 411 1000 321 1000 q 624 929 547 1000 q 700 744 700 858 q 660 613 700 668 q 551 535 619 558 q 704 444 647 511 q 761 281 761 376 q 669 75 761 150 q 411 0 578 0 l 322 0 l 322 111 l 411 111 q 580 154 521 111 q 639 286 639 197 q 578 421 639 372 q 397 469 517 469 l 336 469 l 336 579 l 397 579 q 532 624 483 579 q 581 742 581 668 q 539 848 581 807 q 411 889 497 889 q 278 838 328 889 q 228 697 228 788 l 228 0 l 111 0 z "},"t":{"ha":544,"x_min":76,"x_max":497,"o":"m 381 0 q 233 46 281 0 q 185 189 185 92 l 185 633 l 76 633 l 76 736 l 185 736 l 185 908 l 301 908 l 301 736 l 497 736 l 497 633 l 301 633 l 301 192 q 324 122 301 142 q 392 103 346 103 l 497 103 l 497 0 l 381 0 z "},"ŧ":{"ha":544,"x_min":74,"x_max":497,"o":"m 381 0 q 233 46 281 0 q 185 189 185 92 l 185 633 l 76 633 l 76 736 l 185 736 l 185 908 l 301 908 l 301 736 l 497 736 l 497 633 l 301 633 l 301 192 q 324 122 301 142 q 392 103 346 103 l 497 103 l 497 0 l 381 0 m 74 356 l 74 450 l 490 450 l 490 356 l 74 356 z "},"ť":{"ha":554,"x_min":76,"x_max":568,"o":"m 410 767 l 451 1051 l 568 1051 l 496 767 l 410 767 m 381 0 q 233 46 281 0 q 185 189 185 92 l 185 633 l 76 633 l 76 736 l 185 736 l 185 908 l 301 908 l 301 736 l 497 736 l 497 633 l 301 633 l 301 192 q 324 122 301 142 q 392 103 346 103 l 497 103 l 497 0 l 381 0 z "},"ţ":{"ha":544,"x_min":76,"x_max":497,"o":"m 381 0 q 233 46 281 0 q 185 189 185 92 l 185 633 l 76 633 l 76 736 l 185 736 l 185 908 l 301 908 l 301 736 l 497 736 l 497 633 l 301 633 l 301 192 q 324 122 301 142 q 392 103 346 103 l 497 103 l 497 0 l 381 0 m 311 -306 q 204 -274 244 -306 q 149 -197 164 -243 l 219 -169 q 308 -228 243 -228 q 383 -172 383 -228 q 364 -128 383 -146 q 278 -111 344 -111 l 239 -69 l 292 14 l 381 14 l 333 -50 q 434 -87 401 -53 q 467 -175 467 -121 q 423 -269 467 -233 q 311 -306 379 -306 z "},"ț":{"ha":544,"x_min":76,"x_max":497,"o":"m 381 0 q 233 46 281 0 q 185 189 185 92 l 185 633 l 76 633 l 76 736 l 185 736 l 185 908 l 301 908 l 301 736 l 497 736 l 497 633 l 301 633 l 301 192 q 324 122 301 142 q 392 103 346 103 l 497 103 l 497 0 l 381 0 m 229 -333 l 306 -199 l 256 -199 l 256 -74 l 394 -74 l 394 -187 l 310 -333 l 229 -333 z "},"u":{"ha":799,"x_min":111,"x_max":688,"o":"m 353 -17 q 177 58 243 -17 q 111 263 111 132 l 111 736 l 228 736 l 228 294 q 266 137 228 188 q 383 86 304 86 q 521 142 471 86 q 571 297 571 199 l 571 736 l 688 736 l 688 0 l 576 0 l 576 119 q 353 -17 515 -17 z "},"ú":{"ha":799,"x_min":111,"x_max":688,"o":"m 353 -17 q 177 58 243 -17 q 111 263 111 132 l 111 736 l 228 736 l 228 294 q 266 137 228 188 q 383 86 304 86 q 521 142 471 86 q 571 297 571 199 l 571 736 l 688 736 l 688 0 l 576 0 l 576 119 q 353 -17 515 -17 m 343 831 l 435 1008 l 565 1008 l 440 831 l 343 831 z "},"ŭ":{"ha":799,"x_min":111,"x_max":688,"o":"m 353 -17 q 177 58 243 -17 q 111 263 111 132 l 111 736 l 228 736 l 228 294 q 266 137 228 188 q 383 86 304 86 q 521 142 471 86 q 571 297 571 199 l 571 736 l 688 736 l 688 0 l 576 0 l 576 119 q 353 -17 515 -17 m 394 838 q 257 886 310 838 q 200 1015 204 935 l 281 1015 q 317 946 288 968 q 394 924 347 924 q 472 946 443 924 q 507 1015 501 968 l 588 1015 q 532 886 583 935 q 394 838 481 838 z "},"û":{"ha":799,"x_min":111,"x_max":688,"o":"m 353 -17 q 177 58 243 -17 q 111 263 111 132 l 111 736 l 228 736 l 228 294 q 266 137 228 188 q 383 86 304 86 q 521 142 471 86 q 571 297 571 199 l 571 736 l 688 736 l 688 0 l 576 0 l 576 119 q 353 -17 515 -17 m 204 831 l 329 1015 l 460 1015 l 585 831 l 488 831 l 394 954 l 301 831 l 204 831 z "},"ü":{"ha":799,"x_min":111,"x_max":688,"o":"m 353 -17 q 177 58 243 -17 q 111 263 111 132 l 111 736 l 228 736 l 228 294 q 266 137 228 188 q 383 86 304 86 q 521 142 471 86 q 571 297 571 199 l 571 736 l 688 736 l 688 0 l 576 0 l 576 119 q 353 -17 515 -17 m 213 851 l 213 988 l 335 988 l 335 851 l 213 851 m 454 851 l 454 988 l 576 988 l 576 851 l 454 851 z "},"ù":{"ha":799,"x_min":111,"x_max":688,"o":"m 353 -17 q 177 58 243 -17 q 111 263 111 132 l 111 736 l 228 736 l 228 294 q 266 137 228 188 q 383 86 304 86 q 521 142 471 86 q 571 297 571 199 l 571 736 l 688 736 l 688 0 l 576 0 l 576 119 q 353 -17 515 -17 m 351 838 l 226 1015 l 357 1015 l 449 838 l 351 838 z "},"ű":{"ha":799,"x_min":111,"x_max":688,"o":"m 353 -17 q 177 58 243 -17 q 111 263 111 132 l 111 736 l 228 736 l 228 294 q 266 137 228 188 q 383 86 304 86 q 521 142 471 86 q 571 297 571 199 l 571 736 l 688 736 l 688 0 l 576 0 l 576 119 q 353 -17 515 -17 m 250 831 l 342 1008 l 472 1008 l 347 831 l 250 831 m 432 831 l 524 1008 l 654 1008 l 529 831 l 432 831 z "},"ū":{"ha":799,"x_min":111,"x_max":688,"o":"m 353 -17 q 177 58 243 -17 q 111 263 111 132 l 111 736 l 228 736 l 228 294 q 266 137 228 188 q 383 86 304 86 q 521 142 471 86 q 571 297 571 199 l 571 736 l 688 736 l 688 0 l 576 0 l 576 119 q 353 -17 515 -17 m 208 868 l 208 968 l 581 968 l 581 868 l 208 868 z "},"ų":{"ha":799,"x_min":111,"x_max":736,"o":"m 353 -17 q 177 58 243 -17 q 111 263 111 132 l 111 736 l 228 736 l 228 294 q 266 137 228 188 q 383 86 304 86 q 521 142 471 86 q 571 297 571 199 l 571 736 l 688 736 l 688 0 l 576 0 l 576 119 q 353 -17 515 -17 m 617 -292 q 522 -267 557 -292 q 488 -194 488 -242 q 513 -112 488 -154 q 567 -31 539 -69 l 608 25 l 688 0 l 639 -67 q 604 -124 613 -103 q 596 -161 596 -144 q 607 -187 596 -178 q 636 -197 618 -197 q 703 -178 675 -197 l 736 -256 q 687 -281 721 -271 q 617 -292 653 -292 z "},"ů":{"ha":799,"x_min":111,"x_max":688,"o":"m 353 -17 q 177 58 243 -17 q 111 263 111 132 l 111 736 l 228 736 l 228 294 q 266 137 228 188 q 383 86 304 86 q 521 142 471 86 q 571 297 571 199 l 571 736 l 688 736 l 688 0 l 576 0 l 576 119 q 353 -17 515 -17 m 394 800 q 303 837 340 800 q 267 928 267 874 q 303 1019 267 982 q 394 1056 340 1056 q 485 1019 449 1056 q 522 928 522 982 q 485 837 522 874 q 394 800 449 800 m 394 869 q 436 886 419 869 q 453 928 453 903 q 436 969 453 953 q 394 986 419 986 q 353 969 369 986 q 336 928 336 953 q 353 886 336 903 q 394 869 369 869 z "},"ũ":{"ha":799,"x_min":111,"x_max":688,"o":"m 353 -17 q 177 58 243 -17 q 111 263 111 132 l 111 736 l 228 736 l 228 294 q 266 137 228 188 q 383 86 304 86 q 521 142 471 86 q 571 297 571 199 l 571 736 l 688 736 l 688 0 l 576 0 l 576 119 q 353 -17 515 -17 m 458 847 q 408 858 432 847 q 361 886 385 868 q 324 914 338 906 q 289 922 310 922 q 248 905 264 922 q 229 838 232 888 l 157 838 q 197 959 160 918 q 289 1000 233 1000 q 347 989 322 1000 q 394 958 371 978 q 464 925 436 925 q 504 944 490 925 q 522 1014 518 963 l 594 1014 q 554 891 590 935 q 458 847 518 847 z "},"v":{"ha":744,"x_min":31,"x_max":714,"o":"m 299 0 l 31 736 l 158 736 l 372 119 l 586 736 l 714 736 l 446 0 l 299 0 z "},"w":{"ha":1138,"x_min":31,"x_max":1107,"o":"m 258 0 l 31 736 l 158 736 l 331 122 l 506 736 l 631 736 l 806 122 l 979 736 l 1107 736 l 879 0 l 732 0 l 568 560 l 404 0 l 258 0 z "},"ẃ":{"ha":1138,"x_min":31,"x_max":1107,"o":"m 258 0 l 31 736 l 158 736 l 331 122 l 506 736 l 631 736 l 806 122 l 979 736 l 1107 736 l 879 0 l 732 0 l 568 560 l 404 0 l 258 0 m 518 831 l 610 1008 l 740 1008 l 615 831 l 518 831 z "},"ŵ":{"ha":1138,"x_min":31,"x_max":1107,"o":"m 258 0 l 31 736 l 158 736 l 331 122 l 506 736 l 631 736 l 806 122 l 979 736 l 1107 736 l 879 0 l 732 0 l 568 560 l 404 0 l 258 0 m 379 831 l 504 1015 l 635 1015 l 760 831 l 663 831 l 569 954 l 476 831 l 379 831 z "},"ẅ":{"ha":1138,"x_min":31,"x_max":1107,"o":"m 258 0 l 31 736 l 158 736 l 331 122 l 506 736 l 631 736 l 806 122 l 979 736 l 1107 736 l 879 0 l 732 0 l 568 560 l 404 0 l 258 0 m 388 851 l 388 988 l 510 988 l 510 851 l 388 851 m 629 851 l 629 988 l 751 988 l 751 851 l 629 851 z "},"ẁ":{"ha":1138,"x_min":31,"x_max":1107,"o":"m 258 0 l 31 736 l 158 736 l 331 122 l 506 736 l 631 736 l 806 122 l 979 736 l 1107 736 l 879 0 l 732 0 l 568 560 l 404 0 l 258 0 m 526 838 l 401 1015 l 532 1015 l 624 838 l 526 838 z "},"x":{"ha":813,"x_min":65,"x_max":747,"o":"m 65 0 l 336 378 l 79 736 l 215 736 l 408 458 l 596 736 l 735 736 l 481 375 l 747 0 l 611 0 l 408 297 l 204 0 l 65 0 z "},"y":{"ha":746,"x_min":31,"x_max":715,"o":"m 143 -208 l 143 -106 l 228 -106 q 285 -94 267 -106 q 314 -56 304 -82 l 340 14 l 300 14 l 31 736 l 158 736 l 378 122 l 588 736 l 715 736 l 417 -93 q 354 -181 396 -153 q 239 -208 313 -208 l 143 -208 z "},"ý":{"ha":746,"x_min":31,"x_max":715,"o":"m 143 -208 l 143 -106 l 228 -106 q 285 -94 267 -106 q 314 -56 304 -82 l 340 14 l 300 14 l 31 736 l 158 736 l 378 122 l 588 736 l 715 736 l 417 -93 q 354 -181 396 -153 q 239 -208 313 -208 l 143 -208 m 322 831 l 414 1008 l 544 1008 l 419 831 l 322 831 z "},"ŷ":{"ha":746,"x_min":31,"x_max":715,"o":"m 143 -208 l 143 -106 l 228 -106 q 285 -94 267 -106 q 314 -56 304 -82 l 340 14 l 300 14 l 31 736 l 158 736 l 378 122 l 588 736 l 715 736 l 417 -93 q 354 -181 396 -153 q 239 -208 313 -208 l 143 -208 m 183 831 l 308 1015 l 439 1015 l 564 831 l 467 831 l 374 954 l 281 831 l 183 831 z "},"ÿ":{"ha":746,"x_min":31,"x_max":715,"o":"m 143 -208 l 143 -106 l 228 -106 q 285 -94 267 -106 q 314 -56 304 -82 l 340 14 l 300 14 l 31 736 l 158 736 l 378 122 l 588 736 l 715 736 l 417 -93 q 354 -181 396 -153 q 239 -208 313 -208 l 143 -208 m 192 851 l 192 988 l 314 988 l 314 851 l 192 851 m 433 851 l 433 988 l 556 988 l 556 851 l 433 851 z "},"ỳ":{"ha":746,"x_min":31,"x_max":715,"o":"m 143 -208 l 143 -106 l 228 -106 q 285 -94 267 -106 q 314 -56 304 -82 l 340 14 l 300 14 l 31 736 l 158 736 l 378 122 l 588 736 l 715 736 l 417 -93 q 354 -181 396 -153 q 239 -208 313 -208 l 143 -208 m 331 838 l 206 1015 l 336 1015 l 428 838 l 331 838 z "},"ỹ":{"ha":746,"x_min":31,"x_max":715,"o":"m 143 -208 l 143 -106 l 228 -106 q 285 -94 267 -106 q 314 -56 304 -82 l 340 14 l 300 14 l 31 736 l 158 736 l 378 122 l 588 736 l 715 736 l 417 -93 q 354 -181 396 -153 q 239 -208 313 -208 l 143 -208 m 456 847 q 406 858 429 847 q 358 886 382 868 q 321 914 335 906 q 286 922 307 922 q 245 905 261 922 q 226 838 229 888 l 154 838 q 194 959 157 918 q 286 1000 231 1000 q 344 989 319 1000 q 392 958 368 978 q 461 925 433 925 q 501 944 488 925 q 519 1014 515 963 l 592 1014 q 551 891 588 935 q 456 847 515 847 z "},"z":{"ha":763,"x_min":79,"x_max":683,"o":"m 79 0 l 79 117 l 544 633 l 93 633 l 93 736 l 672 736 l 672 619 l 207 103 l 683 103 l 683 0 l 79 0 z "},"ź":{"ha":763,"x_min":79,"x_max":683,"o":"m 79 0 l 79 117 l 544 633 l 93 633 l 93 736 l 672 736 l 672 619 l 207 103 l 683 103 l 683 0 l 79 0 m 332 831 l 424 1008 l 554 1008 l 429 831 l 332 831 z "},"ž":{"ha":763,"x_min":79,"x_max":683,"o":"m 79 0 l 79 117 l 544 633 l 93 633 l 93 736 l 672 736 l 672 619 l 207 103 l 683 103 l 683 0 l 79 0 m 193 1015 l 290 1015 l 383 892 l 476 1015 l 574 1015 l 449 831 l 318 831 l 193 1015 z "},"ż":{"ha":763,"x_min":79,"x_max":683,"o":"m 79 0 l 79 117 l 544 633 l 93 633 l 93 736 l 672 736 l 672 619 l 207 103 l 683 103 l 683 0 l 79 0 m 322 851 l 322 988 l 444 988 l 444 851 l 322 851 z "},"ꞌ":{"ha":336,"x_min":111,"x_max":225,"o":"m 128 514 l 111 875 l 111 986 l 225 986 l 225 875 l 208 514 l 128 514 z "},"ﬁ":{"ha":865,"x_min":83,"x_max":757,"o":"m 183 0 l 183 633 l 83 633 l 83 736 l 183 736 l 183 803 q 231 935 183 885 q 378 986 278 986 l 494 986 l 494 883 l 386 883 q 322 860 343 883 q 300 794 300 836 l 300 736 l 485 736 l 485 633 l 300 633 l 300 0 l 183 0 m 638 0 l 638 736 l 754 736 l 754 0 l 638 0 m 635 851 l 635 988 l 757 988 l 757 851 l 635 851 z "},"ﬂ":{"ha":892,"x_min":83,"x_max":858,"o":"m 183 0 l 183 633 l 83 633 l 83 736 l 183 736 l 183 803 q 231 935 183 885 q 378 986 278 986 l 494 986 l 494 883 l 386 883 q 322 860 343 883 q 300 794 300 836 l 300 736 l 485 736 l 485 633 l 300 633 l 300 0 l 183 0 m 776 0 q 672 33 713 0 q 632 139 632 67 l 632 986 l 749 986 l 749 149 q 794 103 749 103 l 858 103 l 858 0 l 776 0 z "},"ª":{"ha":557,"x_min":56,"x_max":515,"o":"m 217 522 q 100 555 144 522 q 56 647 56 588 q 94 745 56 710 q 206 794 133 781 l 360 825 q 337 896 360 872 q 274 919 314 919 q 213 901 235 919 q 183 850 190 883 l 64 856 q 131 969 76 929 q 274 1008 186 1008 q 425 959 374 1008 q 476 817 476 910 l 476 643 q 501 610 476 610 l 515 610 l 515 526 q 500 524 511 525 q 474 522 489 522 q 408 540 436 522 q 374 606 381 557 q 317 546 357 569 q 217 522 276 522 m 236 604 q 325 634 290 604 q 360 715 360 664 l 360 747 l 244 722 q 192 697 208 714 q 175 657 175 681 q 236 604 175 604 z "},"º":{"ha":582,"x_min":56,"x_max":526,"o":"m 292 522 q 119 588 183 522 q 56 765 56 654 q 119 942 56 876 q 292 1008 183 1008 q 463 942 399 1008 q 526 765 526 875 q 463 588 526 654 q 292 522 399 522 m 292 613 q 379 653 349 613 q 410 765 410 693 q 379 877 410 836 q 292 918 349 918 q 203 876 233 918 q 172 765 172 835 q 203 653 172 694 q 292 613 233 613 z "},"А":{"ha":928,"x_min":28,"x_max":900,"o":"m 28 0 l 383 986 l 544 986 l 900 0 l 769 0 l 671 281 l 257 281 l 158 0 l 28 0 m 297 397 l 631 397 l 464 882 l 297 397 z "},"Б":{"ha":917,"x_min":128,"x_max":831,"o":"m 128 0 l 128 986 l 785 986 l 785 869 l 247 869 l 247 603 l 482 603 q 739 522 647 603 q 831 299 831 442 q 739 79 831 158 q 482 0 647 0 l 128 0 m 247 117 l 482 117 q 706 299 706 117 q 482 486 706 486 l 247 486 l 247 117 z "},"В":{"ha":944,"x_min":128,"x_max":858,"o":"m 128 0 l 128 986 l 467 986 q 729 922 642 986 q 817 721 817 858 q 770 581 817 638 q 642 510 724 525 q 801 431 743 496 q 858 271 858 367 q 771 68 858 136 q 522 0 683 0 l 128 0 m 247 560 l 467 560 q 633 601 575 560 q 692 715 692 642 q 467 869 692 869 l 247 869 l 247 560 m 247 117 l 522 117 q 678 158 624 117 q 733 278 733 200 q 678 399 733 356 q 522 443 624 443 l 247 443 l 247 117 z "},"Г":{"ha":800,"x_min":128,"x_max":783,"o":"m 128 0 l 128 986 l 783 986 l 783 869 l 247 869 l 247 0 l 128 0 z "},"Ѓ":{"ha":800,"x_min":128,"x_max":783,"o":"m 128 0 l 128 986 l 783 986 l 783 869 l 247 869 l 247 0 l 128 0 m 404 1081 l 496 1258 l 626 1258 l 501 1081 l 404 1081 z "},"Ґ":{"ha":701,"x_min":128,"x_max":685,"o":"m 128 0 l 128 986 l 565 986 l 565 1201 l 685 1201 l 685 869 l 247 869 l 247 0 l 128 0 z "},"Ғ":{"ha":874,"x_min":100,"x_max":857,"o":"m 201 0 l 201 397 l 100 397 l 100 514 l 201 514 l 201 986 l 857 986 l 857 869 l 321 869 l 321 514 l 664 514 l 664 397 l 321 397 l 321 0 l 201 0 z "},"Д":{"ha":1117,"x_min":69,"x_max":1047,"o":"m 69 -208 l 69 117 l 126 117 q 207 161 179 117 q 244 300 235 206 l 317 986 l 925 986 l 925 117 l 1047 117 l 1047 -208 l 928 -208 l 928 0 l 189 0 l 189 -208 l 69 -208 m 308 117 l 806 117 l 806 869 l 426 869 l 364 286 q 308 117 351 176 z "},"Е":{"ha":838,"x_min":128,"x_max":758,"o":"m 128 0 l 128 986 l 747 986 l 747 869 l 247 869 l 247 551 l 731 551 l 731 438 l 247 438 l 247 117 l 758 117 l 758 0 l 128 0 z "},"Ѐ":{"ha":838,"x_min":128,"x_max":758,"o":"m 128 0 l 128 986 l 747 986 l 747 869 l 247 869 l 247 551 l 731 551 l 731 438 l 247 438 l 247 117 l 758 117 l 758 0 l 128 0 m 401 1088 l 276 1265 l 407 1265 l 499 1088 l 401 1088 z "},"Ё":{"ha":838,"x_min":128,"x_max":758,"o":"m 128 0 l 128 986 l 747 986 l 747 869 l 247 869 l 247 551 l 731 551 l 731 438 l 247 438 l 247 117 l 758 117 l 758 0 l 128 0 m 258 1101 l 258 1238 l 381 1238 l 381 1101 l 258 1101 m 500 1101 l 500 1238 l 622 1238 l 622 1101 l 500 1101 z "},"Ж":{"ha":1288,"x_min":21,"x_max":1267,"o":"m 21 0 l 432 493 l 35 986 l 197 986 l 585 506 l 585 986 l 704 986 l 704 506 l 1092 986 l 1253 986 l 856 493 l 1267 0 l 1106 0 l 704 482 l 704 0 l 585 0 l 585 482 l 183 0 l 21 0 z "},"З":{"ha":907,"x_min":69,"x_max":836,"o":"m 454 -22 q 260 13 346 -22 q 124 111 175 49 q 69 254 74 174 l 193 263 q 271 140 200 186 q 454 94 342 94 q 643 145 574 94 q 713 281 713 196 q 677 388 713 347 q 587 449 642 429 q 474 467 532 468 l 371 465 l 371 583 l 474 582 q 567 597 521 582 q 646 650 614 613 q 678 751 678 688 q 617 854 678 817 q 454 892 557 892 q 300 857 360 892 q 231 763 240 822 l 106 771 q 163 894 115 840 q 285 978 210 947 q 454 1008 361 1008 q 635 976 557 1008 q 758 885 714 943 q 803 751 803 828 q 622 533 803 586 q 781 435 725 503 q 836 271 836 367 q 788 119 836 185 q 653 15 739 53 q 454 -22 567 -22 z "},"И":{"ha":1025,"x_min":121,"x_max":897,"o":"m 897 0 l 778 0 l 778 850 l 299 0 l 121 0 l 121 986 l 240 986 l 240 119 l 728 986 l 897 986 l 897 0 z "},"Й":{"ha":1025,"x_min":121,"x_max":897,"o":"m 506 1088 q 368 1136 421 1088 q 311 1265 315 1185 l 392 1265 q 428 1196 399 1218 q 506 1174 458 1174 q 583 1196 554 1174 q 618 1265 613 1218 l 699 1265 q 643 1136 694 1185 q 506 1088 592 1088 m 897 0 l 778 0 l 778 850 l 299 0 l 121 0 l 121 986 l 240 986 l 240 119 l 728 986 l 897 986 l 897 0 z "},"Ѝ":{"ha":1025,"x_min":121,"x_max":897,"o":"m 446 1088 l 321 1265 l 451 1265 l 543 1088 l 446 1088 m 897 0 l 778 0 l 778 850 l 299 0 l 121 0 l 121 986 l 240 986 l 240 119 l 728 986 l 897 986 l 897 0 z "},"К":{"ha":886,"x_min":128,"x_max":865,"o":"m 128 0 l 128 986 l 247 986 l 247 504 l 689 986 l 851 986 l 400 493 l 865 0 l 703 0 l 247 483 l 247 0 l 128 0 z "},"Ќ":{"ha":886,"x_min":128,"x_max":865,"o":"m 128 0 l 128 986 l 247 986 l 247 504 l 689 986 l 851 986 l 400 493 l 865 0 l 703 0 l 247 483 l 247 0 l 128 0 m 415 1081 l 507 1258 l 638 1258 l 513 1081 l 415 1081 z "},"Л":{"ha":1063,"x_min":93,"x_max":935,"o":"m 93 0 l 93 117 l 174 117 q 231 144 211 117 q 256 218 251 172 l 319 986 l 935 986 l 935 0 l 815 0 l 815 869 l 432 869 l 376 204 q 326 56 369 111 q 192 0 283 0 l 93 0 z "},"М":{"ha":1218,"x_min":128,"x_max":1090,"o":"m 128 0 l 128 986 l 294 986 l 610 131 l 924 986 l 1090 986 l 1090 0 l 971 0 l 971 764 l 689 0 l 529 0 l 247 764 l 247 0 l 128 0 z "},"Н":{"ha":990,"x_min":128,"x_max":863,"o":"m 128 0 l 128 986 l 247 986 l 247 554 l 743 554 l 743 986 l 863 986 l 863 0 l 743 0 l 743 438 l 247 438 l 247 0 l 128 0 z "},"О":{"ha":1026,"x_min":63,"x_max":964,"o":"m 513 -22 q 272 40 372 -22 q 117 217 171 101 q 63 492 63 332 q 117 767 63 651 q 272 946 171 883 q 513 1008 372 1008 q 755 946 654 1008 q 910 767 856 883 q 964 492 964 651 q 910 217 964 332 q 755 40 856 101 q 513 -22 654 -22 m 513 94 q 752 199 665 94 q 839 492 839 304 q 752 785 839 679 q 513 892 665 892 q 274 785 361 892 q 188 492 188 679 q 274 199 188 304 q 513 94 361 94 z "},"П":{"ha":976,"x_min":128,"x_max":849,"o":"m 128 0 l 128 986 l 849 986 l 849 0 l 729 0 l 729 869 l 247 869 l 247 0 l 128 0 z "},"Р":{"ha":903,"x_min":128,"x_max":831,"o":"m 128 0 l 128 986 l 482 986 q 739 907 647 986 q 831 688 831 828 q 739 464 831 544 q 482 383 647 383 l 247 383 l 247 0 l 128 0 m 247 500 l 482 500 q 706 688 706 500 q 482 869 706 869 l 247 869 l 247 500 z "},"С":{"ha":968,"x_min":57,"x_max":915,"o":"m 500 -22 q 268 40 368 -22 q 113 217 168 101 q 57 492 57 332 q 113 767 57 651 q 268 946 168 883 q 500 1008 368 1008 q 778 918 679 1008 q 907 672 876 828 l 781 664 q 692 831 760 769 q 500 892 624 892 q 334 844 406 892 q 222 706 263 796 q 182 492 182 617 q 222 278 182 367 q 334 142 263 189 q 500 94 406 94 q 700 162 629 94 q 789 344 771 229 l 915 336 q 844 149 897 229 q 705 23 792 68 q 500 -22 618 -22 z "},"Т":{"ha":786,"x_min":0,"x_max":733,"o":"m 307 0 l 307 869 l 0 869 l 0 986 l 733 986 l 733 869 l 426 869 l 426 0 l 307 0 z "},"У":{"ha":750,"x_min":28,"x_max":722,"o":"m 117 0 l 117 117 l 229 117 q 300 168 282 117 l 338 264 l 297 264 l 28 986 l 157 986 l 378 375 l 593 986 l 722 986 l 408 115 q 244 0 368 0 l 117 0 z "},"Ў":{"ha":750,"x_min":28,"x_max":722,"o":"m 117 0 l 117 117 l 229 117 q 300 168 282 117 l 338 264 l 297 264 l 28 986 l 157 986 l 378 375 l 593 986 l 722 986 l 408 115 q 244 0 368 0 l 117 0 m 371 1088 q 233 1136 286 1088 q 176 1265 181 1185 l 257 1265 q 294 1196 264 1218 q 371 1174 324 1174 q 449 1196 419 1174 q 483 1265 478 1218 l 564 1265 q 508 1136 560 1185 q 371 1088 457 1088 z "},"Ф":{"ha":1154,"x_min":63,"x_max":1092,"o":"m 518 0 l 518 103 q 281 165 383 113 q 120 301 178 217 q 63 493 63 385 q 120 685 63 601 q 281 822 178 769 q 518 883 383 874 l 518 986 l 635 986 l 635 882 q 873 821 769 872 q 1034 685 976 769 q 1092 493 1092 600 q 1034 301 1092 386 q 873 165 976 217 q 635 104 769 114 l 635 0 l 518 0 m 188 493 q 276 305 188 378 q 518 221 365 232 l 518 765 q 276 681 365 754 q 188 493 188 608 m 967 493 q 878 681 967 608 q 635 765 789 753 l 635 221 q 878 306 789 233 q 967 493 967 378 z "},"Х":{"ha":842,"x_min":21,"x_max":821,"o":"m 21 0 l 344 494 l 24 986 l 165 986 l 422 589 l 676 986 l 815 986 l 494 497 l 821 0 l 679 0 l 419 403 l 160 0 l 21 0 z "},"Ц":{"ha":1069,"x_min":128,"x_max":969,"o":"m 850 -208 l 850 0 l 128 0 l 128 986 l 247 986 l 247 117 l 729 117 l 729 986 l 849 986 l 849 117 l 969 117 l 969 -208 l 850 -208 z "},"Ч":{"ha":906,"x_min":56,"x_max":778,"o":"m 658 0 l 658 471 q 553 369 626 408 q 383 331 479 331 q 140 417 225 331 q 56 650 56 503 l 56 986 l 175 986 l 175 650 q 228 502 175 557 q 383 447 281 447 q 527 474 465 447 q 624 546 589 500 q 658 651 658 592 l 658 986 l 778 986 l 778 0 l 658 0 z "},"Ш":{"ha":1275,"x_min":128,"x_max":1147,"o":"m 128 0 l 128 986 l 247 986 l 247 117 l 578 117 l 578 986 l 699 986 l 699 117 l 1028 117 l 1028 986 l 1147 986 l 1147 0 l 128 0 z "},"Щ":{"ha":1368,"x_min":128,"x_max":1268,"o":"m 128 0 l 128 986 l 247 986 l 247 117 l 578 117 l 578 986 l 699 986 l 699 117 l 1028 117 l 1028 986 l 1147 986 l 1147 117 l 1268 117 l 1268 -208 l 1149 -208 l 1149 0 l 128 0 z "},"Џ":{"ha":976,"x_min":128,"x_max":849,"o":"m 429 -208 l 429 0 l 128 0 l 128 986 l 247 986 l 247 117 l 729 117 l 729 986 l 849 986 l 849 0 l 549 0 l 549 -208 l 429 -208 z "},"Ь":{"ha":917,"x_min":128,"x_max":831,"o":"m 128 986 l 247 986 l 247 603 l 482 603 q 739 522 647 603 q 831 299 831 442 q 739 79 831 158 q 482 0 647 0 l 128 0 l 128 986 m 247 486 l 247 117 l 482 117 q 706 299 706 117 q 482 486 706 486 l 247 486 z "},"Ы":{"ha":1188,"x_min":128,"x_max":1060,"o":"m 940 0 l 940 986 l 1060 986 l 1060 0 l 940 0 m 128 986 l 247 986 l 247 603 l 482 603 q 739 522 647 603 q 831 299 831 442 q 739 79 831 158 q 482 0 647 0 l 128 0 l 128 986 m 247 486 l 247 117 l 482 117 q 706 299 706 117 q 482 486 706 486 l 247 486 z "},"Ъ":{"ha":1026,"x_min":100,"x_max":954,"o":"m 100 869 l 100 986 l 371 986 l 371 603 l 606 603 q 863 522 771 603 q 954 299 954 442 q 863 79 954 158 q 606 0 771 0 l 251 0 l 251 869 l 100 869 m 371 486 l 371 117 l 606 117 q 829 299 829 117 q 606 486 829 486 l 371 486 z "},"Љ":{"ha":1563,"x_min":93,"x_max":1476,"o":"m 93 0 l 93 117 l 174 117 q 231 144 211 117 q 256 218 251 172 l 319 986 l 935 986 l 935 603 l 1128 603 q 1385 522 1293 603 q 1476 299 1476 442 q 1385 79 1476 158 q 1128 0 1293 0 l 774 0 l 774 869 l 432 869 l 376 204 q 326 56 369 111 q 192 0 283 0 l 93 0 m 1128 486 l 935 486 l 935 117 l 1128 117 q 1351 299 1351 117 q 1128 486 1351 486 z "},"Њ":{"ha":1518,"x_min":128,"x_max":1432,"o":"m 128 0 l 128 986 l 247 986 l 247 603 l 729 603 l 729 986 l 849 986 l 849 603 l 1083 603 q 1340 522 1249 603 q 1432 299 1432 442 q 1340 79 1432 158 q 1083 0 1249 0 l 729 0 l 729 486 l 247 486 l 247 0 l 128 0 m 849 486 l 849 117 l 1083 117 q 1307 299 1307 117 q 1083 486 1307 486 l 849 486 z "},"Ѕ":{"ha":889,"x_min":76,"x_max":813,"o":"m 467 -22 q 268 21 353 -22 q 134 140 183 64 q 76 315 85 215 l 201 324 q 284 154 217 214 q 469 94 351 94 q 630 134 572 94 q 688 250 688 174 q 666 331 688 296 q 584 397 644 367 q 406 456 524 426 q 224 519 292 485 q 127 604 157 554 q 97 728 97 654 q 137 874 97 811 q 250 973 176 938 q 425 1008 324 1008 q 611 967 533 1008 q 735 856 689 926 q 792 694 781 785 l 667 686 q 594 834 654 776 q 422 892 533 892 q 276 848 331 892 q 222 733 222 804 q 244 658 222 688 q 321 605 265 628 q 481 556 376 582 q 677 483 604 525 q 781 385 750 440 q 813 258 813 329 q 768 109 813 172 q 646 12 724 46 q 467 -22 568 -22 z "},"Є":{"ha":1024,"x_min":79,"x_max":967,"o":"m 531 -22 q 289 40 390 -22 q 133 218 188 103 q 79 492 79 333 q 133 768 79 653 q 289 946 188 883 q 531 1008 390 1008 q 820 911 707 1008 q 967 640 933 814 l 839 640 q 729 826 808 760 q 531 892 650 892 q 305 801 390 892 q 207 550 219 710 l 613 550 l 613 433 l 207 433 q 306 185 221 275 q 531 94 390 94 q 729 160 650 94 q 839 344 808 226 l 967 344 q 820 75 933 172 q 531 -22 707 -22 z "},"Э":{"ha":1013,"x_min":63,"x_max":950,"o":"m 499 -22 q 209 75 322 -22 q 63 344 96 172 l 190 344 q 301 160 221 226 q 499 94 381 94 q 724 185 639 94 q 822 433 808 275 l 417 433 l 417 550 l 822 550 q 724 801 810 710 q 499 892 639 892 q 301 826 381 892 q 190 640 221 760 l 63 640 q 209 911 96 814 q 499 1008 322 1008 q 741 946 640 1008 q 896 768 842 883 q 950 492 950 653 q 896 218 950 333 q 741 40 842 103 q 499 -22 640 -22 z "},"І":{"ha":381,"x_min":133,"x_max":253,"o":"m 133 0 l 133 986 l 253 986 l 253 0 l 133 0 z "},"Ї":{"ha":375,"x_min":14,"x_max":378,"o":"m 124 0 l 124 986 l 243 986 l 243 0 l 124 0 m 14 1101 l 14 1238 l 136 1238 l 136 1101 l 14 1101 m 256 1101 l 256 1238 l 378 1238 l 378 1101 l 256 1101 z "},"Ј":{"ha":829,"x_min":93,"x_max":722,"o":"m 407 -22 q 244 22 315 -22 q 134 143 174 65 q 93 322 94 221 l 215 331 q 267 156 217 217 q 407 94 317 94 q 552 160 501 94 q 603 344 603 225 l 603 986 l 722 986 l 722 344 q 683 149 722 232 q 574 22 644 67 q 407 -22 504 -22 z "},"Ћ":{"ha":1064,"x_min":17,"x_max":1008,"o":"m 17 869 l 17 986 l 703 986 l 703 869 l 406 869 l 406 515 q 511 617 438 578 q 681 656 585 656 q 924 569 839 656 q 1008 336 1008 483 l 1008 0 l 889 0 l 889 336 q 836 485 889 431 q 681 539 783 539 q 538 513 600 539 q 440 440 475 486 q 406 335 406 394 l 406 0 l 286 0 l 286 869 l 17 869 z "},"Ю":{"ha":1369,"x_min":128,"x_max":1307,"o":"m 128 0 l 128 986 l 247 986 l 247 551 l 407 551 q 474 796 418 693 q 627 953 531 899 q 856 1008 724 1008 q 1098 946 997 1008 q 1253 767 1199 883 q 1307 492 1307 651 q 1253 217 1307 332 q 1098 40 1199 101 q 856 -22 997 -22 q 540 99 658 -22 q 407 435 422 221 l 247 435 l 247 0 l 128 0 m 856 94 q 1095 199 1008 94 q 1182 492 1182 304 q 1095 785 1182 679 q 856 892 1008 892 q 617 785 704 892 q 531 492 531 679 q 617 199 531 304 q 856 94 704 94 z "},"Я":{"ha":942,"x_min":86,"x_max":814,"o":"m 814 0 l 694 0 l 694 397 l 444 397 l 218 0 l 86 0 l 322 415 q 166 514 221 443 q 111 688 111 585 q 203 907 111 828 q 460 986 296 986 l 814 986 l 814 0 m 694 514 l 694 869 l 460 869 q 294 823 351 869 q 236 690 236 776 q 294 560 236 606 q 460 514 351 514 l 694 514 z "},"Ђ":{"ha":1064,"x_min":17,"x_max":1008,"o":"m 286 0 l 286 869 l 17 869 l 17 986 l 703 986 l 703 869 l 406 869 l 406 515 q 511 617 438 578 q 681 656 585 656 q 851 615 778 656 q 967 501 925 574 q 1008 332 1008 428 q 960 156 1008 231 q 822 40 911 81 q 611 0 733 0 l 611 117 q 811 175 739 117 q 883 332 883 233 q 829 483 883 428 q 681 539 775 539 q 538 513 600 539 q 440 440 475 486 q 406 335 406 394 l 406 0 l 286 0 z "},"Ѣ":{"ha":1036,"x_min":86,"x_max":950,"o":"m 86 736 l 86 853 l 247 853 l 247 986 l 367 986 l 367 853 l 529 853 l 529 736 l 367 736 l 367 603 l 601 603 q 858 522 767 603 q 950 299 950 442 q 858 79 950 158 q 601 0 767 0 l 247 0 l 247 736 l 86 736 m 367 486 l 367 117 l 601 117 q 825 299 825 117 q 601 486 825 486 l 367 486 z "},"Ѫ":{"ha":947,"x_min":21,"x_max":926,"o":"m 21 0 l 178 401 q 249 507 206 474 q 338 540 292 540 l 117 869 l 117 986 l 832 986 l 832 869 l 611 540 q 701 504 660 538 q 768 401 742 471 l 926 0 l 793 0 l 660 344 q 624 407 643 390 q 576 424 604 424 l 535 424 l 535 0 l 414 0 l 414 424 l 371 424 q 324 407 343 424 q 286 344 304 390 l 154 0 l 21 0 m 258 869 l 475 547 l 690 869 l 258 869 z "},"Ѳ":{"ha":1026,"x_min":63,"x_max":964,"o":"m 513 -22 q 272 40 372 -22 q 117 217 171 101 q 63 492 63 332 q 117 767 63 651 q 272 946 171 883 q 513 1008 372 1008 q 755 946 654 1008 q 910 767 856 883 q 964 492 964 651 q 910 217 964 332 q 755 40 856 101 q 513 -22 654 -22 m 488 569 q 589 532 550 546 q 653 512 628 518 q 697 505 678 506 q 740 507 717 504 q 791 517 767 510 q 838 535 815 524 q 742 797 828 703 q 513 892 657 892 q 295 809 379 892 q 193 576 211 726 q 288 599 236 594 q 388 596 332 604 q 488 569 443 588 m 513 94 q 731 176 647 94 q 833 407 815 258 q 753 388 794 393 q 697 388 724 385 q 625 404 669 390 q 497 449 581 418 q 395 476 449 468 q 301 481 342 485 q 189 444 238 474 q 285 186 200 278 q 513 94 371 94 z "},"Ѵ":{"ha":1003,"x_min":28,"x_max":975,"o":"m 385 0 l 28 986 l 158 986 l 464 133 l 703 807 q 790 938 732 889 q 917 986 847 986 l 975 986 l 975 869 l 951 869 q 869 842 900 869 q 811 742 839 814 l 542 0 l 385 0 z "},"Җ":{"ha":1331,"x_min":21,"x_max":1317,"o":"m 21 0 l 432 493 l 35 986 l 197 986 l 585 506 l 585 986 l 704 986 l 704 506 l 1092 986 l 1253 986 l 856 493 l 1197 83 l 1197 97 l 1317 97 l 1317 -208 l 1197 -208 l 1197 0 l 1106 0 l 704 482 l 704 0 l 585 0 l 585 482 l 183 0 l 21 0 z "},"Қ":{"ha":907,"x_min":128,"x_max":886,"o":"m 128 0 l 128 986 l 247 986 l 247 504 l 689 986 l 851 986 l 400 493 l 774 97 l 886 97 l 886 -208 l 767 -208 l 767 0 l 703 0 l 247 483 l 247 0 l 128 0 z "},"Ң":{"ha":1042,"x_min":128,"x_max":942,"o":"m 128 0 l 128 986 l 247 986 l 247 554 l 743 554 l 743 986 l 863 986 l 863 97 l 942 97 l 942 -208 l 822 -208 l 822 0 l 743 0 l 743 438 l 247 438 l 247 0 l 128 0 z "},"Ү":{"ha":800,"x_min":-8,"x_max":808,"o":"m 340 0 l 340 403 l -8 986 l 133 986 l 400 525 l 667 986 l 808 986 l 460 403 l 460 0 l 340 0 z "},"Ұ":{"ha":888,"x_min":4,"x_max":821,"o":"m 353 0 l 353 318 l 156 318 l 156 435 l 333 435 l 4 986 l 146 986 l 413 525 l 679 986 l 821 986 l 492 435 l 744 435 l 744 318 l 472 318 l 472 0 l 353 0 z "},"Ҳ":{"ha":907,"x_min":21,"x_max":886,"o":"m 21 0 l 344 494 l 24 986 l 165 986 l 422 589 l 676 986 l 815 986 l 494 497 l 767 82 l 767 97 l 886 97 l 886 -208 l 767 -208 l 767 0 l 679 0 l 419 403 l 160 0 l 21 0 z "},"Ҷ":{"ha":979,"x_min":56,"x_max":879,"o":"m 658 0 l 658 471 q 553 369 626 408 q 383 331 479 331 q 140 417 225 331 q 56 650 56 503 l 56 986 l 175 986 l 175 650 q 228 502 175 557 q 383 447 281 447 q 527 474 465 447 q 624 546 589 500 q 658 651 658 592 l 658 986 l 778 986 l 778 97 l 879 97 l 879 -208 l 760 -208 l 760 0 l 658 0 z "},"Һ":{"ha":906,"x_min":128,"x_max":850,"o":"m 247 986 l 247 515 q 353 617 279 578 q 522 656 426 656 q 765 569 681 656 q 850 336 850 483 l 850 0 l 731 0 l 731 336 q 678 485 731 431 q 522 539 625 539 q 379 513 442 539 q 282 440 317 486 q 247 335 247 394 l 247 0 l 128 0 l 128 986 l 247 986 z "},"Ӏ":{"ha":375,"x_min":128,"x_max":247,"o":"m 128 0 l 128 986 l 247 986 l 247 0 l 128 0 z "},"Ә":{"ha":990,"x_min":63,"x_max":928,"o":"m 928 493 q 871 215 928 331 q 714 39 814 100 q 483 -22 614 -22 q 327 9 403 -22 q 192 102 251 40 q 97 257 132 164 q 63 472 63 350 l 63 542 l 801 542 q 751 732 796 654 q 637 851 707 810 q 483 892 567 892 q 327 843 396 892 q 219 696 258 794 l 93 708 q 240 928 136 847 q 483 1008 344 1008 q 719 945 619 1008 q 874 766 819 882 q 928 493 928 650 m 483 94 q 636 132 567 94 q 749 243 706 169 q 801 425 793 317 l 190 425 q 286 180 210 265 q 483 94 363 94 z "},"Ӣ":{"ha":1025,"x_min":121,"x_max":897,"o":"m 897 0 l 778 0 l 778 850 l 299 0 l 121 0 l 121 986 l 240 986 l 240 119 l 728 986 l 897 986 l 897 0 m 303 1118 l 303 1218 l 675 1218 l 675 1118 l 303 1118 z "},"Ө":{"ha":1026,"x_min":63,"x_max":964,"o":"m 513 -22 q 272 40 372 -22 q 117 217 171 101 q 63 492 63 332 q 117 767 63 651 q 272 946 171 883 q 513 1008 372 1008 q 755 946 654 1008 q 910 767 856 883 q 964 492 964 651 q 910 217 964 332 q 755 40 856 101 q 513 -22 654 -22 m 513 892 q 289 802 374 892 q 190 551 204 713 l 836 551 q 738 802 822 713 q 513 892 653 892 m 513 94 q 739 184 654 94 q 836 435 824 274 l 190 435 q 288 184 203 274 q 513 94 372 94 z "},"Ӯ":{"ha":750,"x_min":28,"x_max":722,"o":"m 117 0 l 117 117 l 229 117 q 300 168 282 117 l 338 264 l 297 264 l 28 986 l 157 986 l 378 375 l 593 986 l 722 986 l 408 115 q 244 0 368 0 l 117 0 m 189 1118 l 189 1218 l 561 1218 l 561 1118 l 189 1118 z "},"а":{"ha":765,"x_min":61,"x_max":739,"o":"m 310 -17 q 128 36 196 -17 q 61 183 61 89 q 117 332 61 278 q 293 408 172 386 l 554 457 q 379 642 554 642 q 258 608 303 642 q 197 510 214 574 l 74 519 q 174 688 94 624 q 379 753 254 753 q 596 673 521 753 q 671 453 671 593 l 671 149 q 710 103 671 103 l 739 103 l 739 0 q 694 -3 722 -3 q 595 24 628 -3 q 556 114 563 51 q 460 20 528 57 q 310 -17 392 -17 m 321 86 q 493 149 432 86 q 554 303 554 211 l 554 356 l 315 311 q 212 269 240 297 q 183 194 183 240 q 220 115 183 143 q 321 86 257 86 z "},"б":{"ha":824,"x_min":63,"x_max":761,"o":"m 413 -22 q 285 3 349 -22 q 168 85 221 28 q 89 229 115 138 q 63 435 63 321 q 88 658 63 569 q 169 805 113 747 q 317 901 225 863 q 413 965 388 933 q 439 1056 439 996 l 558 1057 q 525 917 558 976 q 406 817 492 857 q 322 776 361 796 q 253 726 283 756 q 206 651 224 697 q 183 529 188 604 q 288 635 224 597 q 433 672 353 672 q 606 628 532 672 q 720 507 679 585 q 761 328 761 429 q 717 142 761 221 q 594 20 672 63 q 413 -22 515 -22 m 415 89 q 531 119 481 89 q 610 204 582 150 q 639 328 639 258 q 612 449 639 396 q 536 531 585 501 q 425 561 488 561 q 304 531 357 561 q 222 449 251 501 q 190 328 192 396 q 217 204 189 258 q 297 119 246 150 q 415 89 349 89 z "},"в":{"ha":822,"x_min":111,"x_max":725,"o":"m 111 0 l 111 736 l 417 736 q 619 681 544 736 q 694 532 694 626 q 653 431 694 471 q 538 381 611 390 q 675 325 625 371 q 725 208 725 279 q 653 56 725 113 q 457 0 581 0 l 111 0 m 228 425 l 417 425 q 528 454 486 425 q 569 532 569 483 q 528 606 569 579 q 417 633 486 633 l 228 633 l 228 425 m 228 103 l 457 103 q 561 132 522 103 q 600 208 600 161 q 561 292 600 261 q 457 322 522 322 l 228 322 l 228 103 z "},"г":{"ha":674,"x_min":111,"x_max":626,"o":"m 111 0 l 111 736 l 626 736 l 626 633 l 228 633 l 228 0 l 111 0 z "},"ѓ":{"ha":674,"x_min":111,"x_max":626,"o":"m 111 0 l 111 736 l 626 736 l 626 633 l 228 633 l 228 0 l 111 0 m 317 831 l 408 1008 l 539 1008 l 414 831 l 317 831 z "},"ґ":{"ha":599,"x_min":111,"x_max":568,"o":"m 111 0 l 111 736 l 449 736 l 449 951 l 568 951 l 568 633 l 228 633 l 228 0 l 111 0 z "},"ғ":{"ha":742,"x_min":83,"x_max":681,"o":"m 165 0 l 165 322 l 83 322 l 83 425 l 165 425 l 165 736 l 681 736 l 681 633 l 282 633 l 282 425 l 508 425 l 508 322 l 282 322 l 282 0 l 165 0 z "},"д":{"ha":957,"x_min":56,"x_max":901,"o":"m 56 -208 l 56 103 l 121 103 q 224 236 206 103 l 290 736 l 782 736 l 782 103 l 901 103 l 901 -208 l 785 -208 l 785 0 l 172 0 l 172 -208 l 56 -208 m 338 225 q 293 103 326 147 l 665 103 l 665 633 l 396 633 l 338 225 z "},"е":{"ha":779,"x_min":61,"x_max":718,"o":"m 399 -17 q 219 31 294 -17 q 102 165 143 78 q 61 368 61 251 q 102 571 61 485 q 217 705 143 657 q 393 753 292 753 q 563 708 489 753 q 677 576 636 663 q 718 367 718 490 l 718 332 l 183 332 q 247 154 190 214 q 399 94 303 94 q 517 128 471 94 q 582 218 564 163 l 707 208 q 597 47 678 110 q 399 -17 515 -17 m 183 435 l 590 435 q 528 592 582 542 q 393 642 475 642 q 253 590 308 642 q 183 435 199 538 z "},"ѐ":{"ha":779,"x_min":61,"x_max":718,"o":"m 399 -17 q 219 31 294 -17 q 102 165 143 78 q 61 368 61 251 q 102 571 61 485 q 217 705 143 657 q 393 753 292 753 q 563 708 489 753 q 677 576 636 663 q 718 367 718 490 l 718 332 l 183 332 q 247 154 190 214 q 399 94 303 94 q 517 128 471 94 q 582 218 564 163 l 707 208 q 597 47 678 110 q 399 -17 515 -17 m 183 435 l 590 435 q 528 592 582 542 q 393 642 475 642 q 253 590 308 642 q 183 435 199 538 m 356 835 l 231 1013 l 361 1013 l 453 835 l 356 835 z "},"ё":{"ha":779,"x_min":61,"x_max":718,"o":"m 399 -17 q 219 31 294 -17 q 102 165 143 78 q 61 368 61 251 q 102 571 61 485 q 217 705 143 657 q 393 753 292 753 q 563 708 489 753 q 677 576 636 663 q 718 367 718 490 l 718 332 l 183 332 q 247 154 190 214 q 399 94 303 94 q 517 128 471 94 q 582 218 564 163 l 707 208 q 597 47 678 110 q 399 -17 515 -17 m 183 435 l 590 435 q 528 592 582 542 q 393 642 475 642 q 253 590 308 642 q 183 435 199 538 m 217 849 l 217 985 l 339 985 l 339 849 l 217 849 m 458 849 l 458 985 l 581 985 l 581 849 l 458 849 z "},"ж":{"ha":1194,"x_min":65,"x_max":1129,"o":"m 65 0 l 392 368 l 79 736 l 236 736 l 540 378 l 540 736 l 657 736 l 657 378 l 961 736 l 1115 736 l 803 368 l 1129 0 l 975 0 l 657 358 l 657 0 l 540 0 l 540 358 l 222 0 l 65 0 z "},"з":{"ha":743,"x_min":69,"x_max":674,"o":"m 372 -17 q 156 44 238 -17 q 69 206 75 104 l 192 211 q 244 126 196 158 q 372 94 293 94 q 503 125 454 94 q 551 207 551 156 q 506 302 551 268 q 386 335 461 336 l 310 333 l 310 444 l 386 443 q 488 470 450 442 q 526 546 526 499 q 485 616 526 590 q 372 642 443 642 q 268 618 308 642 q 222 554 228 594 l 96 561 q 181 701 107 650 q 372 753 256 753 q 574 697 500 753 q 649 546 649 642 q 609 454 649 494 q 501 396 569 414 q 628 321 582 372 q 674 200 674 269 q 592 42 674 100 q 372 -17 511 -17 z "},"и":{"ha":796,"x_min":111,"x_max":685,"o":"m 111 0 l 111 736 l 228 736 l 228 178 l 547 736 l 685 736 l 685 0 l 568 0 l 568 547 l 256 0 l 111 0 z "},"й":{"ha":796,"x_min":111,"x_max":685,"o":"m 111 0 l 111 736 l 228 736 l 228 178 l 547 736 l 685 736 l 685 0 l 568 0 l 568 547 l 256 0 l 111 0 m 392 838 q 254 886 307 838 q 197 1015 201 935 l 278 1015 q 315 946 285 968 q 392 924 344 924 q 469 946 440 924 q 504 1015 499 968 l 585 1015 q 529 886 581 935 q 392 838 478 838 z "},"ѝ":{"ha":796,"x_min":111,"x_max":685,"o":"m 111 0 l 111 736 l 228 736 l 228 178 l 547 736 l 685 736 l 685 0 l 568 0 l 568 547 l 256 0 l 111 0 m 350 838 l 225 1015 l 356 1015 l 447 838 l 350 838 z "},"к":{"ha":822,"x_min":111,"x_max":757,"o":"m 111 0 l 111 736 l 231 736 l 231 378 l 576 736 l 740 736 l 378 368 l 757 0 l 590 0 l 231 358 l 231 0 l 111 0 z "},"ќ":{"ha":822,"x_min":111,"x_max":757,"o":"m 111 0 l 111 736 l 231 736 l 231 378 l 576 736 l 740 736 l 378 368 l 757 0 l 590 0 l 231 358 l 231 0 l 111 0 m 351 831 l 443 1008 l 574 1008 l 449 831 l 351 831 z "},"л":{"ha":938,"x_min":83,"x_max":826,"o":"m 83 0 l 83 117 l 151 117 q 232 217 221 117 l 288 736 l 826 736 l 826 0 l 710 0 l 710 633 l 394 633 l 349 204 q 168 0 328 0 l 83 0 z "},"м":{"ha":997,"x_min":111,"x_max":886,"o":"m 111 0 l 111 736 l 272 736 l 500 122 l 726 736 l 886 736 l 886 0 l 769 0 l 769 519 l 572 0 l 426 0 l 228 519 l 228 0 l 111 0 z "},"н":{"ha":803,"x_min":111,"x_max":692,"o":"m 111 0 l 111 736 l 228 736 l 228 418 l 575 418 l 575 736 l 692 736 l 692 0 l 575 0 l 575 315 l 228 315 l 228 0 l 111 0 z "},"о":{"ha":796,"x_min":61,"x_max":735,"o":"m 399 -17 q 221 31 297 -17 q 103 165 144 78 q 61 368 61 251 q 103 572 61 486 q 221 706 144 658 q 399 753 297 753 q 576 706 500 753 q 693 572 651 658 q 735 368 735 486 q 693 165 735 251 q 576 31 651 78 q 399 -17 500 -17 m 399 94 q 556 167 500 94 q 613 368 613 240 q 556 569 613 496 q 399 642 500 642 q 240 569 297 642 q 183 368 183 496 q 240 167 183 240 q 399 94 297 94 z "},"п":{"ha":804,"x_min":111,"x_max":693,"o":"m 111 0 l 111 736 l 693 736 l 693 0 l 576 0 l 576 633 l 228 633 l 228 0 l 111 0 z "},"р":{"ha":826,"x_min":111,"x_max":765,"o":"m 111 -208 l 111 736 l 219 736 l 221 624 q 313 720 254 688 q 447 753 372 753 q 627 699 557 753 q 731 557 697 644 q 765 368 765 469 q 731 179 765 267 q 627 38 697 92 q 447 -17 557 -17 q 316 14 375 -17 q 228 97 257 44 l 228 -208 l 111 -208 m 436 94 q 588 167 532 94 q 643 368 643 239 q 588 569 643 497 q 436 642 532 642 q 284 573 340 642 q 228 368 228 504 q 283 164 228 233 q 436 94 339 94 z "},"с":{"ha":758,"x_min":61,"x_max":711,"o":"m 399 -17 q 220 31 296 -17 q 103 165 144 78 q 61 368 61 251 q 103 571 61 485 q 220 705 144 657 q 399 753 296 753 q 610 687 526 753 q 711 497 693 621 l 589 489 q 525 602 576 563 q 399 642 474 642 q 240 569 297 642 q 183 368 183 496 q 240 167 183 240 q 399 94 297 94 q 525 136 474 94 q 589 261 576 178 l 711 253 q 610 57 693 131 q 399 -17 526 -17 z "},"т":{"ha":775,"x_min":65,"x_max":714,"o":"m 331 0 l 331 633 l 65 633 l 65 736 l 714 736 l 714 633 l 449 633 l 449 0 l 331 0 z "},"у":{"ha":746,"x_min":31,"x_max":715,"o":"m 143 -208 l 143 -106 l 228 -106 q 285 -94 267 -106 q 314 -56 304 -82 l 340 14 l 300 14 l 31 736 l 158 736 l 378 122 l 588 736 l 715 736 l 417 -93 q 354 -181 396 -153 q 239 -208 313 -208 l 143 -208 z "},"ў":{"ha":746,"x_min":31,"x_max":715,"o":"m 143 -208 l 143 -106 l 228 -106 q 285 -94 267 -106 q 314 -56 304 -82 l 340 14 l 300 14 l 31 736 l 158 736 l 378 122 l 588 736 l 715 736 l 417 -93 q 354 -181 396 -153 q 239 -208 313 -208 l 143 -208 m 368 838 q 231 886 283 838 q 174 1015 178 935 l 254 1015 q 291 946 261 968 q 368 924 321 924 q 446 946 417 924 q 481 1015 475 968 l 561 1015 q 506 886 557 935 q 368 838 454 838 z "},"ф":{"ha":890,"x_min":61,"x_max":829,"o":"m 388 -208 l 388 38 q 217 94 290 49 q 102 210 143 139 q 61 372 61 282 q 102 534 61 463 q 217 651 143 606 q 388 707 290 696 l 388 986 l 506 986 l 506 706 q 675 649 603 694 q 788 533 747 604 q 829 372 829 463 q 788 211 829 282 q 675 95 747 140 q 506 39 603 50 l 506 -208 l 388 -208 m 186 372 q 240 226 186 283 q 388 156 294 169 l 388 589 q 240 518 294 575 q 186 372 186 461 m 704 372 q 651 517 704 460 q 506 589 599 574 l 506 156 q 651 228 599 171 q 704 372 704 285 z "},"х":{"ha":813,"x_min":65,"x_max":747,"o":"m 65 0 l 336 378 l 79 736 l 215 736 l 408 458 l 596 736 l 735 736 l 481 375 l 747 0 l 611 0 l 408 297 l 204 0 l 65 0 z "},"ц":{"ha":908,"x_min":111,"x_max":811,"o":"m 694 -208 l 694 0 l 111 0 l 111 736 l 228 736 l 228 103 l 576 103 l 576 736 l 693 736 l 693 103 l 811 103 l 811 -208 l 694 -208 z "},"ч":{"ha":835,"x_min":111,"x_max":724,"o":"m 607 0 l 607 357 q 524 258 582 296 q 390 219 465 219 q 187 306 263 219 q 111 539 111 392 l 111 736 l 228 736 l 228 539 q 272 387 228 443 q 390 331 317 331 q 549 387 490 331 q 607 540 607 443 l 607 736 l 724 736 l 724 0 l 607 0 z "},"ш":{"ha":1103,"x_min":111,"x_max":992,"o":"m 111 0 l 111 736 l 228 736 l 228 103 l 493 103 l 493 736 l 611 736 l 611 103 l 875 103 l 875 736 l 992 736 l 992 0 l 111 0 z "},"щ":{"ha":1200,"x_min":111,"x_max":1117,"o":"m 111 0 l 111 736 l 228 736 l 228 103 l 493 103 l 493 736 l 611 736 l 611 103 l 875 103 l 875 736 l 992 736 l 992 103 l 1117 103 l 1117 -208 l 1000 -208 l 1000 0 l 111 0 z "},"џ":{"ha":804,"x_min":111,"x_max":693,"o":"m 343 -208 l 343 0 l 111 0 l 111 736 l 228 736 l 228 103 l 576 103 l 576 736 l 693 736 l 693 0 l 460 0 l 460 -208 l 343 -208 z "},"ь":{"ha":806,"x_min":111,"x_max":744,"o":"m 111 0 l 111 736 l 228 736 l 228 465 l 422 465 q 661 405 578 465 q 744 232 744 344 q 661 60 744 121 q 422 0 578 0 l 111 0 m 228 104 l 422 104 q 622 232 622 104 q 422 363 622 363 l 228 363 l 228 104 z "},"ы":{"ha":1103,"x_min":111,"x_max":992,"o":"m 875 0 l 875 736 l 992 736 l 992 0 l 875 0 m 111 0 l 111 736 l 228 736 l 228 465 l 422 465 q 661 405 578 465 q 744 232 744 344 q 661 60 744 121 q 422 0 578 0 l 111 0 m 228 104 l 422 104 q 622 232 622 104 q 422 363 622 363 l 228 363 l 228 104 z "},"ъ":{"ha":896,"x_min":83,"x_max":835,"o":"m 201 0 l 201 633 l 83 633 l 83 736 l 318 736 l 318 465 l 513 465 q 751 405 668 465 q 835 232 835 344 q 751 60 835 121 q 513 0 668 0 l 201 0 m 318 104 l 513 104 q 713 232 713 104 q 513 363 713 363 l 318 363 l 318 104 z "},"љ":{"ha":1404,"x_min":83,"x_max":1343,"o":"m 710 0 l 710 736 l 826 736 l 826 465 l 1021 465 q 1260 405 1176 465 q 1343 232 1343 344 q 1260 60 1343 121 q 1021 0 1176 0 l 710 0 m 826 104 l 1021 104 q 1221 232 1221 104 q 1021 363 1221 363 l 826 363 l 826 104 m 83 0 l 83 117 l 151 117 q 232 217 221 117 l 288 736 l 826 736 l 826 0 l 710 0 l 710 633 l 394 633 l 349 204 q 168 0 328 0 l 83 0 z "},"њ":{"ha":1269,"x_min":111,"x_max":1208,"o":"m 111 0 l 111 736 l 228 736 l 228 465 l 575 465 l 575 736 l 692 736 l 692 465 l 886 465 q 1125 405 1042 465 q 1208 232 1208 344 q 1125 60 1208 121 q 886 0 1042 0 l 575 0 l 575 363 l 228 363 l 228 0 l 111 0 m 692 104 l 886 104 q 1086 232 1086 104 q 886 363 1086 363 l 692 363 l 692 104 z "},"ѕ":{"ha":728,"x_min":61,"x_max":667,"o":"m 379 -17 q 151 53 232 -17 q 61 232 69 124 l 183 240 q 240 134 194 174 q 379 94 286 94 q 499 119 454 94 q 544 197 544 143 q 531 246 544 226 q 476 280 517 265 q 357 308 436 294 q 191 356 251 328 q 105 427 131 385 q 79 528 79 469 q 151 690 79 626 q 357 753 224 753 q 509 720 447 753 q 606 634 571 688 q 653 517 642 581 l 531 508 q 474 604 518 567 q 356 642 431 642 q 239 611 276 642 q 201 533 201 581 q 242 453 201 479 q 379 411 282 428 q 554 364 492 392 q 642 296 617 336 q 667 197 667 256 q 628 81 667 129 q 526 8 590 33 q 379 -17 461 -17 z "},"є":{"ha":785,"x_min":61,"x_max":724,"o":"m 399 -17 q 221 31 297 -17 q 103 165 144 78 q 61 368 61 251 q 103 572 61 486 q 221 706 144 658 q 399 753 297 753 q 611 680 525 753 q 724 479 697 607 l 599 479 q 526 599 578 557 q 399 642 475 642 q 252 583 307 642 q 186 419 197 525 l 432 419 l 432 317 l 186 317 q 252 153 197 211 q 399 94 307 94 q 525 136 474 94 q 597 253 576 178 l 722 253 q 610 55 696 126 q 399 -17 524 -17 z "},"э":{"ha":785,"x_min":61,"x_max":724,"o":"m 386 -17 q 176 55 261 -17 q 63 253 90 126 l 188 253 q 260 136 208 178 q 386 94 311 94 q 533 153 478 94 q 599 317 588 211 l 353 317 l 353 419 l 599 419 q 533 583 588 525 q 386 642 478 642 q 258 599 310 642 q 186 479 207 557 l 61 479 q 174 680 89 607 q 386 753 260 753 q 565 706 489 753 q 682 572 640 658 q 724 368 724 486 q 682 165 724 251 q 565 31 640 78 q 386 -17 489 -17 z "},"і":{"ha":339,"x_min":108,"x_max":231,"o":"m 111 0 l 111 736 l 228 736 l 228 0 l 111 0 m 108 851 l 108 988 l 231 988 l 231 851 l 108 851 z "},"ї":{"ha":339,"x_min":-12,"x_max":351,"o":"m 111 0 l 111 736 l 228 736 l 228 0 l 111 0 m -12 851 l -12 988 l 110 988 l 110 851 l -12 851 m 229 851 l 229 988 l 351 988 l 351 851 l 229 851 z "},"ј":{"ha":361,"x_min":-7,"x_max":253,"o":"m -7 -208 l -7 -106 l 53 -106 q 111 -88 89 -106 q 133 -25 133 -71 l 133 736 l 250 736 l 250 -31 q 207 -168 250 -128 q 64 -208 164 -208 l -7 -208 m 131 851 l 131 988 l 253 988 l 253 851 l 131 851 z "},"ћ":{"ha":807,"x_min":14,"x_max":696,"o":"m 111 0 l 111 986 l 228 986 l 228 621 q 315 721 257 689 q 450 753 374 753 q 633 675 569 753 q 696 474 696 597 l 696 0 l 579 0 l 579 440 q 425 650 579 650 q 282 596 336 650 q 228 439 228 542 l 228 0 l 111 0 m 14 808 l 14 903 l 431 903 l 431 808 l 14 808 z "},"ю":{"ha":1086,"x_min":111,"x_max":1025,"o":"m 111 0 l 111 736 l 228 736 l 228 419 l 354 419 q 457 663 367 574 q 689 753 547 753 q 866 706 790 753 q 983 572 942 658 q 1025 368 1025 486 q 983 165 1025 251 q 866 31 942 78 q 689 -17 790 -17 q 457 73 547 -17 q 354 317 367 163 l 228 317 l 228 0 l 111 0 m 689 94 q 847 167 790 94 q 903 368 903 240 q 847 569 903 496 q 689 642 790 642 q 531 569 588 642 q 474 368 474 496 q 531 167 474 240 q 689 94 588 94 z "},"я":{"ha":818,"x_min":111,"x_max":707,"o":"m 111 0 l 290 306 q 166 389 210 335 q 122 514 122 443 q 199 678 122 621 q 417 736 275 736 l 707 736 l 707 0 l 590 0 l 590 285 l 415 285 l 247 0 l 111 0 m 417 388 l 590 388 l 590 635 l 417 635 q 292 603 336 635 q 247 511 247 571 q 292 419 247 451 q 417 388 336 388 z "},"ђ":{"ha":856,"x_min":83,"x_max":744,"o":"m 160 0 l 160 811 l 83 811 l 83 914 l 160 914 l 160 986 l 276 986 l 276 914 l 436 914 l 436 811 l 276 811 l 276 636 q 368 724 308 696 q 496 753 428 753 q 678 677 611 753 q 744 474 744 601 l 744 -4 q 698 -153 744 -97 q 558 -208 651 -208 l 488 -208 l 488 -106 l 544 -106 q 606 -78 583 -106 q 628 -4 628 -51 l 628 432 q 471 642 628 642 q 330 588 383 642 q 276 432 276 535 l 276 0 l 160 0 z "},"ѣ":{"ha":942,"x_min":83,"x_max":881,"o":"m 247 0 l 247 736 l 83 736 l 83 853 l 247 853 l 247 986 l 364 986 l 364 853 l 526 853 l 526 736 l 364 736 l 364 493 l 558 493 q 797 429 714 493 q 881 246 881 365 q 797 64 881 128 q 558 0 714 0 l 247 0 m 364 104 l 558 104 q 706 141 654 104 q 758 246 758 178 q 706 353 758 315 q 558 390 654 390 l 364 390 l 364 104 z "},"ѫ":{"ha":981,"x_min":65,"x_max":915,"o":"m 65 0 l 208 299 q 269 370 231 344 q 351 401 307 396 l 133 633 l 133 736 l 849 736 l 849 633 l 631 401 q 712 370 674 396 q 772 299 750 344 l 915 0 l 782 0 l 669 246 q 633 291 654 279 q 579 303 611 303 l 550 303 l 550 0 l 431 0 l 431 303 l 400 303 q 348 291 369 303 q 311 246 326 279 l 199 0 l 65 0 m 275 633 l 492 404 l 707 633 l 275 633 z "},"ѳ":{"ha":796,"x_min":61,"x_max":735,"o":"m 399 -17 q 221 31 297 -17 q 103 165 144 78 q 61 368 61 251 q 103 572 61 486 q 221 706 144 658 q 399 753 297 753 q 576 706 500 753 q 693 572 651 658 q 735 368 735 486 q 693 165 735 251 q 576 31 651 78 q 399 -17 500 -17 m 382 428 q 487 383 451 396 q 543 367 522 369 q 590 365 564 365 q 613 368 601 365 l 613 368 q 556 569 613 496 q 399 642 500 642 q 262 592 315 642 q 190 454 208 543 q 217 457 203 456 q 299 453 253 460 q 382 428 344 446 m 399 94 q 528 138 476 94 q 600 263 581 182 q 553 265 576 263 q 494 281 531 268 q 390 324 458 293 q 306 350 350 343 q 228 356 261 357 q 183 347 206 356 q 245 161 189 228 q 399 94 301 94 z "},"ѵ":{"ha":815,"x_min":31,"x_max":785,"o":"m 299 0 l 31 736 l 156 736 l 372 122 l 529 569 q 615 693 557 650 q 753 736 674 736 l 785 736 l 785 633 l 771 633 q 639 531 676 633 l 446 0 l 299 0 z "},"җ":{"ha":1203,"x_min":65,"x_max":1138,"o":"m 65 0 l 392 368 l 79 736 l 236 736 l 540 378 l 540 736 l 657 736 l 657 378 l 961 736 l 1115 736 l 803 368 l 1038 103 l 1138 103 l 1138 -208 l 1021 -208 l 1021 0 l 975 0 l 657 358 l 657 0 l 540 0 l 540 358 l 222 0 l 65 0 z "},"қ":{"ha":833,"x_min":111,"x_max":768,"o":"m 111 0 l 111 736 l 231 736 l 231 378 l 576 736 l 740 736 l 378 368 l 651 103 l 651 103 l 768 103 l 768 -208 l 651 -208 l 651 0 l 590 0 l 231 358 l 231 0 l 111 0 z "},"ң":{"ha":914,"x_min":111,"x_max":803,"o":"m 111 0 l 111 736 l 228 736 l 228 418 l 575 418 l 575 736 l 692 736 l 692 103 l 803 103 l 803 -208 l 686 -208 l 686 0 l 575 0 l 575 315 l 228 315 l 228 0 l 111 0 z "},"ү":{"ha":744,"x_min":31,"x_max":714,"o":"m 314 0 l 31 736 l 156 736 l 372 140 l 589 736 l 714 736 l 431 0 l 431 -208 l 314 -208 l 314 0 z "},"ұ":{"ha":744,"x_min":31,"x_max":714,"o":"m 151 -51 l 151 51 l 294 51 l 31 736 l 156 736 l 372 140 l 589 736 l 714 736 l 450 51 l 594 51 l 594 -51 l 431 -51 l 431 -208 l 314 -208 l 314 -51 l 151 -51 z "},"ҳ":{"ha":856,"x_min":65,"x_max":790,"o":"m 65 0 l 336 378 l 79 736 l 215 736 l 408 458 l 596 736 l 735 736 l 481 375 l 674 103 l 790 103 l 790 -208 l 674 -208 l 674 0 l 611 0 l 408 297 l 204 0 l 65 0 z "},"ҷ":{"ha":922,"x_min":111,"x_max":832,"o":"m 607 0 l 607 357 q 524 258 582 296 q 390 219 465 219 q 187 306 263 219 q 111 539 111 392 l 111 736 l 228 736 l 228 539 q 272 387 228 443 q 390 331 317 331 q 549 387 490 331 q 607 540 607 443 l 607 736 l 724 736 l 724 103 l 832 103 l 832 -208 l 715 -208 l 715 0 l 607 0 z "},"һ":{"ha":807,"x_min":111,"x_max":696,"o":"m 111 0 l 111 986 l 228 986 l 228 621 q 315 721 257 689 q 450 753 374 753 q 633 675 569 753 q 696 474 696 597 l 696 0 l 579 0 l 579 440 q 425 650 579 650 q 282 596 336 650 q 228 439 228 542 l 228 0 l 111 0 z "},"ӏ":{"ha":372,"x_min":128,"x_max":244,"o":"m 128 0 l 128 986 l 244 986 l 244 0 l 128 0 z "},"ә":{"ha":779,"x_min":61,"x_max":718,"o":"m 381 753 q 560 705 485 753 q 677 571 636 657 q 718 368 718 485 q 677 165 718 251 q 562 31 636 78 q 386 -17 488 -17 q 217 28 290 -17 q 103 160 144 74 q 61 369 61 246 l 61 404 l 596 404 q 533 583 590 524 q 381 642 476 642 q 263 608 308 642 q 197 518 217 575 l 72 528 q 183 690 101 626 q 381 753 264 753 m 596 301 l 189 301 q 251 145 197 196 q 386 94 306 94 q 527 147 472 94 q 596 301 582 200 z "},"ӣ":{"ha":796,"x_min":111,"x_max":685,"o":"m 111 0 l 111 736 l 228 736 l 228 178 l 547 736 l 685 736 l 685 0 l 568 0 l 568 547 l 256 0 l 111 0 m 213 868 l 213 968 l 585 968 l 585 868 l 213 868 z "},"ө":{"ha":800,"x_min":57,"x_max":731,"o":"m 394 -17 q 217 31 293 -17 q 99 165 140 78 q 57 368 57 251 q 99 572 57 486 q 217 706 140 658 q 394 753 293 753 q 572 706 496 753 q 689 572 647 658 q 731 368 731 486 q 689 165 731 251 q 572 31 647 78 q 394 -17 496 -17 m 394 642 q 248 583 303 642 q 182 419 193 525 l 606 419 q 540 583 594 525 q 394 642 485 642 m 394 94 q 540 153 485 94 q 606 317 594 211 l 182 317 q 248 153 193 211 q 394 94 303 94 z "},"ӯ":{"ha":746,"x_min":31,"x_max":715,"o":"m 143 -208 l 143 -106 l 228 -106 q 285 -94 267 -106 q 314 -56 304 -82 l 340 14 l 300 14 l 31 736 l 158 736 l 378 122 l 588 736 l 715 736 l 417 -93 q 354 -181 396 -153 q 239 -208 313 -208 l 143 -208 m 186 868 l 186 968 l 558 968 l 558 868 l 186 868 z "},"Λ":{"ha":928,"x_min":28,"x_max":900,"o":"m 28 0 l 383 986 l 544 986 l 900 0 l 769 0 l 464 882 l 158 0 l 28 0 z "},"Ω":{"ha":1015,"x_min":63,"x_max":953,"o":"m 65 0 l 65 117 l 249 117 q 113 276 163 175 q 63 506 63 376 q 117 771 63 658 q 271 946 171 883 q 507 1008 371 1008 q 744 946 644 1008 q 899 771 844 883 q 953 506 953 658 q 903 276 953 376 q 767 117 853 175 l 950 117 l 950 0 l 576 0 l 576 117 q 704 169 647 118 q 794 309 761 221 q 828 506 828 397 q 744 790 828 688 q 507 892 661 892 q 271 790 354 892 q 188 506 188 688 q 221 309 188 397 q 311 169 254 221 q 438 117 368 118 l 438 0 l 65 0 z "},"λ":{"ha":792,"x_min":28,"x_max":764,"o":"m 28 0 l 304 707 l 265 806 q 233 863 250 843 q 178 883 217 883 l 104 883 l 104 986 l 169 986 q 301 942 256 986 q 386 800 347 899 l 631 181 q 662 124 646 144 q 715 103 678 103 l 764 103 l 764 0 l 717 0 q 624 19 660 0 q 562 78 588 38 q 510 186 536 119 l 364 557 l 150 0 l 28 0 z "},"π":{"ha":910,"x_min":76,"x_max":863,"o":"m 225 0 l 225 633 l 76 633 l 76 736 l 863 736 l 863 633 l 721 633 l 721 203 q 745 129 721 156 q 817 103 769 103 l 860 103 l 860 0 l 817 0 q 654 56 704 0 q 604 203 604 111 l 604 633 l 342 633 l 342 0 l 225 0 z "},"ℇ":{"ha":822,"x_min":56,"x_max":767,"o":"m 413 -22 q 225 15 306 -22 q 100 119 144 53 q 56 271 56 185 q 108 435 56 367 q 265 533 161 503 q 89 751 89 585 q 130 885 89 828 q 244 976 171 943 q 413 1008 318 1008 q 535 991 474 1008 q 648 944 596 974 q 735 875 700 914 l 657 779 q 545 864 614 831 q 413 897 476 897 q 265 858 319 897 q 211 751 211 818 q 242 649 211 688 q 320 594 274 611 q 413 578 367 578 l 488 579 l 488 469 l 413 471 q 242 421 306 474 q 178 281 178 368 q 242 142 178 196 q 413 89 306 89 q 512 106 460 89 q 611 152 564 122 q 692 221 658 182 l 767 122 q 674 48 731 81 q 549 -3 617 15 q 413 -22 481 -22 z "},"⓿":{"ha":1147,"x_min":61,"x_max":1086,"o":"m 574 -17 q 375 23 468 -17 q 211 133 282 63 q 101 297 140 204 q 61 497 61 390 q 101 695 61 603 q 211 858 140 788 q 375 969 282 929 q 574 1008 468 1008 q 773 969 681 1008 q 936 858 865 929 q 1047 695 1007 788 q 1086 497 1086 603 q 1047 297 1086 390 q 936 133 1007 204 q 773 23 865 63 q 574 -17 681 -17 m 578 211 q 735 286 676 211 q 794 492 794 361 q 735 697 794 622 q 578 771 676 771 q 420 697 479 771 q 361 492 361 622 q 421 286 361 361 q 578 211 481 211 m 469 386 q 453 492 453 431 q 578 688 453 688 q 642 668 614 688 l 469 386 m 578 294 q 514 318 542 294 l 688 601 q 703 492 703 556 q 578 294 703 294 z "},"❶":{"ha":1147,"x_min":61,"x_max":1086,"o":"m 574 -17 q 375 23 468 -17 q 211 133 282 63 q 101 297 140 204 q 61 497 61 390 q 101 695 61 603 q 211 858 140 788 q 375 969 282 929 q 574 1008 468 1008 q 773 969 681 1008 q 936 858 865 929 q 1047 695 1007 788 q 1086 497 1086 603 q 1047 297 1086 390 q 936 133 1007 204 q 773 23 865 63 q 574 -17 681 -17 m 557 222 l 649 222 l 649 761 l 581 761 q 549 674 581 706 q 457 643 518 643 l 424 643 l 424 574 l 557 575 l 557 222 z "},"❷":{"ha":1147,"x_min":61,"x_max":1086,"o":"m 574 -17 q 375 23 468 -17 q 211 133 282 63 q 101 297 140 204 q 61 497 61 390 q 101 695 61 603 q 211 858 140 788 q 375 969 282 929 q 574 1008 468 1008 q 773 969 681 1008 q 936 858 865 929 q 1047 695 1007 788 q 1086 497 1086 603 q 1047 297 1086 390 q 936 133 1007 204 q 773 23 865 63 q 574 -17 681 -17 m 393 222 l 763 222 l 763 303 l 496 303 q 515 359 496 331 q 575 410 533 388 l 632 440 q 729 510 693 472 q 765 615 765 549 q 718 728 765 685 q 590 771 671 771 q 452 723 501 771 q 394 596 403 675 l 483 592 q 515 666 490 642 q 590 690 540 690 q 649 671 624 690 q 674 615 674 651 q 658 556 674 576 q 603 513 643 535 l 531 472 q 440 403 469 439 q 402 324 411 367 q 393 222 393 281 z "},"❸":{"ha":1147,"x_min":61,"x_max":1086,"o":"m 574 -17 q 375 23 468 -17 q 211 133 282 63 q 101 297 140 204 q 61 497 61 390 q 101 695 61 603 q 211 858 140 788 q 375 969 282 929 q 574 1008 468 1008 q 773 969 681 1008 q 936 858 865 929 q 1047 695 1007 788 q 1086 497 1086 603 q 1047 297 1086 390 q 936 133 1007 204 q 773 23 865 63 q 574 -17 681 -17 m 581 211 q 720 255 664 211 q 776 375 776 299 q 751 457 776 421 q 657 510 726 493 q 726 550 701 524 q 750 624 750 576 q 706 730 750 689 q 574 771 661 771 q 447 729 493 771 q 393 626 401 688 l 482 621 q 508 669 485 649 q 574 689 531 689 q 639 668 618 689 q 660 615 660 647 q 636 563 660 581 q 574 544 613 544 l 539 544 l 539 465 l 574 465 q 660 441 633 465 q 686 376 686 417 q 659 315 686 338 q 581 292 632 292 q 501 313 525 292 q 474 367 476 333 l 385 363 q 431 254 389 297 q 581 211 472 211 z "},"❹":{"ha":1147,"x_min":61,"x_max":1086,"o":"m 574 -17 q 375 23 468 -17 q 211 133 282 63 q 101 297 140 204 q 61 497 61 390 q 101 695 61 603 q 211 858 140 788 q 375 969 282 929 q 574 1008 468 1008 q 773 969 681 1008 q 936 858 865 929 q 1047 695 1007 788 q 1086 497 1086 603 q 1047 297 1086 390 q 936 133 1007 204 q 773 23 865 63 q 574 -17 681 -17 m 596 222 l 688 222 l 688 347 l 763 347 l 763 428 l 688 428 l 688 760 l 601 760 l 346 418 l 346 347 l 596 347 l 596 222 m 443 428 l 596 626 l 596 428 l 443 428 z "},"❺":{"ha":1147,"x_min":61,"x_max":1086,"o":"m 574 -17 q 375 23 468 -17 q 211 133 282 63 q 101 297 140 204 q 61 497 61 390 q 101 695 61 603 q 211 858 140 788 q 375 969 282 929 q 574 1008 468 1008 q 773 969 681 1008 q 936 858 865 929 q 1047 695 1007 788 q 1086 497 1086 603 q 1047 297 1086 390 q 936 133 1007 204 q 773 23 865 63 q 574 -17 681 -17 m 571 211 q 715 260 661 211 q 768 396 768 308 q 726 526 768 474 q 599 579 685 579 q 494 540 529 579 l 510 679 l 732 679 l 732 760 l 435 760 l 396 447 l 481 447 q 522 487 497 472 q 585 501 546 501 q 656 471 633 501 q 679 396 679 440 q 651 318 679 344 q 574 292 622 292 q 475 357 492 292 l 386 353 q 442 248 393 285 q 571 211 492 211 z "},"❻":{"ha":1147,"x_min":61,"x_max":1086,"o":"m 574 -17 q 375 23 468 -17 q 211 133 282 63 q 101 297 140 204 q 61 497 61 390 q 101 695 61 603 q 211 858 140 788 q 375 969 282 929 q 574 1008 468 1008 q 773 969 681 1008 q 936 858 865 929 q 1047 695 1007 788 q 1086 497 1086 603 q 1047 297 1086 390 q 936 133 1007 204 q 773 23 865 63 q 574 -17 681 -17 m 586 211 q 731 261 674 211 q 789 401 789 311 q 735 544 789 497 q 600 590 681 590 q 525 574 557 590 q 478 532 493 557 q 515 649 482 607 q 603 690 549 690 q 666 676 644 690 q 696 629 688 661 l 782 638 q 726 738 767 704 q 603 771 686 771 q 477 728 525 771 q 408 616 429 686 q 386 461 386 546 q 442 275 386 339 q 586 211 497 211 m 588 292 q 506 322 536 292 q 478 404 476 353 q 510 482 479 454 q 589 510 540 510 q 672 482 644 510 q 700 404 700 454 q 671 322 700 353 q 588 292 642 292 z "},"❼":{"ha":1147,"x_min":61,"x_max":1086,"o":"m 574 -17 q 375 23 468 -17 q 211 133 282 63 q 101 297 140 204 q 61 497 61 390 q 101 695 61 603 q 211 858 140 788 q 375 969 282 929 q 574 1008 468 1008 q 773 969 681 1008 q 936 858 865 929 q 1047 695 1007 788 q 1086 497 1086 603 q 1047 297 1086 390 q 936 133 1007 204 q 773 23 865 63 q 574 -17 681 -17 m 503 222 l 592 222 q 639 481 592 367 q 767 700 686 596 l 767 761 l 406 761 l 406 681 l 663 681 q 544 465 586 581 q 503 222 503 349 z "},"❽":{"ha":1147,"x_min":61,"x_max":1086,"o":"m 574 -17 q 375 23 468 -17 q 211 133 282 63 q 101 297 140 204 q 61 497 61 390 q 101 695 61 603 q 211 858 140 788 q 375 969 282 929 q 574 1008 468 1008 q 773 969 681 1008 q 936 858 865 929 q 1047 695 1007 788 q 1086 497 1086 603 q 1047 297 1086 390 q 936 133 1007 204 q 773 23 865 63 q 574 -17 681 -17 m 579 211 q 729 252 678 211 q 781 367 781 293 q 751 453 781 415 q 672 513 721 492 q 732 553 710 526 q 754 631 754 581 q 710 733 754 696 q 579 771 665 771 q 449 733 494 771 q 404 631 404 696 q 426 553 404 581 q 486 513 449 526 q 407 454 436 493 q 378 367 378 415 q 430 252 378 293 q 579 211 482 211 m 579 550 q 496 625 496 550 q 517 673 496 656 q 579 690 539 690 q 641 673 619 690 q 663 625 663 656 q 579 550 663 550 m 579 292 q 499 312 528 292 q 469 372 469 332 q 499 440 469 413 q 579 467 528 467 q 660 440 632 467 q 689 372 689 413 q 660 312 689 332 q 579 292 632 292 z "},"❾":{"ha":1147,"x_min":61,"x_max":1086,"o":"m 574 -17 q 375 23 468 -17 q 211 133 282 63 q 101 297 140 204 q 61 497 61 390 q 101 695 61 603 q 211 858 140 788 q 375 969 282 929 q 574 1008 468 1008 q 773 969 681 1008 q 936 858 865 929 q 1047 695 1007 788 q 1086 497 1086 603 q 1047 297 1086 390 q 936 133 1007 204 q 773 23 865 63 q 574 -17 681 -17 m 581 771 q 435 721 493 771 q 378 581 378 671 q 432 438 378 485 q 567 392 486 392 q 643 408 611 392 q 689 450 675 425 q 651 333 685 375 q 564 292 618 292 q 501 307 522 292 q 471 353 479 322 l 385 344 q 440 244 400 278 q 564 211 481 211 q 690 253 642 211 q 759 366 738 296 q 781 521 781 436 q 726 707 781 643 q 581 771 671 771 m 579 690 q 661 660 632 690 q 689 578 690 629 q 657 500 688 528 q 578 472 626 472 q 494 500 522 472 q 467 578 467 528 q 496 660 467 629 q 579 690 525 690 z "},"⓪":{"ha":1150,"x_min":61,"x_max":1089,"o":"m 574 -17 q 375 23 468 -17 q 211 133 282 63 q 101 297 140 204 q 61 497 61 390 q 101 695 61 603 q 211 858 140 788 q 375 969 282 929 q 574 1008 468 1008 q 774 969 681 1008 q 938 858 867 929 q 1049 695 1008 788 q 1089 497 1089 603 q 1049 297 1089 390 q 938 133 1008 204 q 774 23 867 63 q 574 -17 681 -17 m 574 86 q 735 117 660 86 q 866 205 810 149 q 953 336 922 261 q 985 497 985 411 q 953 658 985 583 q 866 788 922 732 q 735 874 810 843 q 574 906 660 906 q 413 874 488 906 q 282 788 338 843 q 195 658 226 732 q 164 497 164 583 q 195 336 164 411 q 282 205 226 261 q 413 117 338 149 q 574 86 488 86 m 578 211 q 421 286 481 211 q 361 492 361 361 q 420 697 361 622 q 578 771 479 771 q 735 697 676 771 q 794 492 794 622 q 735 286 794 361 q 578 211 676 211 m 453 492 q 469 386 453 432 l 642 668 q 578 688 614 688 q 453 492 453 688 m 578 294 q 703 492 703 294 q 686 601 703 557 l 514 318 q 578 294 542 294 z "},"①":{"ha":1150,"x_min":61,"x_max":1089,"o":"m 574 -17 q 375 23 468 -17 q 211 133 282 63 q 101 297 140 204 q 61 497 61 390 q 101 695 61 603 q 211 858 140 788 q 375 969 282 929 q 574 1008 468 1008 q 774 969 681 1008 q 938 858 867 929 q 1049 695 1008 788 q 1089 497 1089 603 q 1049 297 1089 390 q 938 133 1008 204 q 774 23 867 63 q 574 -17 681 -17 m 574 86 q 735 117 660 86 q 866 205 810 149 q 953 336 922 261 q 985 497 985 411 q 953 658 985 583 q 866 788 922 732 q 735 874 810 843 q 574 906 660 906 q 413 874 488 906 q 282 788 338 843 q 195 658 226 732 q 164 497 164 583 q 195 336 164 411 q 282 205 226 261 q 413 117 338 149 q 574 86 488 86 m 553 222 l 553 575 l 419 574 l 419 643 l 453 643 q 545 674 514 643 q 576 761 576 706 l 644 761 l 644 222 l 553 222 z "},"②":{"ha":1150,"x_min":61,"x_max":1089,"o":"m 574 -17 q 375 23 468 -17 q 211 133 282 63 q 101 297 140 204 q 61 497 61 390 q 101 695 61 603 q 211 858 140 788 q 375 969 282 929 q 574 1008 468 1008 q 774 969 681 1008 q 938 858 867 929 q 1049 695 1008 788 q 1089 497 1089 603 q 1049 297 1089 390 q 938 133 1008 204 q 774 23 867 63 q 574 -17 681 -17 m 574 86 q 735 117 660 86 q 866 205 810 149 q 953 336 922 261 q 985 497 985 411 q 953 658 985 583 q 866 788 922 732 q 735 874 810 843 q 574 906 660 906 q 413 874 488 906 q 282 788 338 843 q 195 658 226 732 q 164 497 164 583 q 195 336 164 411 q 282 205 226 261 q 413 117 338 149 q 574 86 488 86 m 392 222 q 401 324 392 281 q 439 403 410 367 q 529 472 468 439 l 601 513 q 657 556 642 535 q 672 615 672 576 q 647 671 672 651 q 589 690 622 690 q 514 666 539 690 q 482 592 489 642 l 393 596 q 451 723 401 675 q 589 771 500 771 q 717 728 669 771 q 764 615 764 685 q 728 510 764 549 q 631 440 692 472 l 574 410 q 513 359 532 388 q 494 303 494 331 l 761 303 l 761 222 l 392 222 z "},"③":{"ha":1150,"x_min":61,"x_max":1089,"o":"m 574 -17 q 375 23 468 -17 q 211 133 282 63 q 101 297 140 204 q 61 497 61 390 q 101 695 61 603 q 211 858 140 788 q 375 969 282 929 q 574 1008 468 1008 q 774 969 681 1008 q 938 858 867 929 q 1049 695 1008 788 q 1089 497 1089 603 q 1049 297 1089 390 q 938 133 1008 204 q 774 23 867 63 q 574 -17 681 -17 m 574 86 q 735 117 660 86 q 866 205 810 149 q 953 336 922 261 q 985 497 985 411 q 953 658 985 583 q 866 788 922 732 q 735 874 810 843 q 574 906 660 906 q 413 874 488 906 q 282 788 338 843 q 195 658 226 732 q 164 497 164 583 q 195 336 164 411 q 282 205 226 261 q 413 117 338 149 q 574 86 488 86 m 578 211 q 428 254 469 211 q 382 363 386 297 l 471 367 q 498 313 474 333 q 578 292 522 292 q 656 315 629 292 q 683 376 683 338 q 657 441 683 417 q 571 465 631 465 l 536 465 l 536 544 l 571 544 q 633 563 610 544 q 657 615 657 581 q 636 668 657 647 q 571 689 615 689 q 505 669 528 689 q 479 621 482 649 l 390 626 q 444 729 399 688 q 571 771 490 771 q 703 730 658 771 q 747 624 747 689 q 723 550 747 576 q 654 510 699 524 q 749 457 724 493 q 774 375 774 421 q 717 255 774 299 q 578 211 661 211 z "},"④":{"ha":1150,"x_min":61,"x_max":1089,"o":"m 574 -17 q 375 23 468 -17 q 211 133 282 63 q 101 297 140 204 q 61 497 61 390 q 101 695 61 603 q 211 858 140 788 q 375 969 282 929 q 574 1008 468 1008 q 774 969 681 1008 q 938 858 867 929 q 1049 695 1008 788 q 1089 497 1089 603 q 1049 297 1089 390 q 938 133 1008 204 q 774 23 867 63 q 574 -17 681 -17 m 574 86 q 735 117 660 86 q 866 205 810 149 q 953 336 922 261 q 985 497 985 411 q 953 658 985 583 q 866 788 922 732 q 735 874 810 843 q 574 906 660 906 q 413 874 488 906 q 282 788 338 843 q 195 658 226 732 q 164 497 164 583 q 195 336 164 411 q 282 205 226 261 q 413 117 338 149 q 574 86 488 86 m 594 222 l 594 347 l 344 347 l 344 418 l 600 760 l 686 760 l 686 428 l 761 428 l 761 347 l 686 347 l 686 222 l 594 222 m 442 428 l 594 428 l 594 626 l 442 428 z "},"⑤":{"ha":1150,"x_min":61,"x_max":1089,"o":"m 574 -17 q 375 23 468 -17 q 211 133 282 63 q 101 297 140 204 q 61 497 61 390 q 101 695 61 603 q 211 858 140 788 q 375 969 282 929 q 574 1008 468 1008 q 774 969 681 1008 q 938 858 867 929 q 1049 695 1008 788 q 1089 497 1089 603 q 1049 297 1089 390 q 938 133 1008 204 q 774 23 867 63 q 574 -17 681 -17 m 574 86 q 735 117 660 86 q 866 205 810 149 q 953 336 922 261 q 985 497 985 411 q 953 658 985 583 q 866 788 922 732 q 735 874 810 843 q 574 906 660 906 q 413 874 488 906 q 282 788 338 843 q 195 658 226 732 q 164 497 164 583 q 195 336 164 411 q 282 205 226 261 q 413 117 338 149 q 574 86 488 86 m 572 211 q 444 248 493 211 q 388 353 394 285 l 476 357 q 575 292 493 292 q 652 318 624 292 q 681 396 681 344 q 658 471 681 440 q 586 501 635 501 q 523 487 547 501 q 482 447 499 472 l 397 447 l 436 760 l 733 760 l 733 679 l 511 679 l 496 540 q 600 579 531 579 q 728 526 686 579 q 769 396 769 474 q 716 260 769 308 q 572 211 663 211 z "},"⑥":{"ha":1150,"x_min":61,"x_max":1089,"o":"m 574 -17 q 375 23 468 -17 q 211 133 282 63 q 101 297 140 204 q 61 497 61 390 q 101 695 61 603 q 211 858 140 788 q 375 969 282 929 q 574 1008 468 1008 q 774 969 681 1008 q 938 858 867 929 q 1049 695 1008 788 q 1089 497 1089 603 q 1049 297 1089 390 q 938 133 1008 204 q 774 23 867 63 q 574 -17 681 -17 m 574 86 q 735 117 660 86 q 866 205 810 149 q 953 336 922 261 q 985 497 985 411 q 953 658 985 583 q 866 788 922 732 q 735 874 810 843 q 574 906 660 906 q 413 874 488 906 q 282 788 338 843 q 195 658 226 732 q 164 497 164 583 q 195 336 164 411 q 282 205 226 261 q 413 117 338 149 q 574 86 488 86 m 576 211 q 432 275 488 211 q 376 461 376 339 q 398 616 376 546 q 467 728 419 686 q 593 771 515 771 q 717 738 676 771 q 772 638 757 704 l 686 629 q 656 676 678 661 q 593 690 635 690 q 506 649 539 690 q 468 532 472 607 q 515 574 483 557 q 590 590 547 590 q 725 544 671 590 q 779 401 779 497 q 722 261 779 311 q 576 211 664 211 m 578 292 q 661 322 632 292 q 690 404 690 353 q 663 482 690 454 q 579 510 635 510 q 500 482 531 510 q 468 404 469 454 q 497 322 467 353 q 578 292 526 292 z "},"⑦":{"ha":1150,"x_min":61,"x_max":1089,"o":"m 574 -17 q 375 23 468 -17 q 211 133 282 63 q 101 297 140 204 q 61 497 61 390 q 101 695 61 603 q 211 858 140 788 q 375 969 282 929 q 574 1008 468 1008 q 774 969 681 1008 q 938 858 867 929 q 1049 695 1008 788 q 1089 497 1089 603 q 1049 297 1089 390 q 938 133 1008 204 q 774 23 867 63 q 574 -17 681 -17 m 574 86 q 735 117 660 86 q 866 205 810 149 q 953 336 922 261 q 985 497 985 411 q 953 658 985 583 q 866 788 922 732 q 735 874 810 843 q 574 906 660 906 q 413 874 488 906 q 282 788 338 843 q 195 658 226 732 q 164 497 164 583 q 195 336 164 411 q 282 205 226 261 q 413 117 338 149 q 574 86 488 86 m 494 222 q 536 465 494 349 q 654 681 578 581 l 397 681 l 397 761 l 758 761 l 758 700 q 631 481 678 596 q 583 222 583 367 l 494 222 z "},"⑧":{"ha":1150,"x_min":61,"x_max":1089,"o":"m 574 -17 q 375 23 468 -17 q 211 133 282 63 q 101 297 140 204 q 61 497 61 390 q 101 695 61 603 q 211 858 140 788 q 375 969 282 929 q 574 1008 468 1008 q 774 969 681 1008 q 938 858 867 929 q 1049 695 1008 788 q 1089 497 1089 603 q 1049 297 1089 390 q 938 133 1008 204 q 774 23 867 63 q 574 -17 681 -17 m 574 86 q 735 117 660 86 q 866 205 810 149 q 953 336 922 261 q 985 497 985 411 q 953 658 985 583 q 866 788 922 732 q 735 874 810 843 q 574 906 660 906 q 413 874 488 906 q 282 788 338 843 q 195 658 226 732 q 164 497 164 583 q 195 336 164 411 q 282 205 226 261 q 413 117 338 149 q 574 86 488 86 m 578 211 q 428 252 481 211 q 376 367 376 293 q 406 454 376 415 q 485 513 435 493 q 425 553 447 526 q 403 631 403 581 q 448 733 403 696 q 578 771 493 771 q 708 733 664 771 q 753 631 753 696 q 731 553 753 581 q 671 513 708 526 q 749 453 719 492 q 779 367 779 415 q 728 252 779 293 q 578 211 676 211 m 578 550 q 661 625 661 550 q 640 673 661 656 q 578 690 618 690 q 516 673 538 690 q 494 625 494 656 q 578 550 494 550 m 578 292 q 659 312 631 292 q 688 372 688 332 q 659 440 688 413 q 578 467 631 467 q 497 440 526 467 q 468 372 468 413 q 497 312 468 332 q 578 292 526 292 z "},"⑨":{"ha":1150,"x_min":61,"x_max":1089,"o":"m 574 -17 q 375 23 468 -17 q 211 133 282 63 q 101 297 140 204 q 61 497 61 390 q 101 695 61 603 q 211 858 140 788 q 375 969 282 929 q 574 1008 468 1008 q 774 969 681 1008 q 938 858 867 929 q 1049 695 1008 788 q 1089 497 1089 603 q 1049 297 1089 390 q 938 133 1008 204 q 774 23 867 63 q 574 -17 681 -17 m 574 86 q 735 117 660 86 q 866 205 810 149 q 953 336 922 261 q 985 497 985 411 q 953 658 985 583 q 866 788 922 732 q 735 874 810 843 q 574 906 660 906 q 413 874 488 906 q 282 788 338 843 q 195 658 226 732 q 164 497 164 583 q 195 336 164 411 q 282 205 226 261 q 413 117 338 149 q 574 86 488 86 m 590 771 q 735 707 681 771 q 790 521 790 643 q 769 366 790 436 q 699 253 747 296 q 574 211 651 211 q 450 244 490 211 q 394 344 410 278 l 481 353 q 510 307 489 322 q 574 292 532 292 q 661 333 628 292 q 699 450 694 375 q 653 408 685 425 q 576 392 621 392 q 442 438 496 392 q 388 581 388 485 q 445 721 388 671 q 590 771 503 771 m 589 690 q 506 660 535 690 q 476 578 476 629 q 504 500 476 528 q 588 472 532 472 q 667 500 636 472 q 699 578 697 528 q 671 660 700 629 q 589 690 642 690 z "},"⁄":{"ha":236,"x_min":-278,"x_max":514,"o":"m -278 0 l 403 986 l 514 986 l -167 0 l -278 0 z "},"½":{"ha":1111,"x_min":28,"x_max":1056,"o":"m 161 449 l 161 801 l 28 800 l 28 869 l 61 869 q 153 901 122 869 q 185 988 185 932 l 253 988 l 253 449 l 161 449 m 114 0 l 794 986 l 906 986 l 225 0 l 114 0 m 683 0 q 692 101 683 58 q 731 181 701 144 q 821 250 760 217 l 893 290 q 949 333 933 313 q 964 393 964 354 q 939 449 964 429 q 881 468 914 468 q 806 444 831 468 q 774 369 781 419 l 685 374 q 742 501 693 453 q 881 549 792 549 q 1008 506 961 549 q 1056 393 1056 463 q 1019 288 1056 326 q 922 218 983 250 l 865 188 q 805 137 824 165 q 786 81 786 108 l 1053 81 l 1053 0 l 683 0 z "},"⅓":{"ha":1089,"x_min":28,"x_max":1047,"o":"m 161 449 l 161 801 l 28 800 l 28 869 l 61 869 q 153 901 122 869 q 185 988 185 932 l 253 988 l 253 449 l 161 449 m 114 0 l 794 986 l 906 986 l 225 0 l 114 0 m 851 -11 q 701 32 743 -11 q 656 140 660 75 l 744 144 q 772 90 747 111 q 851 69 796 69 q 930 92 903 69 q 957 154 957 115 q 931 219 957 194 q 844 243 904 243 l 810 243 l 810 322 l 844 322 q 907 340 883 322 q 931 393 931 358 q 910 446 931 425 q 844 467 889 467 q 778 447 801 467 q 753 399 756 426 l 664 404 q 718 507 672 465 q 844 549 764 549 q 976 508 932 549 q 1021 401 1021 467 q 997 328 1021 354 q 928 288 972 301 q 1022 235 997 271 q 1047 153 1047 199 q 991 33 1047 76 q 851 -11 935 -11 z "},"⅔":{"ha":1181,"x_min":56,"x_max":1139,"o":"m 56 449 q 65 550 56 507 q 103 629 74 593 q 193 699 132 665 l 265 739 q 321 782 306 761 q 336 842 336 803 q 311 897 336 878 q 253 917 286 917 q 178 892 203 917 q 146 818 153 868 l 57 822 q 115 949 65 901 q 253 997 164 997 q 381 954 333 997 q 428 842 428 911 q 392 737 428 775 q 294 667 356 699 l 238 636 q 177 585 196 614 q 158 529 158 557 l 425 529 l 425 449 l 56 449 m 206 0 l 886 986 l 997 986 l 317 0 l 206 0 m 943 -11 q 793 32 835 -11 q 747 140 751 75 l 836 144 q 863 90 839 111 q 943 69 888 69 q 1022 92 994 69 q 1049 154 1049 115 q 1022 219 1049 194 q 936 243 996 243 l 901 243 l 901 322 l 936 322 q 999 340 975 322 q 1022 393 1022 358 q 1001 446 1022 425 q 936 467 981 467 q 870 447 893 467 q 844 399 847 426 l 756 404 q 810 507 764 465 q 936 549 856 549 q 1068 508 1024 549 q 1113 401 1113 467 q 1088 328 1113 354 q 1019 288 1064 301 q 1114 235 1089 271 q 1139 153 1139 199 q 1083 33 1139 76 q 943 -11 1026 -11 z "},"¼":{"ha":1017,"x_min":28,"x_max":989,"o":"m 161 449 l 161 801 l 28 800 l 28 869 l 61 869 q 153 901 122 869 q 185 988 185 932 l 253 988 l 253 449 l 161 449 m 114 0 l 794 986 l 906 986 l 225 0 l 114 0 m 822 0 l 822 125 l 572 125 l 572 196 l 828 538 l 914 538 l 914 206 l 989 206 l 989 125 l 914 125 l 914 0 l 822 0 m 669 206 l 822 206 l 822 404 l 669 206 z "},"¾":{"ha":1086,"x_min":28,"x_max":1058,"o":"m 224 438 q 74 481 115 438 q 28 589 32 524 l 117 593 q 144 539 119 560 q 224 518 168 518 q 302 541 275 518 q 329 603 329 564 q 303 667 329 643 q 217 692 276 692 l 182 692 l 182 771 l 217 771 q 279 789 256 771 q 303 842 303 807 q 282 894 303 874 q 217 915 261 915 q 151 895 174 915 q 125 847 128 875 l 36 853 q 90 956 44 914 q 217 997 136 997 q 349 956 304 997 q 393 850 393 915 q 369 776 393 803 q 300 736 344 750 q 394 683 369 719 q 419 601 419 647 q 363 481 419 525 q 224 438 307 438 m 183 0 l 864 986 l 975 986 l 294 0 l 183 0 m 892 0 l 892 125 l 642 125 l 642 196 l 897 538 l 983 538 l 983 206 l 1058 206 l 1058 125 l 983 125 l 983 0 l 892 0 m 739 206 l 892 206 l 892 404 l 739 206 z "},"⅕":{"ha":1107,"x_min":28,"x_max":1065,"o":"m 161 449 l 161 801 l 28 800 l 28 869 l 61 869 q 153 901 122 869 q 185 988 185 932 l 253 988 l 253 449 l 161 449 m 114 0 l 794 986 l 906 986 l 225 0 l 114 0 m 868 -11 q 740 26 789 -11 q 683 131 690 63 l 772 135 q 871 69 789 69 q 948 96 919 69 q 976 174 976 122 q 953 249 976 218 q 882 279 931 279 q 819 265 843 279 q 778 225 794 250 l 693 225 l 732 538 l 1029 538 l 1029 457 l 807 457 l 792 318 q 896 357 826 357 q 1024 304 982 357 q 1065 174 1065 251 q 1012 38 1065 86 q 868 -11 958 -11 z "},"⅛":{"ha":1114,"x_min":28,"x_max":1072,"o":"m 161 449 l 161 801 l 28 800 l 28 869 l 61 869 q 153 901 122 869 q 185 988 185 932 l 253 988 l 253 449 l 161 449 m 114 0 l 794 986 l 906 986 l 225 0 l 114 0 m 871 -11 q 722 30 774 -11 q 669 144 669 71 q 699 232 669 193 q 778 290 728 271 q 718 331 740 304 q 696 408 696 358 q 741 511 696 474 q 871 549 786 549 q 1001 511 957 549 q 1046 408 1046 474 q 1024 331 1046 358 q 964 290 1001 304 q 1042 231 1013 269 q 1072 144 1072 193 q 1021 30 1072 71 q 871 -11 969 -11 m 871 328 q 954 403 954 328 q 933 451 954 433 q 871 468 911 468 q 809 451 831 468 q 788 403 788 433 q 871 328 788 328 m 871 69 q 952 90 924 69 q 981 150 981 110 q 952 217 981 190 q 871 244 924 244 q 790 217 819 244 q 761 150 761 190 q 790 90 761 110 q 871 69 819 69 z "},"⅜":{"ha":1183,"x_min":28,"x_max":1142,"o":"m 224 438 q 74 481 115 438 q 28 589 32 524 l 117 593 q 144 539 119 560 q 224 518 168 518 q 302 541 275 518 q 329 603 329 564 q 303 667 329 643 q 217 692 276 692 l 182 692 l 182 771 l 217 771 q 279 789 256 771 q 303 842 303 807 q 282 894 303 874 q 217 915 261 915 q 151 895 174 915 q 125 847 128 875 l 36 853 q 90 956 44 914 q 217 997 136 997 q 349 956 304 997 q 393 850 393 915 q 369 776 393 803 q 300 736 344 750 q 394 683 369 719 q 419 601 419 647 q 363 481 419 525 q 224 438 307 438 m 183 0 l 864 986 l 975 986 l 294 0 l 183 0 m 940 -11 q 791 30 843 -11 q 739 144 739 71 q 768 232 739 193 q 847 290 797 271 q 788 331 810 304 q 765 408 765 358 q 810 511 765 474 q 940 549 856 549 q 1071 511 1026 549 q 1115 408 1115 474 q 1093 331 1115 358 q 1033 290 1071 304 q 1112 231 1082 269 q 1142 144 1142 193 q 1090 30 1142 71 q 940 -11 1039 -11 m 940 328 q 1024 403 1024 328 q 1002 451 1024 433 q 940 468 981 468 q 878 451 900 468 q 857 403 857 433 q 940 328 857 328 m 940 69 q 1022 90 993 69 q 1050 150 1050 110 q 1022 217 1050 190 q 940 244 993 244 q 860 217 889 244 q 831 150 831 190 q 860 90 831 110 q 940 69 889 69 z "},"⅝":{"ha":1201,"x_min":56,"x_max":1160,"o":"m 240 438 q 112 474 161 438 q 56 579 63 511 l 144 583 q 243 518 161 518 q 320 544 292 518 q 349 622 349 571 q 326 697 349 667 q 254 728 303 728 q 191 713 215 728 q 150 674 167 699 l 65 674 l 104 986 l 401 986 l 401 906 l 179 906 l 164 767 q 268 806 199 806 q 396 753 354 806 q 438 622 438 700 q 384 486 438 535 q 240 438 331 438 m 201 0 l 882 986 l 993 986 l 313 0 l 201 0 m 958 -11 q 809 30 861 -11 q 757 144 757 71 q 786 232 757 193 q 865 290 815 271 q 806 331 828 304 q 783 408 783 358 q 828 511 783 474 q 958 549 874 549 q 1089 511 1044 549 q 1133 408 1133 474 q 1111 331 1133 358 q 1051 290 1089 304 q 1130 231 1100 269 q 1160 144 1160 193 q 1108 30 1160 71 q 958 -11 1057 -11 m 958 328 q 1042 403 1042 328 q 1020 451 1042 433 q 958 468 999 468 q 897 451 918 468 q 875 403 875 433 q 958 328 875 328 m 958 69 q 1040 90 1011 69 q 1068 150 1068 110 q 1040 217 1068 190 q 958 244 1011 244 q 878 217 907 244 q 849 150 849 190 q 878 90 849 110 q 958 69 907 69 z "},"⅞":{"ha":1097,"x_min":28,"x_max":1056,"o":"m 125 447 q 167 690 125 574 q 285 906 208 806 l 28 906 l 28 986 l 389 986 l 389 925 q 261 706 308 821 q 214 447 214 592 l 125 447 m 97 0 l 778 986 l 889 986 l 208 0 l 97 0 m 854 -11 q 705 30 757 -11 q 653 144 653 71 q 682 232 653 193 q 761 290 711 271 q 701 331 724 304 q 679 408 679 358 q 724 511 679 474 q 854 549 769 549 q 985 511 940 549 q 1029 408 1029 474 q 1007 331 1029 358 q 947 290 985 304 q 1026 231 996 269 q 1056 144 1056 193 q 1004 30 1056 71 q 854 -11 953 -11 m 854 328 q 938 403 938 328 q 916 451 938 433 q 854 468 894 468 q 792 451 814 468 q 771 403 771 433 q 854 328 771 328 m 854 69 q 935 90 907 69 q 964 150 964 110 q 935 217 964 190 q 854 244 907 244 q 774 217 803 244 q 744 150 744 190 q 774 90 744 110 q 854 69 803 69 z "},"₀":{"ha":544,"x_min":56,"x_max":489,"o":"m 272 -150 q 115 -75 175 -150 q 56 131 56 0 q 115 335 56 261 q 272 410 174 410 q 430 335 371 410 q 489 131 489 261 q 430 -75 489 0 q 272 -150 371 -150 m 147 131 q 164 25 147 71 l 336 307 q 272 326 308 326 q 147 131 147 326 m 272 -67 q 397 131 397 -67 q 381 240 397 196 l 208 -43 q 272 -67 236 -67 z "},"₁":{"ha":336,"x_min":28,"x_max":253,"o":"m 161 -139 l 161 214 l 28 213 l 28 282 l 61 282 q 153 313 122 282 q 185 400 185 344 l 253 400 l 253 -139 l 161 -139 z "},"₂":{"ha":483,"x_min":56,"x_max":428,"o":"m 56 -139 q 65 -37 56 -81 q 103 42 74 6 q 193 111 132 78 l 265 151 q 321 194 306 174 q 336 254 336 215 q 311 310 336 290 q 253 329 286 329 q 178 305 203 329 q 146 231 153 281 l 57 235 q 115 362 65 314 q 253 410 164 410 q 381 367 333 410 q 428 254 428 324 q 392 149 428 188 q 294 79 356 111 l 238 49 q 177 -2 196 26 q 158 -58 158 -31 l 425 -58 l 425 -139 l 56 -139 z "},"₃":{"ha":461,"x_min":28,"x_max":419,"o":"m 224 -150 q 74 -107 115 -150 q 28 1 32 -64 l 117 6 q 144 -49 119 -28 q 224 -69 168 -69 q 302 -47 275 -69 q 329 15 329 -24 q 303 80 329 56 q 217 104 276 104 l 182 104 l 182 183 l 217 183 q 279 201 256 183 q 303 254 303 219 q 282 307 303 286 q 217 328 261 328 q 151 308 174 328 q 125 260 128 288 l 36 265 q 90 368 44 326 q 217 410 136 410 q 349 369 304 410 q 393 263 393 328 q 369 189 393 215 q 300 149 344 163 q 394 96 369 132 q 419 14 419 60 q 363 -106 419 -62 q 224 -150 307 -150 z "},"₄":{"ha":458,"x_min":14,"x_max":431,"o":"m 264 -139 l 264 -14 l 14 -14 l 14 57 l 269 399 l 356 399 l 356 67 l 431 67 l 431 -14 l 356 -14 l 356 -139 l 264 -139 m 111 67 l 264 67 l 264 265 l 111 67 z "},"₅":{"ha":479,"x_min":56,"x_max":438,"o":"m 240 -150 q 112 -113 161 -150 q 56 -8 63 -76 l 144 -4 q 243 -69 161 -69 q 320 -43 292 -69 q 349 35 349 -17 q 326 110 349 79 q 254 140 303 140 q 191 126 215 140 q 150 86 167 111 l 65 86 l 104 399 l 401 399 l 401 318 l 179 318 l 164 179 q 268 218 199 218 q 396 165 354 218 q 438 35 438 113 q 384 -101 438 -53 q 240 -150 331 -150 z "},"₆":{"ha":514,"x_min":56,"x_max":458,"o":"m 256 -150 q 111 -86 167 -150 q 56 100 56 -22 q 77 255 56 185 q 147 367 99 325 q 272 410 194 410 q 396 376 356 410 q 451 276 436 343 l 365 268 q 335 315 357 300 q 272 329 314 329 q 185 288 218 329 q 147 171 151 246 q 194 213 163 196 q 269 229 226 229 q 404 183 350 229 q 458 40 458 136 q 401 -100 458 -50 q 256 -150 343 -150 m 257 -69 q 340 -39 311 -69 q 369 43 369 -8 q 342 121 369 93 q 258 149 314 149 q 179 121 210 149 q 147 43 149 93 q 176 -39 146 -8 q 257 -69 206 -69 z "},"₇":{"ha":417,"x_min":28,"x_max":389,"o":"m 125 -139 q 167 103 125 -12 q 285 319 208 219 l 28 319 l 28 400 l 389 400 l 389 339 q 261 120 308 235 q 214 -139 214 6 l 125 -139 z "},"₈":{"ha":486,"x_min":42,"x_max":444,"o":"m 243 -150 q 94 -109 146 -150 q 42 6 42 -68 q 71 93 42 54 q 150 151 100 132 q 90 192 113 165 q 68 269 68 219 q 113 372 68 335 q 243 410 158 410 q 374 372 329 410 q 418 269 418 335 q 396 192 418 219 q 336 151 374 165 q 415 92 385 131 q 444 6 444 54 q 393 -109 444 -68 q 243 -150 342 -150 m 243 189 q 326 264 326 189 q 305 312 326 294 q 243 329 283 329 q 181 312 203 329 q 160 264 160 294 q 243 189 160 189 m 243 -69 q 324 -49 296 -69 q 353 11 353 -29 q 324 78 353 51 q 243 106 296 106 q 163 78 192 106 q 133 11 133 51 q 163 -49 133 -29 q 243 -69 192 -69 z "},"₉":{"ha":514,"x_min":56,"x_max":458,"o":"m 258 410 q 403 346 349 410 q 458 160 458 282 q 437 5 458 75 q 367 -108 415 -65 q 242 -150 319 -150 q 118 -117 158 -150 q 63 -17 78 -83 l 149 -8 q 178 -54 157 -39 q 242 -69 200 -69 q 329 -28 296 -69 q 367 89 363 14 q 321 47 353 64 q 244 31 289 31 q 110 77 164 31 q 56 219 56 124 q 113 360 56 310 q 258 410 171 410 m 257 329 q 174 299 203 329 q 144 217 144 268 q 172 139 144 167 q 256 111 200 111 q 335 139 304 111 q 367 217 365 167 q 339 299 368 268 q 257 329 310 329 z "},"⁰":{"ha":544,"x_min":56,"x_max":489,"o":"m 272 438 q 115 513 175 438 q 56 718 56 588 q 115 923 56 849 q 272 997 174 997 q 430 923 371 997 q 489 718 489 849 q 430 513 489 588 q 272 438 371 438 m 147 718 q 164 613 147 658 l 336 894 q 272 914 308 914 q 147 718 147 914 m 272 521 q 397 718 397 521 q 381 828 397 783 l 208 544 q 272 521 236 521 z "},"¹":{"ha":336,"x_min":28,"x_max":253,"o":"m 161 449 l 161 801 l 28 800 l 28 869 l 61 869 q 153 901 122 869 q 185 988 185 932 l 253 988 l 253 449 l 161 449 z "},"²":{"ha":483,"x_min":56,"x_max":428,"o":"m 56 449 q 65 550 56 507 q 103 629 74 593 q 193 699 132 665 l 265 739 q 321 782 306 761 q 336 842 336 803 q 311 897 336 878 q 253 917 286 917 q 178 892 203 917 q 146 818 153 868 l 57 822 q 115 949 65 901 q 253 997 164 997 q 381 954 333 997 q 428 842 428 911 q 392 737 428 775 q 294 667 356 699 l 238 636 q 177 585 196 614 q 158 529 158 557 l 425 529 l 425 449 l 56 449 z "},"³":{"ha":461,"x_min":28,"x_max":419,"o":"m 224 438 q 74 481 115 438 q 28 589 32 524 l 117 593 q 144 539 119 560 q 224 518 168 518 q 302 541 275 518 q 329 603 329 564 q 303 667 329 643 q 217 692 276 692 l 182 692 l 182 771 l 217 771 q 279 789 256 771 q 303 842 303 807 q 282 894 303 874 q 217 915 261 915 q 151 895 174 915 q 125 847 128 875 l 36 853 q 90 956 44 914 q 217 997 136 997 q 349 956 304 997 q 393 850 393 915 q 369 776 393 803 q 300 736 344 750 q 394 683 369 719 q 419 601 419 647 q 363 481 419 525 q 224 438 307 438 z "},"⁴":{"ha":458,"x_min":14,"x_max":431,"o":"m 264 449 l 264 574 l 14 574 l 14 644 l 269 986 l 356 986 l 356 654 l 431 654 l 431 574 l 356 574 l 356 449 l 264 449 m 111 654 l 264 654 l 264 853 l 111 654 z "},"⁵":{"ha":479,"x_min":56,"x_max":438,"o":"m 240 438 q 112 474 161 438 q 56 579 63 511 l 144 583 q 243 518 161 518 q 320 544 292 518 q 349 622 349 571 q 326 697 349 667 q 254 728 303 728 q 191 713 215 728 q 150 674 167 699 l 65 674 l 104 986 l 401 986 l 401 906 l 179 906 l 164 767 q 268 806 199 806 q 396 753 354 806 q 438 622 438 700 q 384 486 438 535 q 240 438 331 438 z "},"⁶":{"ha":514,"x_min":56,"x_max":458,"o":"m 256 438 q 111 501 167 438 q 56 688 56 565 q 77 842 56 772 q 147 955 99 913 q 272 997 194 997 q 396 964 356 997 q 451 864 436 931 l 365 856 q 335 902 357 888 q 272 917 314 917 q 185 875 218 917 q 147 758 151 833 q 194 800 163 783 q 269 817 226 817 q 404 770 350 817 q 458 628 458 724 q 401 488 458 538 q 256 438 343 438 m 257 518 q 340 549 311 518 q 369 631 369 579 q 342 708 369 681 q 258 736 314 736 q 179 708 210 736 q 147 631 149 681 q 176 549 146 579 q 257 518 206 518 z "},"⁷":{"ha":417,"x_min":28,"x_max":389,"o":"m 125 447 q 167 690 125 574 q 285 906 208 806 l 28 906 l 28 986 l 389 986 l 389 925 q 261 706 308 821 q 214 447 214 592 l 125 447 z "},"⁸":{"ha":486,"x_min":42,"x_max":444,"o":"m 243 438 q 94 478 146 438 q 42 593 42 519 q 71 681 42 642 q 150 739 100 719 q 90 780 113 753 q 68 857 68 807 q 113 960 68 922 q 243 997 158 997 q 374 960 329 997 q 418 857 418 922 q 396 780 418 807 q 336 739 374 753 q 415 680 385 718 q 444 593 444 642 q 393 478 444 519 q 243 438 342 438 m 243 776 q 326 851 326 776 q 305 899 326 882 q 243 917 283 917 q 181 899 203 917 q 160 851 160 882 q 243 776 160 776 m 243 518 q 324 538 296 518 q 353 599 353 558 q 324 666 353 639 q 243 693 296 693 q 163 666 192 693 q 133 599 133 639 q 163 538 133 558 q 243 518 192 518 z "},"⁹":{"ha":514,"x_min":56,"x_max":458,"o":"m 258 997 q 403 933 349 997 q 458 747 458 869 q 437 592 458 663 q 367 480 415 522 q 242 438 319 438 q 118 471 158 438 q 63 571 78 504 l 149 579 q 178 533 157 549 q 242 518 200 518 q 329 560 296 518 q 367 676 363 601 q 321 635 353 651 q 244 618 289 618 q 110 665 164 618 q 56 807 56 711 q 113 947 56 897 q 258 997 171 997 m 257 917 q 174 886 203 917 q 144 804 144 856 q 172 726 144 754 q 256 699 200 699 q 335 726 304 699 q 367 804 365 754 q 339 886 368 856 q 257 917 310 917 z "}," ":{"ha":347,"x_min":0,"x_max":0,"o":""}," ":{"ha":347,"x_min":0,"x_max":0,"o":""},".":{"ha":279,"x_min":61,"x_max":218,"o":"m 61 0 l 61 157 l 218 157 l 218 0 l 61 0 z "},",":{"ha":279,"x_min":61,"x_max":218,"o":"m 65 -217 l 132 0 l 61 0 l 61 157 l 218 157 l 218 19 l 135 -217 l 65 -217 z "},":":{"ha":413,"x_min":128,"x_max":285,"o":"m 128 0 l 128 157 l 285 157 l 285 0 l 128 0 m 128 546 l 128 703 l 285 703 l 285 546 l 128 546 z "},";":{"ha":413,"x_min":128,"x_max":285,"o":"m 128 546 l 128 703 l 285 703 l 285 546 l 128 546 m 132 -217 l 199 0 l 128 0 l 128 157 l 285 157 l 285 19 l 201 -217 l 132 -217 z "},"…":{"ha":793,"x_min":61,"x_max":732,"o":"m 61 0 l 61 157 l 218 157 l 218 0 l 61 0 m 318 0 l 318 157 l 475 157 l 475 0 l 318 0 m 575 0 l 575 157 l 732 157 l 732 0 l 575 0 z "},"!":{"ha":296,"x_min":69,"x_max":226,"o":"m 115 285 q 106 401 111 333 q 97 540 101 469 q 93 667 93 611 l 93 986 l 213 986 l 213 667 q 209 540 213 611 q 201 401 206 469 q 192 285 196 333 l 115 285 m 69 0 l 69 157 l 226 157 l 226 0 l 69 0 z "},"¡":{"ha":296,"x_min":69,"x_max":226,"o":"m 69 761 l 226 761 l 226 604 l 69 604 l 69 761 m 93 -225 l 93 94 q 97 221 93 150 q 106 360 101 292 q 115 476 111 428 l 192 476 q 201 360 196 428 q 209 221 206 292 q 213 94 213 150 l 213 -225 l 93 -225 z "},"?":{"ha":776,"x_min":61,"x_max":715,"o":"m 325 279 q 356 438 325 379 q 460 542 388 497 q 542 601 514 575 q 581 655 571 626 q 590 725 590 683 q 542 844 590 797 q 410 892 494 892 q 252 839 307 892 q 186 686 197 786 l 61 694 q 114 857 69 786 q 233 968 158 928 q 410 1008 308 1008 q 569 972 500 1008 q 676 872 638 936 q 715 725 715 808 q 673 583 715 638 q 540 469 631 528 q 465 393 485 433 q 444 279 444 353 l 325 279 m 303 0 l 303 157 l 460 157 l 460 0 l 303 0 z "},"¿":{"ha":776,"x_min":61,"x_max":715,"o":"m 474 783 l 474 626 l 317 626 l 317 783 l 474 783 m 367 -225 q 208 -189 276 -225 q 100 -88 139 -153 q 61 58 61 -24 q 104 201 61 146 q 236 314 147 256 q 313 391 293 350 q 332 504 332 432 l 451 504 q 420 345 451 404 q 317 242 389 286 q 235 183 263 208 q 197 128 207 157 q 186 58 186 100 q 234 -61 186 -14 q 367 -108 282 -108 q 525 -56 469 -108 q 590 97 581 -3 l 715 89 q 663 -74 707 -3 q 543 -185 618 -144 q 367 -225 468 -225 z "},"·":{"ha":279,"x_min":61,"x_max":218,"o":"m 61 344 l 61 501 l 218 501 l 218 344 l 61 344 z "},"•":{"ha":433,"x_min":61,"x_max":372,"o":"m 217 282 q 102 324 143 282 q 61 432 61 367 q 102 541 61 499 q 217 583 143 583 q 331 541 289 583 q 372 432 372 499 q 331 324 372 367 q 217 282 289 282 z "},"*":{"ha":597,"x_min":61,"x_max":536,"o":"m 207 531 l 135 578 l 228 719 l 61 719 l 61 808 l 228 808 l 135 950 l 207 997 l 299 849 l 392 997 l 464 950 l 369 808 l 536 808 l 536 719 l 369 719 l 464 578 l 392 531 l 299 678 l 207 531 z "},"〃":{"ha":508,"x_min":61,"x_max":447,"o":"m 61 390 l 149 668 l 278 668 l 151 390 l 61 390 m 232 390 l 319 668 l 447 668 l 322 390 l 232 390 z "},"#":{"ha":664,"x_min":-14,"x_max":671,"o":"m 50 0 l 101 274 l -14 274 l 3 371 l 119 371 l 164 611 l 42 611 l 58 708 l 182 708 l 233 986 l 333 986 l 282 708 l 457 708 l 508 986 l 608 986 l 557 708 l 671 708 l 654 611 l 539 611 l 494 371 l 615 371 l 599 274 l 476 274 l 425 0 l 325 0 l 376 274 l 201 274 l 150 0 l 50 0 m 219 371 l 394 371 l 439 611 l 264 611 l 219 371 z "},"/":{"ha":667,"x_min":56,"x_max":576,"o":"m 56 -153 l 465 1042 l 576 1042 l 167 -153 l 56 -153 z "},"\\":{"ha":632,"x_min":56,"x_max":576,"o":"m 576 -153 l 465 -153 l 56 1042 l 167 1042 l 576 -153 z "},"-":{"ha":582,"x_min":61,"x_max":521,"o":"m 61 350 l 61 460 l 521 460 l 521 350 l 61 350 z "},"–":{"ha":821,"x_min":61,"x_max":760,"o":"m 61 351 l 61 460 l 760 460 l 760 351 l 61 351 z "},"—":{"ha":1260,"x_min":61,"x_max":1199,"o":"m 61 351 l 61 460 l 1199 460 l 1199 351 l 61 351 z "},"_":{"ha":774,"x_min":61,"x_max":713,"o":"m 61 -108 l 61 0 l 713 0 l 713 -108 l 61 -108 z "},"〜":{"ha":1179,"x_min":61,"x_max":1118,"o":"m 825 285 q 737 295 776 285 q 658 325 697 306 q 571 371 619 344 q 465 415 521 399 q 365 431 410 431 q 243 399 300 431 q 119 306 186 368 l 61 392 q 174 481 124 449 q 272 526 224 513 q 371 539 319 539 q 478 522 419 539 q 614 464 538 504 q 702 420 669 436 q 760 399 735 404 q 821 393 786 393 q 934 421 881 393 q 1060 515 988 449 l 1118 429 q 825 285 967 285 z "},"(":{"ha":381,"x_min":63,"x_max":360,"o":"m 256 -153 q 63 444 63 138 q 256 1042 63 753 l 360 1042 q 183 444 183 742 q 228 147 183 296 q 360 -153 272 -3 l 256 -153 z "},")":{"ha":381,"x_min":21,"x_max":318,"o":"m 125 -153 l 21 -153 q 153 147 108 -3 q 197 444 197 296 q 21 1042 197 742 l 125 1042 q 318 444 318 753 q 125 -153 318 138 z "},"{":{"ha":540,"x_min":63,"x_max":519,"o":"m 442 -160 q 269 -93 332 -160 q 206 79 206 -26 l 206 194 q 169 334 206 285 q 63 383 132 383 l 63 499 q 169 549 132 499 q 206 688 206 599 l 206 803 q 269 975 206 908 q 442 1042 332 1042 l 519 1042 l 519 933 q 363 908 410 938 q 317 806 317 879 l 317 678 q 271 516 317 574 q 161 443 225 458 l 161 442 q 272 368 226 428 q 317 204 317 308 l 317 76 q 363 -25 317 4 q 519 -51 410 -54 l 519 -160 l 442 -160 z "},"}":{"ha":540,"x_min":21,"x_max":478,"o":"m 99 -160 l 21 -160 l 21 -51 q 178 -25 132 -54 q 224 76 224 4 l 224 204 q 269 368 224 308 q 379 442 314 428 l 379 443 q 269 516 315 458 q 224 678 224 574 l 224 806 q 178 908 224 879 q 21 933 132 938 l 21 1042 l 99 1042 q 272 975 210 1042 q 335 803 335 908 l 335 688 q 372 549 335 599 q 478 499 410 499 l 478 383 q 372 334 410 383 q 335 194 335 285 l 335 79 q 272 -93 335 -26 q 99 -160 210 -160 z "},"[":{"ha":482,"x_min":128,"x_max":461,"o":"m 461 -153 l 128 -153 l 128 1042 l 461 1042 l 461 944 l 239 944 l 239 -56 l 461 -56 l 461 -153 z "},"]":{"ha":482,"x_min":21,"x_max":354,"o":"m 21 -153 l 21 -56 l 243 -56 l 243 944 l 21 944 l 21 1042 l 354 1042 l 354 -153 l 21 -153 z "},"〈":{"ha":489,"x_min":61,"x_max":428,"o":"m 315 -158 l 61 492 l 315 1140 l 428 1140 l 174 492 l 428 -158 l 315 -158 z "},"〉":{"ha":489,"x_min":61,"x_max":428,"o":"m 174 -158 l 61 -158 l 315 492 l 61 1140 l 174 1140 l 428 492 l 174 -158 z "},"【":{"ha":503,"x_min":61,"x_max":442,"o":"m 442 -87 l 61 -87 l 61 1146 l 442 1146 q 254 529 254 849 q 442 -87 254 213 z "},"】":{"ha":503,"x_min":61,"x_max":442,"o":"m 61 -87 q 249 529 249 213 q 61 1146 249 849 l 442 1146 l 442 -87 l 61 -87 z "},"「":{"ha":542,"x_min":61,"x_max":481,"o":"m 61 326 l 61 1147 l 481 1147 l 481 1039 l 172 1039 l 172 326 l 61 326 z "},"」":{"ha":542,"x_min":61,"x_max":481,"o":"m 481 678 l 481 -143 l 61 -143 l 61 -35 l 369 -35 l 369 678 l 481 678 z "},"《":{"ha":721,"x_min":61,"x_max":660,"o":"m 315 -158 l 61 492 l 315 1140 l 428 1140 l 174 492 l 428 -158 l 315 -158 m 547 -158 l 293 492 l 547 1140 l 660 1140 l 406 492 l 660 -158 l 547 -158 z "},"》":{"ha":721,"x_min":61,"x_max":660,"o":"m 406 -158 l 293 -158 l 547 492 l 293 1140 l 406 1140 l 660 492 l 406 -158 m 174 -158 l 61 -158 l 315 492 l 61 1140 l 174 1140 l 428 492 l 174 -158 z "},"〔":{"ha":543,"x_min":61,"x_max":482,"o":"m 410 -203 l 61 111 l 61 871 l 407 1181 l 479 1101 l 172 826 l 172 156 l 482 -124 l 410 -203 z "},"〕":{"ha":543,"x_min":61,"x_max":482,"o":"m 133 -203 l 61 -124 l 371 156 l 371 826 l 64 1101 l 136 1181 l 482 871 l 482 111 l 133 -203 z "},"『":{"ha":543,"x_min":61,"x_max":482,"o":"m 61 324 l 61 1147 l 482 1147 l 482 925 l 283 925 l 283 324 l 61 324 m 117 379 l 228 379 l 228 981 l 426 981 l 426 1092 l 117 1092 l 117 379 z "},"』":{"ha":543,"x_min":61,"x_max":482,"o":"m 482 681 l 482 -143 l 61 -143 l 61 79 l 260 79 l 260 681 l 482 681 m 426 625 l 315 625 l 315 24 l 117 24 l 117 -87 l 426 -87 l 426 625 z "},"〖":{"ha":490,"x_min":61,"x_max":429,"o":"m 429 -87 l 61 -87 l 61 1146 l 429 1146 q 242 529 242 849 q 429 -87 242 213 m 331 -32 q 222 249 258 108 q 186 529 186 390 q 222 810 186 669 q 331 1090 258 951 l 117 1090 l 117 -32 l 331 -32 z "},"〗":{"ha":490,"x_min":61,"x_max":429,"o":"m 61 -87 q 249 529 249 213 q 61 1146 249 849 l 429 1146 l 429 -87 l 61 -87 m 160 -32 l 374 -32 l 374 1090 l 160 1090 q 269 810 233 951 q 304 529 304 669 q 269 249 304 390 q 160 -32 233 108 z "},"‚":{"ha":279,"x_min":61,"x_max":218,"o":"m 65 -217 l 132 0 l 61 0 l 61 157 l 218 157 l 218 19 l 135 -217 l 65 -217 z "},"„":{"ha":508,"x_min":61,"x_max":447,"o":"m 294 -217 l 361 0 l 290 0 l 290 157 l 447 157 l 447 19 l 364 -217 l 294 -217 m 65 -217 l 132 0 l 61 0 l 61 157 l 218 157 l 218 19 l 135 -217 l 65 -217 z "},"“":{"ha":511,"x_min":63,"x_max":449,"o":"m 215 1008 l 149 792 l 219 792 l 219 635 l 63 635 l 63 772 l 146 1008 l 215 1008 m 444 1008 l 378 792 l 449 792 l 449 635 l 292 635 l 292 772 l 375 1008 l 444 1008 z "},"”":{"ha":511,"x_min":63,"x_max":449,"o":"m 296 613 l 363 829 l 292 829 l 292 986 l 449 986 l 449 849 l 365 613 l 296 613 m 67 613 l 133 829 l 63 829 l 63 986 l 219 986 l 219 849 l 136 613 l 67 613 z "},"‘":{"ha":282,"x_min":63,"x_max":219,"o":"m 215 1008 l 149 792 l 219 792 l 219 635 l 63 635 l 63 772 l 146 1008 l 215 1008 z "},"’":{"ha":282,"x_min":63,"x_max":219,"o":"m 67 613 l 133 829 l 63 829 l 63 986 l 219 986 l 219 849 l 136 613 l 67 613 z "},"«":{"ha":740,"x_min":61,"x_max":679,"o":"m 399 106 l 256 106 l 61 332 l 61 435 l 256 661 l 399 661 l 160 383 l 399 106 m 679 106 l 536 106 l 342 332 l 342 435 l 536 661 l 679 661 l 440 383 l 679 106 z "},"»":{"ha":746,"x_min":54,"x_max":672,"o":"m 335 106 l 574 383 l 335 661 l 478 661 l 672 435 l 672 332 l 478 106 l 335 106 m 54 106 l 293 383 l 54 661 l 197 661 l 392 435 l 392 332 l 197 106 l 54 106 z "},"‹":{"ha":460,"x_min":61,"x_max":399,"o":"m 399 106 l 256 106 l 61 332 l 61 435 l 256 661 l 399 661 l 160 383 l 399 106 z "},"›":{"ha":460,"x_min":61,"x_max":399,"o":"m 61 106 l 300 383 l 61 661 l 204 661 l 399 435 l 399 332 l 204 106 l 61 106 z "},"\"":{"ha":481,"x_min":63,"x_max":418,"o":"m 90 617 l 63 875 l 63 986 l 185 986 l 176 617 l 90 617 m 304 617 l 296 986 l 418 986 l 418 875 l 390 617 l 304 617 z "},"'":{"ha":247,"x_min":63,"x_max":185,"o":"m 85 617 l 63 875 l 63 986 l 185 986 l 185 875 l 163 617 l 85 617 z "},"ƒ":{"ha":710,"x_min":83,"x_max":656,"o":"m 83 0 l 83 103 l 172 103 q 258 179 250 103 l 308 633 l 199 633 l 199 736 l 319 736 l 326 800 q 535 986 347 988 l 656 985 l 656 883 l 525 883 q 440 806 449 883 l 432 736 l 656 736 l 656 633 l 421 633 l 371 185 q 308 44 361 92 q 161 -1 256 -3 l 83 0 z "},"฿":{"ha":903,"x_min":128,"x_max":817,"o":"m 128 0 l 128 986 l 365 986 l 365 1118 l 469 1118 l 469 985 q 696 906 617 976 q 775 713 775 835 q 727 580 775 635 q 600 510 679 525 q 759 436 701 497 q 817 279 817 375 q 727 76 817 151 q 482 0 638 0 l 469 0 l 469 -126 l 365 -126 l 365 0 l 128 0 m 247 560 l 365 560 l 365 869 l 247 869 l 247 560 m 650 713 q 603 819 650 779 q 469 868 557 860 l 469 561 q 603 608 557 569 q 650 713 650 646 m 247 117 l 365 117 l 365 443 l 247 443 l 247 117 m 482 443 l 469 443 l 469 117 l 482 117 q 635 160 579 117 q 692 279 692 203 q 637 400 692 357 q 482 443 582 443 z "},"☹":{"ha":1150,"x_min":61,"x_max":1089,"o":"m 574 -17 q 375 23 468 -17 q 211 133 282 63 q 101 297 140 204 q 61 497 61 390 q 101 695 61 603 q 211 858 140 788 q 375 969 282 929 q 574 1008 468 1008 q 774 969 681 1008 q 938 858 867 929 q 1049 695 1008 788 q 1089 497 1089 603 q 1049 297 1089 390 q 938 133 1008 204 q 774 23 867 63 q 574 -17 681 -17 m 574 86 q 735 117 660 86 q 866 205 810 149 q 953 336 922 261 q 985 497 985 411 q 953 658 985 583 q 866 788 922 732 q 735 874 810 843 q 574 906 660 906 q 413 874 488 906 q 282 788 338 843 q 195 658 226 732 q 164 497 164 583 q 195 336 164 411 q 282 205 226 261 q 413 117 338 149 q 574 86 488 86 m 442 576 q 392 597 413 576 q 372 646 372 617 q 392 693 372 674 q 442 713 413 713 q 490 693 469 713 q 510 646 510 674 q 490 597 510 617 q 442 576 469 576 m 725 576 q 676 597 696 576 q 656 646 656 617 q 676 693 656 674 q 725 713 696 713 q 773 693 753 713 q 793 646 793 674 q 773 597 793 617 q 725 576 753 576 m 301 282 q 402 452 326 389 q 582 515 478 515 q 762 452 686 515 q 863 282 838 389 l 763 282 q 692 385 739 350 q 582 421 644 421 q 472 385 519 421 q 401 282 425 350 l 301 282 z "},"☺":{"ha":1150,"x_min":61,"x_max":1089,"o":"m 574 -17 q 375 23 468 -17 q 211 133 282 63 q 101 297 140 204 q 61 497 61 390 q 101 695 61 603 q 211 858 140 788 q 375 969 282 929 q 574 1008 468 1008 q 774 969 681 1008 q 938 858 867 929 q 1049 695 1008 788 q 1089 497 1089 603 q 1049 297 1089 390 q 938 133 1008 204 q 774 23 867 63 q 574 -17 681 -17 m 574 86 q 735 117 660 86 q 866 205 810 149 q 953 336 922 261 q 985 497 985 411 q 953 658 985 583 q 866 788 922 732 q 735 874 810 843 q 574 906 660 906 q 413 874 488 906 q 282 788 338 843 q 195 658 226 732 q 164 497 164 583 q 195 336 164 411 q 282 205 226 261 q 413 117 338 149 q 574 86 488 86 m 442 576 q 392 597 413 576 q 372 646 372 617 q 392 693 372 674 q 442 713 413 713 q 490 693 469 713 q 510 646 510 674 q 490 597 510 617 q 442 576 469 576 m 725 576 q 676 597 696 576 q 656 646 656 617 q 676 693 656 674 q 725 713 696 713 q 773 693 753 713 q 793 646 793 674 q 773 597 793 617 q 725 576 753 576 m 582 226 q 442 260 506 226 q 336 353 378 294 q 283 486 294 411 l 379 486 q 452 367 396 414 q 582 319 508 319 q 712 367 656 319 q 785 486 768 414 l 882 486 q 828 353 871 411 q 722 260 786 294 q 582 226 658 226 z "},"":{"ha":833,"x_min":11,"x_max":822,"o":"m 146 0 q 49 38 88 0 q 11 135 11 76 l 11 676 q 49 773 11 735 q 146 811 88 811 l 688 811 q 784 773 746 811 q 822 676 822 735 l 822 135 q 784 38 822 76 q 688 0 746 0 l 146 0 m 119 172 l 713 172 l 415 688 l 119 172 z "},"@":{"ha":1258,"x_min":63,"x_max":1196,"o":"m 878 -94 q 569 -153 739 -153 q 297 -94 410 -153 q 123 78 183 -35 q 63 347 63 190 q 107 606 63 489 q 234 808 151 722 q 429 940 317 893 q 678 986 542 986 q 951 925 835 986 q 1132 753 1068 864 q 1196 490 1196 642 q 1163 294 1196 379 q 1071 162 1129 210 q 936 114 1013 114 q 840 144 879 114 q 790 226 801 174 q 699 142 757 176 q 578 108 640 108 q 390 178 456 108 q 325 361 325 249 q 362 531 325 454 q 465 652 399 607 q 619 697 531 697 q 730 672 682 697 q 800 606 778 647 l 807 694 l 908 694 l 886 403 q 881 333 885 372 q 878 269 878 294 q 944 206 878 206 q 1056 281 1015 206 q 1096 486 1096 356 q 987 785 1096 681 q 675 889 878 889 q 407 821 522 889 q 227 632 292 753 q 163 350 163 511 q 269 50 163 156 q 572 -56 375 -56 q 854 0 728 -56 l 878 -94 m 592 200 q 705 234 661 200 q 770 322 749 268 q 792 432 792 375 q 754 556 792 506 q 631 606 717 606 q 526 573 568 606 q 461 487 483 540 q 439 369 439 433 q 473 249 439 297 q 592 200 507 200 z "},"&":{"ha":861,"x_min":56,"x_max":833,"o":"m 361 -22 q 138 47 219 -22 q 56 242 56 115 q 74 355 56 306 q 134 450 92 404 q 250 547 176 496 q 176 663 203 610 q 150 781 150 715 q 215 948 150 888 q 392 1008 279 1008 q 563 952 503 1008 q 622 797 622 896 q 575 655 622 718 q 417 518 528 592 l 642 231 q 692 442 692 300 l 808 431 q 781 269 807 347 q 715 143 756 192 l 833 0 l 693 0 l 642 63 q 531 1 601 24 q 361 -22 461 -22 m 353 603 q 465 694 432 651 q 497 789 497 736 q 469 865 497 839 q 392 892 442 892 q 306 863 336 892 q 275 781 275 833 q 292 699 275 738 q 353 603 310 660 m 375 89 q 493 106 446 89 q 564 147 540 122 l 319 456 q 213 356 244 404 q 181 242 181 307 q 227 131 181 172 q 375 89 274 89 z "},"¶":{"ha":828,"x_min":63,"x_max":700,"o":"m 383 0 l 383 425 q 215 459 288 425 q 103 556 143 493 q 63 706 63 619 q 103 855 63 792 q 216 952 143 918 q 383 986 289 986 l 700 986 l 700 0 l 589 0 l 589 881 l 494 881 l 494 0 l 383 0 z "},"§":{"ha":763,"x_min":76,"x_max":686,"o":"m 394 -89 q 232 -56 301 -89 q 123 33 163 -24 q 76 160 83 89 l 197 168 q 257 62 208 101 q 394 22 306 22 q 526 50 489 22 q 563 125 563 78 q 517 200 563 168 q 363 254 472 232 q 160 333 221 285 q 100 461 100 382 q 231 639 100 582 q 103 794 103 696 q 182 951 103 893 q 388 1008 261 1008 q 591 946 513 1008 q 685 772 669 883 l 565 764 q 504 863 554 828 q 375 897 454 897 q 269 869 311 897 q 226 800 226 842 q 263 733 226 757 q 401 681 300 708 q 572 624 510 654 q 660 551 635 593 q 686 447 686 510 q 569 292 686 338 q 656 222 628 264 q 683 117 683 181 q 646 10 683 57 q 544 -62 608 -36 q 394 -89 479 -89 m 435 344 q 538 374 500 344 q 576 453 576 404 q 542 527 576 499 q 455 569 507 556 q 350 582 403 582 q 253 550 294 582 q 211 474 211 518 q 231 413 211 443 q 301 364 251 383 q 435 344 350 344 z "},"©":{"ha":1150,"x_min":63,"x_max":1088,"o":"m 575 -17 q 376 23 469 -17 q 213 133 283 63 q 102 297 142 204 q 63 496 63 390 q 102 695 63 603 q 213 858 142 788 q 376 969 283 929 q 575 1008 469 1008 q 774 969 682 1008 q 938 858 867 929 q 1048 695 1008 788 q 1088 496 1088 603 q 1048 297 1088 390 q 938 133 1008 204 q 774 23 867 63 q 575 -17 682 -17 m 575 94 q 728 126 657 94 q 856 212 800 157 q 942 340 911 267 q 974 496 974 413 q 942 652 974 579 q 856 780 911 725 q 728 866 800 835 q 575 897 657 897 q 421 866 493 897 q 294 780 349 835 q 208 652 239 725 q 176 496 176 579 q 208 340 176 413 q 294 212 239 267 q 421 126 349 157 q 575 94 493 94 m 581 200 q 435 238 499 200 q 335 342 371 275 q 299 496 299 410 q 335 648 299 582 q 435 751 371 714 q 581 789 499 789 q 705 762 650 789 q 794 686 760 735 q 835 575 829 638 l 726 568 q 678 655 718 621 q 581 689 638 689 q 456 635 504 689 q 407 496 407 582 q 456 355 407 410 q 581 300 504 300 q 681 338 639 300 q 732 433 724 375 l 840 426 q 798 310 833 361 q 706 229 763 258 q 581 200 650 200 z "},"®":{"ha":882,"x_min":63,"x_max":819,"o":"m 442 249 q 294 278 363 249 q 173 360 225 308 q 92 481 121 413 q 63 629 63 550 q 92 777 63 708 q 173 898 121 846 q 294 979 225 950 q 442 1008 363 1008 q 589 979 521 1008 q 709 898 657 950 q 790 777 761 846 q 819 629 819 708 q 790 481 819 550 q 709 360 761 413 q 589 278 657 308 q 442 249 521 249 m 442 328 q 597 369 531 328 q 702 478 664 410 q 740 629 740 547 q 702 779 740 711 q 597 888 664 847 q 442 928 531 928 q 285 888 353 928 q 180 779 218 847 q 142 629 142 711 q 180 478 142 547 q 285 369 218 410 q 442 328 353 328 m 290 421 l 290 835 l 428 835 q 553 801 508 835 q 599 708 599 768 q 575 635 599 665 q 508 593 551 604 l 615 421 l 528 421 l 432 583 l 368 583 l 368 421 l 290 421 m 368 647 l 439 647 q 501 665 479 647 q 524 711 524 682 q 439 769 524 769 l 368 769 l 368 647 z "},"℗":{"ha":882,"x_min":63,"x_max":819,"o":"m 442 249 q 294 278 363 249 q 173 360 225 308 q 92 481 121 413 q 63 629 63 550 q 92 777 63 708 q 173 898 121 846 q 294 979 225 950 q 442 1008 363 1008 q 589 979 521 1008 q 709 898 657 950 q 790 777 761 846 q 819 629 819 708 q 790 481 819 550 q 709 360 761 413 q 589 278 657 308 q 442 249 521 249 m 442 328 q 597 369 531 328 q 702 478 664 410 q 740 629 740 547 q 702 779 740 711 q 597 888 664 847 q 442 928 531 928 q 285 888 353 928 q 180 779 218 847 q 142 629 142 711 q 180 478 142 547 q 285 369 218 410 q 442 328 353 328 m 315 421 l 315 835 l 453 835 q 578 801 533 835 q 624 708 624 768 q 578 614 624 644 q 453 583 533 583 l 393 583 l 393 421 l 315 421 m 393 647 l 464 647 q 526 665 504 647 q 549 711 549 682 q 464 769 549 769 l 393 769 l 393 647 z "},"™":{"ha":1242,"x_min":128,"x_max":1114,"o":"m 586 499 l 586 986 l 697 986 l 850 582 l 1004 986 l 1114 986 l 1114 499 l 1033 499 l 1033 861 l 901 499 l 799 499 l 667 861 l 667 499 l 586 499 m 283 499 l 283 908 l 128 908 l 128 986 l 521 986 l 521 908 l 367 908 l 367 499 l 283 499 z "}}}
